<?xml version="1.0" encoding="utf-8"?>
<!-- Generator: Adobe Illustrator 25.0.1, SVG Export Plug-In . SVG Version: 6.00 Build 0)  -->
<svg version="1.1" id="Vrstva_1" xmlns="http://www.w3.org/2000/svg" xmlns:xlink="http://www.w3.org/1999/xlink" x="0px" y="0px"
	 viewBox="0 0 85 100" style="enable-background:new 0 0 85 100;" xml:space="preserve">
<style type="text/css">
	.st0{fill:#F15A22;}
	.st1{opacity:0.15;fill:url(#SVGID_1_);enable-background:new    ;}
	.st2{opacity:0.4;fill:url(#SVGID_2_);enable-background:new    ;}
	.st3{fill:#FFFFFF;}
</style>
<g>
	<path class="st0" d="M85,32.4L81.9,24l2.1-4.8c0.3-0.6,0.1-1.3-0.3-1.8l-5.8-5.9c-2.6-2.6-6.3-3.5-9.8-2.3l-1.6,0.6l-8.9-9.6
		l-15-0.1h-0.1L27.3,0.3L18.5,10l-1.6-0.6C13.4,8.2,9.6,9.1,7,11.7l-5.9,6c-0.4,0.4-0.5,1-0.3,1.5l2.2,5L0,32.4L2,40l9,34.3
		c1,4,3.4,7.4,6.8,9.8c0,0,11,7.7,21.7,14.7c1,0.6,2,1.1,3,1.1c1.1,0,2.1-0.4,3-1.1C57.7,90.8,67.3,84,67.3,84
		c3.3-2.4,5.7-5.8,6.7-9.8l9-34.3L85,32.4z"/>
	
		<linearGradient id="SVGID_1_" gradientUnits="userSpaceOnUse" x1="-254.5254" y1="200.0443" x2="-254.1934" y2="200.0443" gradientTransform="matrix(129.9 0 0 -266.2408 33062.8477 53315.457)">
		<stop  offset="0" style="stop-color:#FFFFFF"/>
		<stop  offset="0.1413" style="stop-color:#FFFFFF;stop-opacity:0.9576"/>
		<stop  offset="1" style="stop-color:#FFFFFF;stop-opacity:0.7"/>
	</linearGradient>
	<path class="st1" d="M11.5,75.7L0,33.2l3.4-8.3L1,18.7L6.6,13c1.8-1.6,5.4-2.2,7.1-1.2l8.7,5l11.3,2.6l8.8-3.7l0.7,75.6
		c-0.1,10.9,0.6,9.7-7.4,4.6L15.9,82.7C13.8,80.6,12.2,78.4,11.5,75.7z"/>
	
		<linearGradient id="SVGID_2_" gradientUnits="userSpaceOnUse" x1="-255.1614" y1="200.0361" x2="-254.8294" y2="200.0361" gradientTransform="matrix(127.5 0 0 -271.2381 32575.75 54311.9102)">
		<stop  offset="0" style="stop-color:#F1F1F2"/>
		<stop  offset="9.191442e-02" style="stop-color:#E4E5E6"/>
		<stop  offset="0.2357" style="stop-color:#D9DADB"/>
		<stop  offset="0.438" style="stop-color:#D2D4D5"/>
		<stop  offset="1" style="stop-color:#D0D2D3"/>
	</linearGradient>
	<path class="st2" d="M67.1,83.9L50.3,95.4c-4.7,2.6-6.9,5.1-7.3,3.9c-0.3-1-0.1-3.8-0.2-8.2l-0.2-73.9c0-0.7,0.5-2,1.4-1.8l8.6,2.6
		L65,15.9l8.2-6c0.9-0.7,2.1-0.6,2.9,0.2l7.3,7c0.7,0.7,0.7,2.1,0.3,2.9l-2,3.8l3.4,8.7l-11.6,43C71.7,80.7,69.1,82.1,67.1,83.9z"/>
	<path class="st3" d="M44.5,61.5c-0.4-0.2-0.8-0.3-1-0.3H43h-0.5c-0.1,0-0.6,0.1-1,0.3l-4.3,1.8c-0.4,0.2-1.1,0.5-1.5,0.7l-6.5,3.4
		c-0.4,0.2-0.4,0.6-0.1,0.8l5.7,4.1c0.4,0.3,0.9,0.7,1.3,1l2.6,2.2c0.3,0.3,0.9,0.8,1.2,1.1l2.5,2.2c0.3,0.3,0.9,0.3,1.2,0l2.5-2.2
		c0.3-0.3,0.9-0.8,1.2-1.1l2.6-2.2c0.3-0.3,0.9-0.7,1.3-1l5.7-4.1c0.4-0.3,0.3-0.6-0.1-0.8l-6.5-3.3c-0.4-0.2-1.1-0.5-1.5-0.7
		L44.5,61.5z"/>
	<path class="st3" d="M75.6,33.8c0.1-0.4,0.1-0.6,0.1-0.6c0-0.4,0-1.2-0.1-1.6l-0.3-1c-0.2-0.4-0.5-1-0.8-1.4l-3.8-5.5
		c-0.2-0.4-0.7-0.9-1-1.3L65,16.4c-0.3-0.3-0.5-0.6-0.6-0.6h-0.1c0,0-0.4,0.1-0.8,0.1l-7.4,1.5c-0.4,0.1-1.1,0.2-1.6,0.3l-0.1,0
		c-0.4,0.1-1.1,0-1.6-0.1l-6.2-2c-0.4-0.1-1.1-0.3-1.5-0.4c0,0-1.3-0.3-2.3-0.3c-1,0-2.3,0.3-2.3,0.3c-0.4,0.1-1.1,0.3-1.5,0.4
		l-6.2,2c-0.4,0.1-1.1,0.2-1.6,0.1l-0.1,0c-0.4-0.1-1.1-0.2-1.6-0.3L22.1,16c-0.4-0.1-0.8-0.1-0.8-0.1h-0.1c0,0-0.3,0.3-0.6,0.6
		l-4.8,6.1c-0.3,0.3-0.7,0.9-1,1.3l-3.8,5.5c-0.2,0.4-0.6,1-0.8,1.4l-0.3,1c-0.1,0.4-0.1,1.2-0.1,1.6c0,0,0,0.1,0.1,0.6
		c0.2,0.8,0.8,1.5,0.8,1.5c0.3,0.3,0.8,0.9,1.1,1.2l11,11.7c0.3,0.3,0.4,0.9,0.2,1.3l-2.3,5.4c-0.2,0.4-0.2,1.1,0,1.5l0.6,1.7
		c0.5,1.4,1.4,2.7,2.6,3.7l2.2,1.8c0.3,0.3,0.9,0.4,1.3,0.2l7-3.4c0.4-0.2,1-0.6,1.3-0.9l5-4.5c0.7-0.7,0.8-1.8,0.1-2.5l-10.6-7.1
		c-0.4-0.2-0.5-0.8-0.3-1.2l4.6-8.8c0.2-0.4,0.2-1,0.1-1.4l-0.6-1.3c-0.2-0.4-0.7-0.9-1.1-1l-13.6-5.1c-0.4-0.2-0.4-0.3,0-0.4
		l8.8-0.8c0.4,0,1.1,0,1.6,0.1l7.8,2.2c0.4,0.1,0.7,0.6,0.6,1l-2.7,14.9c-0.1,0.4-0.1,1,0,1.4c0.1,0.3,0.5,0.6,1,0.7l5.4,1.2
		c0.4,0.1,1.1,0.1,1.6,0l5.1-1.2c0.4-0.1,0.9-0.4,1-0.7c0.1-0.3,0.1-0.9,0-1.4l-2.7-14.9c-0.1-0.4,0.2-0.9,0.6-1l7.8-2.2
		c0.4-0.1,1.1-0.2,1.6-0.1l8.8,0.8c0.4,0,0.5,0.2,0,0.4l-13.6,5.2c-0.4,0.2-0.9,0.6-1.1,1l-0.6,1.3c-0.2,0.4-0.2,1.1,0.1,1.4
		l4.7,8.8c0.2,0.4,0.1,0.9-0.3,1.2l-10.6,7.2c-0.7,0.7-0.6,1.9,0.1,2.5l5,4.5c0.3,0.3,0.9,0.7,1.3,0.9l7.1,3.4
		c0.4,0.2,1,0.1,1.3-0.2l2.2-1.8c1.2-1,2.1-2.2,2.6-3.7l0.6-1.7c0.2-0.4,0.1-1.1,0-1.5l-2.3-5.4c-0.2-0.4-0.1-1,0.2-1.3l11-11.7
		c0.3-0.3,0.8-0.9,1.1-1.2C74.8,35.4,75.4,34.6,75.6,33.8z"/>
</g>
</svg>
