<?xml version="1.0" encoding="utf-8"?>
<!-- Generator: Adobe Illustrator 25.0.1, SVG Export Plug-In . SVG Version: 6.00 Build 0)  -->
<svg version="1.1"
	 id="svg3039" xmlns:cc="http://creativecommons.org/ns#" xmlns:dc="http://purl.org/dc/elements/1.1/" xmlns:inkscape="http://www.inkscape.org/namespaces/inkscape" xmlns:rdf="http://www.w3.org/1999/02/22-rdf-syntax-ns#" xmlns:sodipodi="http://sodipodi.sourceforge.net/DTD/sodipodi-0.dtd" xmlns:svg="http://www.w3.org/2000/svg"
	 xmlns="http://www.w3.org/2000/svg" xmlns:xlink="http://www.w3.org/1999/xlink" x="0px" y="0px" viewBox="0 0 256 256"
	 style="enable-background:new 0 0 256 256;" xml:space="preserve">
<style type="text/css">
	.st0{fill:url(#path3655_1_);}
	.st1{fill:#2E5C91;}
	.st2{fill:url(#path3596_1_);}
	.st3{fill:#699DD3;}
	.st4{fill:url(#path3596-1_1_);}
	.st5{fill:url(#path3596-1-7_1_);}
	.st6{fill:url(#path3645_1_);stroke:url(#path3645_2_);stroke-width:10.0701;}
	.st7{fill:#FFFFFF;}
</style>
<g>
	
		<sodipodi:namedview  bordercolor="#666666" borderopacity="1" gridtolerance="10" guidetolerance="10" id="namedview6" inkscape:current-layer="svg3039" inkscape:cx="372.87473" inkscape:cy="103.791" inkscape:pageopacity="0" inkscape:pageshadow="2" inkscape:window-height="750" inkscape:window-maximized="1" inkscape:window-width="1280" inkscape:window-x="-8" inkscape:window-y="-8" inkscape:zoom="1.4142136" objecttolerance="10" pagecolor="#ffffff" showgrid="false">
		</sodipodi:namedview>
	
		<linearGradient id="path3655_1_" gradientUnits="userSpaceOnUse" x1="166.1278" y1="180.0966" x2="232.3786" y2="187.2805" gradientTransform="matrix(1 0 0 -1 3.3917 265.4186)">
		<stop  offset="0" style="stop-color:#B2CDE9"/>
		<stop  offset="1" style="stop-color:#C4DBEE"/>
	</linearGradient>
	<path id="path3655" sodipodi:nodetypes="cssscc" class="st0" d="M244.6,78.2c0,17.7-22.3,39.4-51.7,39.4s-67.6-18.2-67.6-35.8
		s23.8-32,53.2-32c22.5,0,52.3,20.6,63.7,23C243.1,74.6,243.7,76,244.6,78.2z"/>
	<path id="path3655-4-8" sodipodi:nodetypes="cssscc" class="st1" d="M26.3,53.2c14-10.8,39.9-1.4,57.9,21.8s20,57.6,6,68.5
		c-14,10.8-38.6-6-56.6-29.2c-13.8-17.7-4.6-46.5-9.7-56.9C24.6,56.1,25.5,54.6,26.3,53.2z"/>
	
		<radialGradient id="path3596_1_" cx="-291.1974" cy="455.1836" r="107.9466" gradientTransform="matrix(-7.565120e-03 0.5575 1.0315 1.398286e-02 -346.8309 173.6457)" gradientUnits="userSpaceOnUse">
		<stop  offset="0" style="stop-color:#658DB6"/>
		<stop  offset="0.7678" style="stop-color:#527FAB"/>
		<stop  offset="1" style="stop-color:#4071A0"/>
	</radialGradient>
	<path id="path3596" sodipodi:nodetypes="ccccsc" class="st2" d="M242.2,72.7c-7.9,0-68.9,0.3-121.5,0.1
		c-19.6,5.8-35.8,15-44.2,32.9c-6-5.1-46-47.7-50.1-52.4c35.4-47,84.1-51.4,93.6-51.4C129.4,1.8,199.6-7.9,242.2,72.7L242.2,72.7z"
		/>
	<path id="path3655-4" sodipodi:nodetypes="cssscc" class="st3" d="M114.7,254.1c-14.1-10.7-16.5-41.7,1.3-65.1s46.3-39.4,60.4-28.8
		c14.1,10.7,8.4,44-9.3,67.4c-13.6,17.9-40.1,19.1-48.8,26.7C116.9,254.3,116.1,254.3,114.7,254.1z"/>
	
		<radialGradient id="path3596-1_1_" cx="-219.1297" cy="175.2896" r="68.2731" gradientTransform="matrix(0.8129 1.6998 2.1519 -1.0292 -67.9753 675.2811)" gradientUnits="userSpaceOnUse">
		<stop  offset="0" style="stop-color:#D0E2F1"/>
		<stop  offset="0.8558" style="stop-color:#CADEF0"/>
		<stop  offset="1" style="stop-color:#95BEE3"/>
	</radialGradient>
	<path id="path3596-1" sodipodi:nodetypes="ccccsc" class="st4" d="M118.3,254.4c4-6.8,32.6-59.7,59.5-104.9c5-19.8,6-38-5.1-54.4
		c7.5-2.6,65.7-15.8,71.9-16.9c22.5,54.4,1.6,98.6-3.2,106.7C236.6,193.1,209.4,258.6,118.3,254.4L118.3,254.4z"/>
	
		<radialGradient id="path3596-1-7_1_" cx="-683.2142" cy="64.1435" r="67.0547" gradientTransform="matrix(-1.2862 -8.596317e-02 -0.1145 1.7137 -783.9968 -44.3144)" gradientUnits="userSpaceOnUse">
		<stop  offset="0" style="stop-color:#96D0E1"/>
		<stop  offset="0.6782" style="stop-color:#89B7E1"/>
		<stop  offset="1" style="stop-color:#699DD3"/>
	</radialGradient>
	<path id="path3596-1-7" sodipodi:nodetypes="ccccsc" class="st5" d="M23.9,57.3c3.9,6.9,34.7,59.6,60.7,105.3
		c14.8,14.1,31.3,22,51,20.4c-1.4,7.8-18.8,65.2-20.8,71.2c-58.4-7.2-86.5-47.2-91.3-55.5C18.8,190.5-24.7,134.4,23.9,57.3
		L23.9,57.3z"/>
	
		<linearGradient id="path3645_1_" gradientUnits="userSpaceOnUse" x1="-348.6466" y1="102.1419" x2="-348.36" y2="212.5771" gradientTransform="matrix(0.7729 0 0 -0.7762 397.0805 248.833)">
		<stop  offset="0" style="stop-color:#3B79BC"/>
		<stop  offset="1" style="stop-color:#94B8E0"/>
	</linearGradient>
	
		<linearGradient id="path3645_2_" gradientUnits="userSpaceOnUse" x1="-348.8686" y1="227.8285" x2="-348.1448" y2="84.2906" gradientTransform="matrix(0.7729 0 0 -0.7762 397.0805 248.833)">
		<stop  offset="0" style="stop-color:#D7DEF0"/>
		<stop  offset="0.5" style="stop-color:#FFFFFF"/>
		<stop  offset="1" style="stop-color:#D5DEF0"/>
	</linearGradient>
	<path id="path3645" class="st6" d="M179.3,127.7c0,28.6-23.1,51.8-51.6,51.8s-51.6-23.2-51.6-51.8s23.1-51.8,51.6-51.8
		S179.3,99.1,179.3,127.7z"/>
	<path id="rect3782" sodipodi:nodetypes="ccc" class="st7" d="M167.1,101.6c20.9,19.3,18.1,33.4,11.4,49.7
		C175,126.2,175.8,114.7,167.1,101.6z"/>
	<path id="rect3782-4" sodipodi:nodetypes="ccc" class="st7" d="M97,174.7c-25.6-16.3-33.7-51.6-9.9-71.1
		C74.8,125.9,80,140.2,97,174.7z"/>
</g>
</svg>
