<?xml version="1.0" encoding="utf-8"?>
<!-- Generator: Adobe Illustrator 25.0.1, SVG Export Plug-In . SVG Version: 6.00 Build 0)  -->
<svg version="1.1" xmlns="http://www.w3.org/2000/svg" xmlns:xlink="http://www.w3.org/1999/xlink" x="0px" y="0px"
	 viewBox="0 0 750 180" style="enable-background:new 0 0 750 180;" xml:space="preserve">
<style type="text/css">
	.st0{fill:#7D3A94;}
	.st1{fill:#CFDE38;}
	.st2{fill:#61B247;}
	.st3{fill:#3F5FAE;}
	.st4{fill:#473290;}
	.st5{fill:#1595CD;}
	.st6{fill:#EF3527;}
	.st7{fill:#A71E4A;}
	.st8{fill:#F15324;}
	.st9{fill:#F3EC3A;}
	.st10{fill:#F89B1F;}
	.st11{fill:#F6BD18;}
	.st12{fill:#417F24;}
	.st13{fill:#6BC133;}
	.st14{fill:#4F9933;}
	.st15{fill:#498E2D;}
	.st16{fill:#55A03A;}
	.st17{fill:#75EF48;}
	.st18{fill:#326B15;}
	.st19{fill:#6FDB42;}
	.st20{fill:#2FAF00;}
	.st21{fill:#63C634;}
	.st22{fill:#54A835;}
	.st23{fill:#FFFFFF;}
</style>
<g id="Vrstva_1">
</g>
<g id="Vrstva_2">
	<g>
		<g>
			<path class="st0" d="M-96.7,45.4C-96.7,45.4-96.7,45.4-96.7,45.4l16.3-16.3l0,0c-9.9-9.9-21.7-16.5-34.3-19.8l-6,22.3
				C-111.9,33.9-103.6,38.5-96.7,45.4z"/>
		</g>
		<g>
			<path class="st1" d="M-148.4,134.9l-6,22.3c13,3.5,26.7,3.5,39.6,0l-6-22.3C-129.7,137.3-139.3,137.3-148.4,134.9z"/>
		</g>
		<g>
			<path class="st2" d="M-120.7,134.9l6,22.3c12.6-3.4,24.4-10,34.3-19.8l-16.3-16.3C-103.6,128-111.9,132.6-120.7,134.9z"/>
		</g>
		<g>
			<path class="st3" d="M-82.8,97.1l22.3,6c3.5-13,3.5-26.7,0-39.6l-22.3,6C-80.4,78.5-80.4,88-82.8,97.1z"/>
		</g>
		<g>
			<path class="st4" d="M-96.7,45.4c6.9,6.9,11.5,15.2,13.8,24l22.3-6c-3.4-12.6-10-24.4-19.8-34.3L-96.7,45.4z"/>
		</g>
		<g>
			<path class="st5" d="M-96.7,121.1l16.3,16.3c9.9-9.9,16.5-21.7,19.8-34.3l-22.3-6C-85.2,105.9-89.8,114.2-96.7,121.1z"/>
		</g>
		<g>
			<path class="st6" d="M-148.4,31.6l-6-22.3c-12.6,3.4-24.4,10-34.3,19.8l16.3,16.3C-165.5,38.5-157.1,33.9-148.4,31.6z"/>
		</g>
		<g>
			<path class="st7" d="M-120.7,31.6l6-22.3c-13-3.5-26.7-3.5-39.6,0l6,22.3C-139.3,29.2-129.7,29.2-120.7,31.6z"/>
		</g>
		<g>
			<path class="st8" d="M-172.3,45.4l-16.3-16.3c-9.9,9.9-16.5,21.7-19.8,34.3l22.3,6C-183.8,60.6-179.2,52.3-172.3,45.4z"/>
		</g>
		<g>
			<path class="st9" d="M-172.3,121.1l-16.3,16.3c9.9,9.9,21.7,16.5,34.3,19.8l6-22.3C-157.1,132.6-165.5,128-172.3,121.1z"/>
		</g>
		<g>
			<path class="st10" d="M-186.2,69.4l-22.3-6c-3.5,13-3.5,26.7,0,39.6l22.3-6C-188.6,88-188.6,78.5-186.2,69.4z"/>
		</g>
		<g>
			<path class="st11" d="M-172.3,121.1c-6.9-6.9-11.5-15.2-13.8-24l-22.3,6c3.4,12.6,10,24.4,19.8,34.3l0,0L-172.3,121.1
				C-172.3,121.1-172.3,121.1-172.3,121.1z"/>
		</g>
	</g>
	<g>
		<g>
			<path class="st12" d="M-96.7-123.3C-96.7-123.3-96.7-123.3-96.7-123.3l16.3-16.3l0,0c-9.9-9.9-21.7-16.5-34.3-19.8l-6,22.3
				C-111.9-134.7-103.6-130.1-96.7-123.3z"/>
		</g>
		<g>
			<path class="st13" d="M-148.4-33.8l-6,22.3c13,3.5,26.7,3.5,39.6,0l-6-22.3C-129.7-31.3-139.3-31.3-148.4-33.8z"/>
		</g>
		<g>
			<path class="st2" d="M-120.7-33.8l6,22.3c12.6-3.4,24.4-10,34.3-19.8l-16.3-16.3C-103.6-40.7-111.9-36.1-120.7-33.8z"/>
		</g>
		<g>
			<path class="st14" d="M-82.8-71.6l22.3,6c3.5-13,3.5-26.7,0-39.6l-22.3,6C-80.4-90.2-80.4-80.6-82.8-71.6z"/>
		</g>
		<g>
			<path class="st15" d="M-96.7-123.3c6.9,6.9,11.5,15.2,13.8,24l22.3-6c-3.4-12.6-10-24.4-19.8-34.3L-96.7-123.3z"/>
		</g>
		<g>
			<path class="st16" d="M-96.7-47.6l16.3,16.3c9.9-9.9,16.5-21.7,19.8-34.3l-22.3-6C-85.2-62.8-89.8-54.5-96.7-47.6z"/>
		</g>
		<g>
			<path class="st17" d="M-148.4-137.1l-6-22.3c-12.6,3.4-24.4,10-34.3,19.8l16.3,16.3C-165.5-130.1-157.1-134.7-148.4-137.1z"/>
		</g>
		<g>
			<path class="st18" d="M-120.7-137.1l6-22.3c-13-3.5-26.7-3.5-39.6,0l6,22.3C-139.3-139.5-129.7-139.5-120.7-137.1z"/>
		</g>
		<g>
			<path class="st19" d="M-172.3-123.3l-16.3-16.3c-9.9,9.9-16.5,21.7-19.8,34.3l22.3,6C-183.8-108.1-179.2-116.4-172.3-123.3z"/>
		</g>
		<g>
			<path class="st20" d="M-172.3-47.6l-16.3,16.3c9.9,9.9,21.7,16.5,34.3,19.8l6-22.3C-157.1-36.1-165.5-40.7-172.3-47.6z"/>
		</g>
		<g>
			<path class="st21" d="M-186.2-99.3l-22.3-6c-3.5,13-3.5,26.7,0,39.6l22.3-6C-188.6-80.6-188.6-90.2-186.2-99.3z"/>
		</g>
		<g>
			<path class="st22" d="M-172.3-47.6c-6.9-6.9-11.5-15.2-13.8-24l-22.3,6c3.4,12.6,10,24.4,19.8,34.3l0,0L-172.3-47.6
				C-172.3-47.6-172.3-47.6-172.3-47.6z"/>
		</g>
	</g>
	<g>
		<path d="M-168.4-85.4l2.3,2.9h-1.7l-1.9-2.5v2.5h-1.4v-5.7h1.4v2.5l1.9-2.5h1.6L-168.4-85.4z"/>
		<path d="M-161.4-87.9c0.4,0.2,0.8,0.6,1,1c0.3,0.4,0.4,0.9,0.4,1.5s-0.1,1.1-0.4,1.5c-0.3,0.4-0.6,0.8-1,1s-0.9,0.4-1.4,0.4
			c-0.5,0-1-0.1-1.4-0.4s-0.8-0.6-1-1c-0.3-0.4-0.4-0.9-0.4-1.5s0.1-1.1,0.4-1.5c0.3-0.4,0.6-0.8,1-1s0.9-0.4,1.4-0.4
			C-162.3-88.3-161.9-88.2-161.4-87.9z M-163.9-86.6c-0.3,0.3-0.4,0.7-0.4,1.2c0,0.5,0.1,0.9,0.4,1.2c0.3,0.3,0.6,0.4,1.1,0.4
			c0.4,0,0.8-0.1,1.1-0.4c0.3-0.3,0.4-0.7,0.4-1.2s-0.1-0.9-0.4-1.2c-0.3-0.3-0.6-0.4-1.1-0.4C-163.3-87-163.7-86.9-163.9-86.6z"/>
		<path d="M-152.9-88.1v5.6h-1.4V-86l-1.2,3.5h-1.2l-1.2-3.5v3.5h-1.4v-5.6h1.7l1.5,3.9l1.5-3.9H-152.9z"/>
		<path d="M-150.6-84.5v2h-1.4v-5.7h2.2c0.7,0,1.2,0.2,1.5,0.5c0.4,0.3,0.5,0.8,0.5,1.3c0,0.4-0.1,0.7-0.2,0.9
			c-0.2,0.3-0.4,0.5-0.7,0.6c-0.3,0.2-0.7,0.2-1.1,0.2H-150.6z M-149.1-86.3c0-0.5-0.3-0.7-0.8-0.7h-0.7v1.5h0.7
			C-149.3-85.6-149.1-85.9-149.1-86.3z"/>
		<path d="M-145.6-83.6h1.8v1h-3.2v-5.7h1.4V-83.6z"/>
		<path d="M-141.8-87.1v1.2h1.9v1h-1.9v1.3h2.2v1.1h-3.5v-5.7h3.5v1.1H-141.8z"/>
		<path d="M-132.5-88.1v5.6h-1.4V-86l-1.2,3.5h-1.2l-1.2-3.5v3.5h-1.4v-5.6h1.7l1.5,3.9l1.5-3.9H-132.5z"/>
		<path d="M-130.2-87.1v1.2h1.9v1h-1.9v1.3h2.2v1.1h-3.5v-5.7h3.5v1.1H-130.2z"/>
		<path d="M-122.3-82.5h-1.4l-2.3-3.5v3.5h-1.4v-5.7h1.4l2.3,3.5v-3.5h1.4V-82.5z"/>
		<path d="M-117.2-88.2v1.1h-1.5v4.6h-1.4v-4.6h-1.5v-1.1H-117.2z"/>
		<path d="M-113.2-83.6h-2.1l-0.4,1h-1.4l2.1-5.6h1.6l2.1,5.6h-1.5L-113.2-83.6z M-113.1-89.3l-1.9,0.8v-0.9l1.9-0.9V-89.3z
			 M-113.5-84.6l-0.7-2.1l-0.7,2.1H-113.5z"/>
		<path d="M-107.9-82.5l-1.2-2.1h-0.3v2.1h-1.4v-5.7h2.3c0.4,0,0.8,0.1,1.1,0.2c0.3,0.2,0.5,0.4,0.7,0.6c0.2,0.3,0.2,0.6,0.2,0.9
			c0,0.4-0.1,0.8-0.3,1c-0.2,0.3-0.6,0.5-1,0.6l1.3,2.2H-107.9z M-109.5-85.6h0.8c0.3,0,0.5-0.1,0.6-0.2s0.2-0.3,0.2-0.5
			c0-0.2-0.1-0.4-0.2-0.5c-0.1-0.1-0.3-0.2-0.6-0.2h-0.8V-85.6z"/>
		<path d="M-100.7-82.5h-1.4l-2.3-3.5v3.5h-1.4v-5.7h1.4l2.3,3.5v-3.5h1.4V-82.5z"/>
		<path d="M-97.9-89.3l-1.9,0.8v-0.9l1.9-0.9V-89.3z M-98.4-88.2v5.7h-1.4v-5.7H-98.4z"/>
	</g>
	<text transform="matrix(1 0 0 1 -172.3455 84.0627)" style="font-family:'Poppins-Bold'; font-size:8px;">Komplementární</text>
	<g>
		<g>
			<g>
				<g>
					<path class="st0" d="M119.1,52.2C119.1,52.2,119.1,52.2,119.1,52.2l16.3-16.3l0,0c-9.9-9.9-21.7-16.5-34.3-19.8l-6,22.3
						C103.9,40.7,112.2,45.3,119.1,52.2z"/>
				</g>
				<g>
					<path class="st1" d="M67.4,141.7l-6,22.3c13,3.5,26.7,3.5,39.6,0l-6-22.3C86,144.1,76.5,144.1,67.4,141.7z"/>
				</g>
				<g>
					<path class="st2" d="M95.1,141.7l6,22.3c12.6-3.4,24.4-10,34.3-19.8l-16.3-16.3C112.2,134.7,103.9,139.3,95.1,141.7z"/>
				</g>
				<g>
					<path class="st3" d="M132.9,103.8l22.3,6c3.5-13,3.5-26.7,0-39.6l-22.3,6C135.3,85.2,135.3,94.8,132.9,103.8z"/>
				</g>
				<g>
					<path class="st4" d="M119.1,52.2c6.9,6.9,11.5,15.2,13.8,24l22.3-6c-3.4-12.6-10-24.4-19.8-34.3L119.1,52.2z"/>
				</g>
				<g>
					<path class="st5" d="M119.1,127.8l16.3,16.3c9.9-9.9,16.5-21.7,19.8-34.3l-22.3-6C130.6,112.6,126,121,119.1,127.8z"/>
				</g>
				<g>
					<path class="st6" d="M67.4,38.3l-6-22.3C48.9,19.4,37,26,27.1,35.9l16.3,16.3C50.3,45.3,58.6,40.7,67.4,38.3z"/>
				</g>
				<g>
					<path class="st7" d="M95.1,38.3l6-22.3c-13-3.5-26.7-3.5-39.6,0l6,22.3C76.5,35.9,86,35.9,95.1,38.3z"/>
				</g>
				<g>
					<path class="st8" d="M43.4,52.2L27.1,35.9c-9.9,9.9-16.5,21.7-19.8,34.3l22.3,6C31.9,67.4,36.5,59,43.4,52.2z"/>
				</g>
				<g>
					<path class="st9" d="M43.4,127.8l-16.3,16.3c9.9,9.9,21.7,16.5,34.3,19.8l6-22.3C58.6,139.3,50.3,134.7,43.4,127.8z"/>
				</g>
				<g>
					<path class="st10" d="M29.6,76.2l-22.3-6c-3.5,13-3.5,26.7,0,39.6l22.3-6C27.2,94.8,27.2,85.2,29.6,76.2z"/>
				</g>
				<g>
					<path class="st11" d="M43.4,127.8c-6.9-6.9-11.5-15.2-13.8-24l-22.3,6c3.4,12.6,10,24.4,19.8,34.3l0,0L43.4,127.8
						C43.4,127.8,43.4,127.8,43.4,127.8z"/>
				</g>
			</g>
			<g>
				<path d="M47.3,90l2.3,2.9H48l-1.9-2.5v2.5h-1.4v-5.7h1.4v2.5l1.9-2.5h1.6L47.3,90z"/>
				<path d="M54.3,87.5c0.4,0.2,0.8,0.6,1,1c0.3,0.4,0.4,0.9,0.4,1.5s-0.1,1.1-0.4,1.5c-0.3,0.4-0.6,0.8-1,1s-0.9,0.4-1.4,0.4
					c-0.5,0-1-0.1-1.4-0.4s-0.8-0.6-1-1C50.2,91.1,50,90.6,50,90s0.1-1.1,0.4-1.5c0.3-0.4,0.6-0.8,1-1s0.9-0.4,1.4-0.4
					C53.4,87.1,53.9,87.3,54.3,87.5z M51.8,88.9c-0.3,0.3-0.4,0.7-0.4,1.2c0,0.5,0.1,0.9,0.4,1.2c0.3,0.3,0.6,0.4,1.1,0.4
					c0.4,0,0.8-0.1,1.1-0.4c0.3-0.3,0.4-0.7,0.4-1.2s-0.1-0.9-0.4-1.2c-0.3-0.3-0.6-0.4-1.1-0.4C52.4,88.4,52.1,88.6,51.8,88.9z"/>
				<path d="M62.9,87.3v5.6h-1.4v-3.5l-1.2,3.5h-1.2l-1.2-3.5v3.5h-1.4v-5.6h1.7l1.5,3.9l1.5-3.9H62.9z"/>
				<path d="M65.2,90.9v2h-1.4v-5.7H66c0.7,0,1.2,0.2,1.5,0.5c0.4,0.3,0.5,0.8,0.5,1.3c0,0.4-0.1,0.7-0.2,0.9
					c-0.2,0.3-0.4,0.5-0.7,0.6c-0.3,0.2-0.7,0.2-1.1,0.2H65.2z M66.7,89.1c0-0.5-0.3-0.7-0.8-0.7h-0.7v1.5h0.7
					C66.4,89.8,66.7,89.6,66.7,89.1z"/>
				<path d="M70.1,91.8H72v1h-3.2v-5.7h1.4V91.8z"/>
				<path d="M74,88.3v1.2h1.9v1H74v1.3h2.2v1.1h-3.5v-5.7h3.5v1.1H74z"/>
				<path d="M83.3,87.3v5.6h-1.4v-3.5l-1.2,3.5h-1.2l-1.2-3.5v3.5h-1.4v-5.6h1.7l1.5,3.9l1.5-3.9H83.3z"/>
				<path d="M85.6,88.3v1.2h1.9v1h-1.9v1.3h2.2v1.1h-3.5v-5.7h3.5v1.1H85.6z"/>
				<path d="M93.5,92.9h-1.4l-2.3-3.5v3.5h-1.4v-5.7h1.4l2.3,3.5v-3.5h1.4V92.9z"/>
				<path d="M98.5,87.2v1.1H97v4.6h-1.4v-4.6h-1.5v-1.1H98.5z"/>
				<path d="M102.6,91.9h-2.1l-0.4,1h-1.4l2.1-5.6h1.6l2.1,5.6H103L102.6,91.9z M102.7,86.1l-1.9,0.8V86l1.9-0.9V86.1z M102.3,90.8
					l-0.7-2.1l-0.7,2.1H102.3z"/>
				<path d="M107.8,92.9l-1.2-2.1h-0.3v2.1h-1.4v-5.7h2.3c0.4,0,0.8,0.1,1.1,0.2c0.3,0.2,0.5,0.4,0.7,0.6c0.2,0.3,0.2,0.6,0.2,0.9
					c0,0.4-0.1,0.8-0.3,1c-0.2,0.3-0.6,0.5-1,0.6l1.3,2.2H107.8z M106.3,89.8h0.8c0.3,0,0.5-0.1,0.6-0.2s0.2-0.3,0.2-0.5
					c0-0.2-0.1-0.4-0.2-0.5c-0.1-0.1-0.3-0.2-0.6-0.2h-0.8V89.8z"/>
				<path d="M115.1,92.9h-1.4l-2.3-3.5v3.5H110v-5.7h1.4l2.3,3.5v-3.5h1.4V92.9z"/>
				<path d="M117.8,86.1l-1.9,0.8V86l1.9-0.9V86.1z M117.4,87.2v5.7H116v-5.7H117.4z"/>
			</g>
			<g>
				<g>
					<polygon points="1,79.5 19.2,90 1,100.5 					"/>
					<path class="st23" d="M2,81.2l7.6,4.4l7.6,4.4l-7.6,4.4L2,98.8V90V81.2 M0,77.8v3.5V90v8.8v3.5l3-1.7l7.6-4.4l7.6-4.4l3-1.7
						l-3-1.7l-7.6-4.4L3,79.5L0,77.8L0,77.8z"/>
				</g>
				<g>
					<polygon points="143.1,90 161.3,79.5 161.3,100.5 					"/>
					<path class="st23" d="M160.3,81.2V90l0,8.8l-7.6-4.4l-7.6-4.4l7.6-4.4L160.3,81.2 M162.3,77.8l-3,1.7l-7.6,4.4l-7.6,4.4l-3,1.7
						l3,1.7l7.6,4.4l7.6,4.4l3,1.7v-3.5l0-8.8v-8.8V77.8L162.3,77.8z"/>
				</g>
			</g>
		</g>
		<g>
			<g>
				<g>
					<path class="st0" d="M711.3,52.2C711.3,52.2,711.3,52.2,711.3,52.2l16.3-16.3v0c-9.9-9.9-21.7-16.5-34.3-19.8l-6,22.3
						C696.1,40.7,704.4,45.3,711.3,52.2z"/>
				</g>
				<g>
					<path class="st1" d="M659.6,141.7l-6,22.3c13,3.5,26.7,3.5,39.6,0l-6-22.3C678.3,144.1,668.7,144.1,659.6,141.7z"/>
				</g>
				<g>
					<path class="st2" d="M687.3,141.7l6,22.3c12.6-3.4,24.4-10,34.3-19.8l-16.3-16.3C704.4,134.7,696.1,139.3,687.3,141.7z"/>
				</g>
				<g>
					<path class="st3" d="M725.1,103.8l22.3,6c3.5-13,3.5-26.7,0-39.6l-22.3,6C727.5,85.2,727.5,94.8,725.1,103.8z"/>
				</g>
				<g>
					<path class="st4" d="M711.3,52.2c6.9,6.9,11.5,15.2,13.8,24l22.3-6c-3.4-12.6-10-24.4-19.8-34.3L711.3,52.2z"/>
				</g>
				<g>
					<path class="st5" d="M711.3,127.8l16.3,16.3c9.9-9.9,16.5-21.7,19.8-34.3l-22.3-6C722.8,112.6,718.2,121,711.3,127.8z"/>
				</g>
				<g>
					<path class="st6" d="M659.6,38.3l-6-22.3c-12.6,3.4-24.4,10-34.3,19.8l16.3,16.3C642.5,45.3,650.8,40.7,659.6,38.3z"/>
				</g>
				<g>
					<path class="st7" d="M687.3,38.3l6-22.3c-13-3.5-26.7-3.5-39.6,0l6,22.3C668.7,35.9,678.3,35.9,687.3,38.3z"/>
				</g>
				<g>
					<path class="st8" d="M635.6,52.2l-16.3-16.3c-9.9,9.9-16.5,21.7-19.8,34.3l22.3,6C624.2,67.4,628.8,59,635.6,52.2z"/>
				</g>
				<g>
					<path class="st9" d="M635.6,127.8l-16.3,16.3c9.9,9.9,21.7,16.5,34.3,19.8l6-22.3C650.8,139.3,642.5,134.7,635.6,127.8z"/>
				</g>
				<g>
					<path class="st10" d="M621.8,76.2l-22.3-6c-3.5,13-3.5,26.7,0,39.6l22.3-6C619.4,94.8,619.4,85.2,621.8,76.2z"/>
				</g>
				<g>
					<path class="st11" d="M635.6,127.8c-6.9-6.9-11.5-15.2-13.8-24l-22.3,6c3.4,12.6,10,24.4,19.8,34.3v0L635.6,127.8
						C635.6,127.8,635.6,127.8,635.6,127.8z"/>
				</g>
			</g>
			<g>
				<g>
					<polygon points="624.2,154.2 642.4,143.7 642.4,164.7 					"/>
					<path class="st23" d="M641.4,145.4v8.8v8.8l-7.6-4.4l-7.6-4.4l7.6-4.4L641.4,145.4 M643.4,141.9l-3,1.7l-7.6,4.4l-7.6,4.4
						l-3,1.7l3,1.7l7.6,4.4l7.6,4.4l3,1.7v-3.5v-8.8v-8.8V141.9L643.4,141.9z"/>
				</g>
				<g>
					<polygon points="704.3,15.3 722.5,25.8 704.3,36.3 					"/>
					<path class="st23" d="M705.3,17.1l7.6,4.4l7.6,4.4l-7.6,4.4l-7.6,4.4v-8.8L705.3,17.1 M703.3,13.6v3.5l0,8.8v8.8v3.5l3-1.7
						l7.6-4.4l7.6-4.4l3-1.7l-3-1.7l-7.6-4.4l-7.6-4.4L703.3,13.6L703.3,13.6z"/>
				</g>
			</g>
			<g>
				<g>
					<polygon points="704.3,143.7 722.5,154.2 704.3,164.7 					"/>
					<path class="st23" d="M705.3,145.4l7.6,4.4l7.6,4.4l-7.6,4.4l-7.6,4.4v-8.8V145.4 M703.3,141.9v3.5v8.8v8.8v3.5l3-1.7l7.6-4.4
						l7.6-4.4l3-1.7l-3-1.7l-7.6-4.4l-7.6-4.4L703.3,141.9L703.3,141.9z"/>
				</g>
				<g>
					<polygon points="624.2,25.8 642.4,15.3 642.4,36.3 					"/>
					<path class="st23" d="M641.4,17.1v8.8v8.8l-7.6-4.4l-7.6-4.4l7.6-4.4L641.4,17.1 M643.4,13.6l-3,1.7l-7.6,4.4l-7.6,4.4l-3,1.7
						l3,1.7l7.6,4.4l7.6,4.4l3,1.7v-3.5v-8.8v-8.8V13.6L643.4,13.6z"/>
				</g>
			</g>
			<g>
				<path d="M652.9,87.2v1.1h-1.5v4.6H650v-4.6h-1.5v-1.1H652.9z"/>
				<path d="M654.9,88.3v1.2h1.9v1h-1.9v1.3h2.2v1.1h-3.5v-5.7h3.5v1.1H654.9z"/>
				<path d="M661.9,87.2v1.1h-1.5v4.6H659v-4.6h-1.5v-1.1H661.9z"/>
				<path d="M665.4,92.9l-1.2-2.1h-0.3v2.1h-1.4v-5.7h2.3c0.4,0,0.8,0.1,1.1,0.2c0.3,0.2,0.5,0.4,0.7,0.6s0.2,0.6,0.2,0.9
					c0,0.4-0.1,0.8-0.3,1c-0.2,0.3-0.6,0.5-1,0.6l1.3,2.2H665.4z M663.8,89.8h0.8c0.3,0,0.5-0.1,0.6-0.2s0.2-0.3,0.2-0.5
					c0-0.2-0.1-0.4-0.2-0.5c-0.1-0.1-0.3-0.2-0.6-0.2h-0.8V89.8z"/>
				<path d="M671,91.9h-2.1l-0.4,1h-1.4l2.1-5.6h1.6l2.1,5.6h-1.5L671,91.9z M670.7,90.8l-0.7-2.1l-0.7,2.1H670.7z"/>
				<path d="M678.1,91.5c-0.2,0.4-0.6,0.8-1,1c-0.4,0.2-1,0.4-1.6,0.4h-2.1v-5.7h2.1c0.6,0,1.1,0.1,1.6,0.4c0.4,0.2,0.8,0.6,1,1
					s0.4,0.9,0.4,1.5S678.3,91.1,678.1,91.5z M676.6,91.2c0.3-0.3,0.4-0.7,0.4-1.2s-0.1-0.9-0.4-1.2c-0.3-0.3-0.7-0.4-1.2-0.4h-0.6
					v3.2h0.6C675.9,91.7,676.3,91.5,676.6,91.2z"/>
				<path d="M680.6,87.2v5.7h-1.4v-5.7H680.6z"/>
				<path d="M685.9,87.7c0.5,0.4,0.8,0.9,0.9,1.5h-1.4c-0.1-0.3-0.3-0.5-0.5-0.6c-0.2-0.1-0.5-0.2-0.8-0.2c-0.4,0-0.7,0.1-1,0.4
					s-0.4,0.7-0.4,1.2c0,0.5,0.1,0.9,0.4,1.2c0.2,0.3,0.6,0.4,1,0.4c0.3,0,0.6-0.1,0.8-0.2c0.2-0.1,0.4-0.4,0.5-0.6h1.4
					c-0.1,0.6-0.4,1.2-0.9,1.5c-0.5,0.4-1.1,0.6-1.8,0.6c-0.5,0-1-0.1-1.4-0.4c-0.4-0.2-0.7-0.6-1-1s-0.3-0.9-0.3-1.5
					s0.1-1.1,0.3-1.5s0.5-0.8,1-1c0.4-0.2,0.9-0.4,1.4-0.4C684.9,87.2,685.5,87.4,685.9,87.7z"/>
				<path d="M690.3,90l2.3,2.9h-1.7l-1.9-2.5v2.5h-1.4v-5.7h1.4v2.5l1.9-2.5h1.6L690.3,90z"/>
				<path d="M696.6,91.9h-2.1l-0.4,1h-1.4l2.1-5.6h1.6l2.1,5.6H697L696.6,91.9z M696.7,86.1l-1.9,0.8V86l1.9-0.9V86.1z M696.3,90.8
					l-0.7-2.1l-0.7,2.1H696.3z"/>
			</g>
		</g>
		<g>
			<g>
				<g>
					<path class="st0" d="M318.2,53.5C318.2,53.5,318.2,53.5,318.2,53.5l16.3-16.3l0,0c-9.9-9.9-21.7-16.5-34.3-19.8l-6,22.3
						C303,42,311.3,46.6,318.2,53.5z"/>
				</g>
				<g>
					<path class="st1" d="M266.5,143l-6,22.3c13,3.5,26.7,3.5,39.6,0l-6-22.3C285.1,145.4,275.6,145.4,266.5,143z"/>
				</g>
				<g>
					<path class="st2" d="M294.2,143l6,22.3c12.6-3.4,24.4-10,34.3-19.8l-16.3-16.3C311.3,136,303,140.6,294.2,143z"/>
				</g>
				<g>
					<path class="st3" d="M332,105.2l22.3,6c3.5-13,3.5-26.7,0-39.6l-22.3,6C334.4,86.5,334.4,96.1,332,105.2z"/>
				</g>
				<g>
					<path class="st4" d="M318.2,53.5c6.9,6.9,11.5,15.2,13.8,24l22.3-6c-3.4-12.6-10-24.4-19.8-34.3L318.2,53.5z"/>
				</g>
				<g>
					<path class="st5" d="M318.2,129.1l16.3,16.3c9.9-9.9,16.5-21.7,19.8-34.3l-22.3-6C329.7,113.9,325.1,122.3,318.2,129.1z"/>
				</g>
				<g>
					<path class="st6" d="M266.5,39.6l-6-22.3c-12.6,3.4-24.4,10-34.3,19.8l16.3,16.3C249.4,46.6,257.7,42,266.5,39.6z"/>
				</g>
				<g>
					<path class="st7" d="M294.2,39.6l6-22.3c-13-3.5-26.7-3.5-39.6,0l6,22.3C275.6,37.2,285.1,37.2,294.2,39.6z"/>
				</g>
				<g>
					<path class="st8" d="M242.5,53.5l-16.3-16.3c-9.9,9.9-16.5,21.7-19.8,34.3l22.3,6C231,68.7,235.6,60.4,242.5,53.5z"/>
				</g>
				<g>
					<path class="st9" d="M242.5,129.1l-16.3,16.3c9.9,9.9,21.7,16.5,34.3,19.8l6-22.3C257.7,140.6,249.4,136,242.5,129.1z"/>
				</g>
				<g>
					<path class="st10" d="M228.7,77.5l-22.3-6c-3.5,13-3.5,26.7,0,39.6l22.3-6C226.3,96.1,226.3,86.5,228.7,77.5z"/>
				</g>
				<g>
					<path class="st11" d="M242.5,129.1c-6.9-6.9-11.5-15.2-13.8-24l-22.3,6c3.4,12.6,10,24.4,19.8,34.3l0,0L242.5,129.1
						C242.5,129.1,242.5,129.1,242.5,129.1z"/>
				</g>
			</g>
			<g>
				<polygon points="269.7,11.2 290.7,11.2 280.2,29.3 				"/>
				<path class="st23" d="M289,12.2l-4.4,7.6l-4.4,7.6l-4.4-7.6l-4.4-7.6h8.8H289 M292.4,10.2H289h-8.8h-8.8H268l1.7,3l4.4,7.6
					l4.4,7.6l1.7,3l1.7-3l4.4-7.6l4.4-7.6L292.4,10.2L292.4,10.2z"/>
			</g>
			<g>
				<polygon points="231.1,27.1 249.2,16.7 249.2,37.6 				"/>
				<path class="st23" d="M248.2,18.4v8.8v8.8l-7.6-4.4l-7.6-4.4l7.6-4.4L248.2,18.4 M250.2,14.9l-3,1.7l-7.6,4.4l-7.6,4.4l-3,1.7
					l3,1.7l7.6,4.4l7.6,4.4l3,1.7v-3.5v-8.8v-8.8V14.9L250.2,14.9z"/>
			</g>
			<g>
				<polygon points="205.6,60.3 216.1,42.2 226.5,60.3 				"/>
				<path class="st23" d="M216.1,44.2l4.4,7.6l4.4,7.6h-8.8h-8.8l4.4-7.6L216.1,44.2 M216.1,40.2l-1.7,3l-4.4,7.6l-4.4,7.6l-1.7,3
					h3.5h8.8h8.8h3.5l-1.7-3l-4.4-7.6l-4.4-7.6L216.1,40.2L216.1,40.2z"/>
			</g>
			<g>
				<path d="M258.4,93.2h-2.1l-0.4,1h-1.4l2.1-5.6h1.6l2.1,5.6h-1.5L258.4,93.2z M258,92.1l-0.7-2.1l-0.7,2.1H258z"/>
				<path d="M265.7,94.2h-1.4l-2.3-3.5v3.5h-1.4v-5.7h1.4l2.3,3.5v-3.5h1.4V94.2z"/>
				<path d="M270.2,93.2h-2.1l-0.4,1h-1.4l2.1-5.6h1.6l2.1,5.6h-1.5L270.2,93.2z M269.8,92.1l-0.7-2.1l-0.7,2.1H269.8z"/>
				<path d="M273.9,93.2h1.8v1h-3.2v-5.7h1.4V93.2z"/>
				<path d="M280.5,88.8c0.4,0.2,0.8,0.6,1,1c0.3,0.4,0.4,0.9,0.4,1.5s-0.1,1.1-0.4,1.5c-0.3,0.4-0.6,0.8-1,1s-0.9,0.4-1.4,0.4
					c-0.5,0-1-0.1-1.4-0.4s-0.8-0.6-1-1c-0.3-0.4-0.4-0.9-0.4-1.5s0.1-1.1,0.4-1.5c0.3-0.4,0.6-0.8,1-1s0.9-0.4,1.4-0.4
					C279.6,88.5,280.1,88.6,280.5,88.8z M278,90.2c-0.3,0.3-0.4,0.7-0.4,1.2c0,0.5,0.1,0.9,0.4,1.2c0.3,0.3,0.6,0.4,1.1,0.4
					c0.4,0,0.8-0.1,1.1-0.4c0.3-0.3,0.4-0.7,0.4-1.2s-0.1-0.9-0.4-1.2c-0.3-0.3-0.6-0.4-1.1-0.4C278.6,89.7,278.2,89.9,278,90.2z"/>
				<path d="M287.1,89c0.5,0.3,0.7,0.8,0.9,1.4h-1.4c-0.1-0.2-0.2-0.4-0.4-0.5c-0.2-0.1-0.4-0.2-0.7-0.2c-0.4,0-0.8,0.1-1,0.4
					c-0.3,0.3-0.4,0.7-0.4,1.2c0,0.5,0.1,1,0.4,1.2s0.7,0.4,1.2,0.4c0.3,0,0.6-0.1,0.9-0.3c0.2-0.2,0.4-0.4,0.5-0.8h-1.7v-1h2.9v1.4
					c-0.1,0.3-0.3,0.6-0.5,0.9c-0.2,0.3-0.5,0.5-0.9,0.7c-0.4,0.2-0.8,0.3-1.3,0.3c-0.6,0-1.1-0.1-1.5-0.4c-0.4-0.2-0.8-0.6-1-1
					s-0.3-0.9-0.3-1.5s0.1-1.1,0.3-1.5s0.6-0.8,1-1c0.4-0.2,0.9-0.4,1.5-0.4C286,88.5,286.6,88.7,287.1,89z"/>
				<path d="M292.9,88.8c0.4,0.2,0.8,0.6,1,1c0.3,0.4,0.4,0.9,0.4,1.5s-0.1,1.1-0.4,1.5c-0.3,0.4-0.6,0.8-1,1s-0.9,0.4-1.4,0.4
					c-0.5,0-1-0.1-1.4-0.4s-0.8-0.6-1-1c-0.3-0.4-0.4-0.9-0.4-1.5s0.1-1.1,0.4-1.5c0.3-0.4,0.6-0.8,1-1s0.9-0.4,1.4-0.4
					C292,88.5,292.5,88.6,292.9,88.8z M290.4,90.2c-0.3,0.3-0.4,0.7-0.4,1.2c0,0.5,0.1,0.9,0.4,1.2c0.3,0.3,0.6,0.4,1.1,0.4
					c0.4,0,0.8-0.1,1.1-0.4c0.3-0.3,0.4-0.7,0.4-1.2s-0.1-0.9-0.4-1.2c-0.3-0.3-0.6-0.4-1.1-0.4C291,89.7,290.6,89.9,290.4,90.2z"/>
				<path d="M296.1,88.5l1.4,4.3l1.4-4.3h1.5l-2,5.7h-1.8l-2-5.7H296.1z"/>
				<path d="M304.4,93.2h-2.1l-0.4,1h-1.4l2.1-5.6h1.6l2.1,5.6h-1.5L304.4,93.2z M304.5,87.4l-1.9,0.8v-0.9l1.9-0.9V87.4z M304,92.1
					l-0.7-2.1l-0.7,2.1H304z"/>
			</g>
		</g>
		<g>
			<g>
				<g>
					<path class="st0" d="M514.7,53.5C514.7,53.5,514.7,53.5,514.7,53.5L531,37.2l0,0c-9.9-9.9-21.7-16.5-34.3-19.8l-6,22.3
						C499.5,42,507.9,46.6,514.7,53.5z"/>
				</g>
				<g>
					<path class="st1" d="M463.1,143l-6,22.3c13,3.5,26.7,3.5,39.6,0l-6-22.3C481.7,145.4,472.1,145.4,463.1,143z"/>
				</g>
				<g>
					<path class="st2" d="M490.7,143l6,22.3c12.6-3.4,24.4-10,34.3-19.8l-16.3-16.3C507.9,136,499.5,140.6,490.7,143z"/>
				</g>
				<g>
					<path class="st3" d="M528.6,105.2l22.3,6c3.5-13,3.5-26.7,0-39.6l-22.3,6C531,86.5,531,96.1,528.6,105.2z"/>
				</g>
				<g>
					<path class="st4" d="M514.7,53.5c6.9,6.9,11.5,15.2,13.8,24l22.3-6c-3.4-12.6-10-24.4-19.8-34.3L514.7,53.5z"/>
				</g>
				<g>
					<path class="st5" d="M514.7,129.1l16.3,16.3c9.9-9.9,16.5-21.7,19.8-34.3l-22.3-6C526.2,113.9,521.6,122.3,514.7,129.1z"/>
				</g>
				<g>
					<path class="st6" d="M463.1,39.6l-6-22.3c-12.6,3.4-24.4,10-34.3,19.8l16.3,16.3C446,46.6,454.3,42,463.1,39.6z"/>
				</g>
				<g>
					<path class="st7" d="M490.7,39.6l6-22.3c-13-3.5-26.7-3.5-39.6,0l6,22.3C472.1,37.2,481.7,37.2,490.7,39.6z"/>
				</g>
				<g>
					<path class="st8" d="M439.1,53.5l-16.3-16.3c-9.9,9.9-16.5,21.7-19.8,34.3l22.3,6C427.6,68.7,432.2,60.4,439.1,53.5z"/>
				</g>
				<g>
					<path class="st9" d="M439.1,129.1l-16.3,16.3c9.9,9.9,21.7,16.5,34.3,19.8l6-22.3C454.3,140.6,446,136,439.1,129.1z"/>
				</g>
				<g>
					<path class="st10" d="M425.2,77.5l-22.3-6c-3.5,13-3.5,26.7,0,39.6l22.3-6C422.8,96.1,422.8,86.5,425.2,77.5z"/>
				</g>
				<g>
					<path class="st11" d="M439.1,129.1c-6.9-6.9-11.5-15.2-13.8-24l-22.3,6c3.4,12.6,10,24.4,19.8,34.3l0,0L439.1,129.1
						C439.1,129.1,439.1,129.1,439.1,129.1z"/>
				</g>
			</g>
			<g>
				<polygon points="402.1,122.3 423.1,122.3 412.6,140.5 				"/>
				<path class="st23" d="M421.4,123.3l-4.4,7.6l-4.4,7.6l-4.4-7.6l-4.4-7.6h8.8H421.4 M424.8,121.3h-3.5h-8.8h-8.8h-3.5l1.7,3
					l4.4,7.6l4.4,7.6l1.7,3l1.7-3l4.4-7.6l4.4-7.6L424.8,121.3L424.8,121.3z"/>
			</g>
			<g>
				<polygon points="466.3,11.2 487.3,11.2 476.8,29.3 				"/>
				<path class="st23" d="M485.5,12.2l-4.4,7.6l-4.4,7.6l-4.4-7.6l-4.4-7.6h8.8H485.5 M489,10.2h-3.5h-8.8H468h-3.5l1.7,3l4.4,7.6
					l4.4,7.6l1.7,3l1.7-3l4.4-7.6l4.4-7.6L489,10.2L489,10.2z"/>
			</g>
			<g>
				<polygon points="530.5,122.3 551.4,122.3 541,140.5 				"/>
				<path class="st23" d="M549.7,123.3l-4.4,7.6l-4.4,7.6l-4.4-7.6l-4.4-7.6h8.8H549.7 M553.2,121.3h-3.5H541h-8.8h-3.5l1.7,3
					l4.4,7.6l4.4,7.6l1.7,3l1.7-3l4.4-7.6l4.4-7.6L553.2,121.3L553.2,121.3z"/>
			</g>
			<g>
				<path d="M459.7,88.5v1.1h-1.5v4.6h-1.4v-4.6h-1.5v-1.1H459.7z"/>
				<path d="M463.2,94.2l-1.2-2.1h-0.3v2.1h-1.4v-5.7h2.3c0.4,0,0.8,0.1,1.1,0.2c0.3,0.2,0.5,0.4,0.7,0.6c0.2,0.3,0.2,0.6,0.2,0.9
					c0,0.4-0.1,0.8-0.3,1c-0.2,0.3-0.6,0.5-1,0.6l1.3,2.2H463.2z M461.6,91.1h0.8c0.3,0,0.5-0.1,0.6-0.2s0.2-0.3,0.2-0.5
					c0-0.2-0.1-0.4-0.2-0.5c-0.1-0.1-0.3-0.2-0.6-0.2h-0.8V91.1z"/>
				<path d="M466.7,88.5v5.7h-1.4v-5.7H466.7z"/>
				<path d="M471.2,93.2H469l-0.4,1h-1.4l2.1-5.6h1.6l2.1,5.6h-1.5L471.2,93.2z M470.8,92.1l-0.7-2.1l-0.7,2.1H470.8z"/>
				<path d="M478.2,92.8c-0.2,0.4-0.6,0.8-1,1c-0.4,0.2-1,0.4-1.6,0.4h-2.1v-5.7h2.1c0.6,0,1.1,0.1,1.6,0.4c0.4,0.2,0.8,0.6,1,1
					s0.4,0.9,0.4,1.5S478.5,92.4,478.2,92.8z M476.8,92.6c0.3-0.3,0.4-0.7,0.4-1.2s-0.1-0.9-0.4-1.2c-0.3-0.3-0.7-0.4-1.2-0.4h-0.6
					V93h0.6C476,93,476.5,92.8,476.8,92.6z"/>
				<path d="M480.7,88.5v5.7h-1.4v-5.7H480.7z"/>
				<path d="M486,89.1c0.5,0.4,0.8,0.9,0.9,1.5h-1.4c-0.1-0.3-0.3-0.5-0.5-0.6c-0.2-0.1-0.5-0.2-0.8-0.2c-0.4,0-0.7,0.1-1,0.4
					s-0.4,0.7-0.4,1.2c0,0.5,0.1,0.9,0.4,1.2c0.2,0.3,0.6,0.4,1,0.4c0.3,0,0.6-0.1,0.8-0.2c0.2-0.1,0.4-0.4,0.5-0.6h1.4
					c-0.1,0.6-0.4,1.2-0.9,1.5c-0.5,0.4-1.1,0.6-1.8,0.6c-0.5,0-1-0.1-1.4-0.4c-0.4-0.2-0.7-0.6-1-1s-0.3-0.9-0.3-1.5
					s0.1-1.1,0.3-1.5s0.5-0.8,1-1c0.4-0.2,0.9-0.4,1.4-0.4C485,88.5,485.6,88.7,486,89.1z"/>
				<path d="M490.4,91.3l2.3,2.9H491l-1.9-2.5v2.5h-1.4v-5.7h1.4V91l1.9-2.5h1.6L490.4,91.3z"/>
				<path d="M496.8,93.2h-2.1l-0.4,1h-1.4l2.1-5.6h1.6l2.1,5.6h-1.5L496.8,93.2z M496.8,87.4l-1.9,0.8v-0.9l1.9-0.9V87.4z
					 M496.4,92.1l-0.7-2.1l-0.7,2.1H496.4z"/>
			</g>
		</g>
	</g>
</g>
</svg>
