<?xml version="1.0" encoding="utf-8"?>
<!-- Generator: Adobe Illustrator 25.0.1, SVG Export Plug-In . SVG Version: 6.00 Build 0)  -->
<svg version="1.1" id="Vrstva_1" xmlns="http://www.w3.org/2000/svg" xmlns:xlink="http://www.w3.org/1999/xlink" x="0px" y="0px"
	 viewBox="0 0 512 512" style="enable-background:new 0 0 512 512;" xml:space="preserve">
<style type="text/css">
	.st0{fill:#264DE4;}
	.st1{fill:#2965F1;}
	.st2{fill:#EBEBEB;}
	.st3{fill:#FFFFFF;}
</style>
<g>
	<polygon id="polygon2989" class="st0" points="255.5,511.9 71.4,460.9 30.3,0.1 481.7,0.1 440.6,460.9 	"/>
	<polygon id="polygon2991" class="st1" points="405.4,431.6 440.6,37.5 256,37.5 256,472.7 	"/>
	<polygon id="polygon2993" class="st2" points="124.6,208.6 129.6,265 256,265 256,208.6 	"/>
	<polygon id="polygon2995" class="st2" points="114.3,94.4 119.2,150.8 256,150.8 256,94.4 256,94.4 	"/>
	<polygon id="polygon2997" class="st2" points="256,355.3 255.5,355.3 192.8,338.6 188.7,293.5 158,293.5 131.9,293.5 140,381.9 
		255.5,414.4 256,414 	"/>
	<polygon id="polygon3005" class="st3" points="387.4,208.6 397.3,94.4 256,94.4 256,150.8 335.4,150.8 330.5,208.6 256,208.6 
		256,265 325.5,265 318.7,338.6 256,355.3 256,414.4 371.6,381.9 372.5,372.5 386,224 	"/>
</g>
</svg>
