<?xml version="1.0" encoding="utf-8"?>
<!-- Generator: Adobe Illustrator 25.0.1, SVG Export Plug-In . SVG Version: 6.00 Build 0)  -->
<svg version="1.1" id="Vrstva_1" xmlns="http://www.w3.org/2000/svg" xmlns:xlink="http://www.w3.org/1999/xlink" x="0px" y="0px"
	 viewBox="0 0 755 264.7" style="enable-background:new 0 0 755 264.7;" xml:space="preserve">
<style type="text/css">
	.st0{fill:none;stroke:#8E8E8E;stroke-width:2;stroke-miterlimit:10;}
	.st1{fill:#8E8E8E;}
	.st2{fill:none;stroke:#8E8E8E;stroke-width:2;stroke-miterlimit:10;stroke-dasharray:4.016,4.016;}
	.st3{fill:#006EB7;}
	.st4{fill:#00DBAB;}
</style>
<g>
	<line class="st0" x1="0" y1="216.7" x2="1.9" y2="216.7"/>
	<g>
		<path class="st1" d="M748.3,217.3h-3.8v-1.1h3.8V217.3z M740.8,217.3H737v-1.1h3.8V217.3z M733.3,217.3h-3.8v-1.1h3.8V217.3z
			 M725.7,217.3H722v-1.1h3.8V217.3z M718.2,217.3h-3.8v-1.1h3.8V217.3z M710.6,217.3h-3.8v-1.1h3.8V217.3z M703.1,217.3h-3.8v-1.1
			h3.8V217.3z M695.6,217.3h-3.8v-1.1h3.8V217.3z M688,217.3h-3.8v-1.1h3.8V217.3z M680.5,217.3h-3.8v-1.1h3.8V217.3z M672.9,217.3
			h-3.8v-1.1h3.8V217.3z M665.4,217.3h-3.8v-1.1h3.8V217.3z M657.9,217.3h-3.8v-1.1h3.8V217.3z M650.3,217.3h-3.8v-1.1h3.8V217.3z
			 M642.8,217.3H639v-1.1h3.8V217.3z M635.2,217.3h-3.8v-1.1h3.8V217.3z M627.7,217.3h-3.8v-1.1h3.8V217.3z M620.2,217.3h-3.8v-1.1
			h3.8V217.3z M612.6,217.3h-3.8v-1.1h3.8V217.3z M605.1,217.3h-3.8v-1.1h3.8V217.3z M597.5,217.3h-3.8v-1.1h3.8V217.3z M590,217.3
			h-3.8v-1.1h3.8V217.3z M582.5,217.3h-3.8v-1.1h3.8V217.3z M574.9,217.3h-3.8v-1.1h3.8V217.3z M567.4,217.3h-3.8v-1.1h3.8V217.3z
			 M559.8,217.3h-3.8v-1.1h3.8V217.3z M552.3,217.3h-3.8v-1.1h3.8V217.3z M544.8,217.3H541v-1.1h3.8V217.3z M537.2,217.3h-3.8v-1.1
			h3.8V217.3z M529.7,217.3h-3.8v-1.1h3.8V217.3z M522.1,217.3h-3.8v-1.1h3.8V217.3z M514.6,217.3h-3.8v-1.1h3.8V217.3z
			 M507.1,217.3h-3.8v-1.1h3.8V217.3z M499.5,217.3h-3.8v-1.1h3.8V217.3z M492,217.3h-3.8v-1.1h3.8V217.3z M484.4,217.3h-3.8v-1.1
			h3.8V217.3z M476.9,217.3h-3.8v-1.1h3.8V217.3z M469.4,217.3h-3.8v-1.1h3.8V217.3z M461.8,217.3h-3.8v-1.1h3.8V217.3z
			 M454.3,217.3h-3.8v-1.1h3.8V217.3z M446.7,217.3H443v-1.1h3.8V217.3z M439.2,217.3h-3.8v-1.1h3.8V217.3z M431.7,217.3h-3.8v-1.1
			h3.8V217.3z M424.1,217.3h-3.8v-1.1h3.8V217.3z M416.6,217.3h-3.8v-1.1h3.8V217.3z M409,217.3h-3.8v-1.1h3.8V217.3z M401.5,217.3
			h-3.8v-1.1h3.8V217.3z M394,217.3h-3.8v-1.1h3.8V217.3z M386.4,217.3h-3.8v-1.1h3.8V217.3z M378.9,217.3h-3.8v-1.1h3.8V217.3z
			 M371.3,217.3h-3.8v-1.1h3.8V217.3z M363.8,217.3H360v-1.1h3.8V217.3z M356.3,217.3h-3.8v-1.1h3.8V217.3z M348.7,217.3H345v-1.1
			h3.8V217.3z M341.2,217.3h-3.8v-1.1h3.8V217.3z M333.6,217.3h-3.8v-1.1h3.8V217.3z M326.1,217.3h-3.8v-1.1h3.8V217.3z
			 M318.6,217.3h-3.8v-1.1h3.8V217.3z M311,217.3h-3.8v-1.1h3.8V217.3z M303.5,217.3h-3.8v-1.1h3.8V217.3z M295.9,217.3h-3.8v-1.1
			h3.8V217.3z M288.4,217.3h-3.8v-1.1h3.8V217.3z M280.9,217.3h-3.8v-1.1h3.8V217.3z M273.3,217.3h-3.8v-1.1h3.8V217.3z
			 M265.8,217.3H262v-1.1h3.8V217.3z M258.2,217.3h-3.8v-1.1h3.8V217.3z M250.7,217.3h-3.8v-1.1h3.8V217.3z M243.2,217.3h-3.8v-1.1
			h3.8V217.3z M235.6,217.3h-3.8v-1.1h3.8V217.3z M228.1,217.3h-3.8v-1.1h3.8V217.3z M220.5,217.3h-3.8v-1.1h3.8V217.3z M213,217.3
			h-3.8v-1.1h3.8V217.3z M205.5,217.3h-3.8v-1.1h3.8V217.3z M197.9,217.3h-3.8v-1.1h3.8V217.3z M190.4,217.3h-3.8v-1.1h3.8V217.3z
			 M182.8,217.3h-3.8v-1.1h3.8V217.3z M175.3,217.3h-3.8v-1.1h3.8V217.3z M167.8,217.3H164v-1.1h3.8V217.3z M160.2,217.3h-3.8v-1.1
			h3.8V217.3z M152.7,217.3h-3.8v-1.1h3.8V217.3z M145.1,217.3h-3.8v-1.1h3.8V217.3z M137.6,217.3h-3.8v-1.1h3.8V217.3z
			 M130.1,217.3h-3.8v-1.1h3.8V217.3z M122.5,217.3h-3.8v-1.1h3.8V217.3z M115,217.3h-3.8v-1.1h3.8V217.3z M107.4,217.3h-3.8v-1.1
			h3.8V217.3z M99.9,217.3h-3.8v-1.1h3.8V217.3z M92.4,217.3h-3.8v-1.1h3.8V217.3z M84.8,217.3h-3.8v-1.1h3.8V217.3z M77.3,217.3
			h-3.8v-1.1h3.8V217.3z M69.7,217.3H66v-1.1h3.8V217.3z M62.2,217.3h-3.8v-1.1h3.8V217.3z M54.7,217.3h-3.8v-1.1h3.8V217.3z
			 M47.1,217.3h-3.8v-1.1h3.8V217.3z M39.6,217.3h-3.8v-1.1h3.8V217.3z M32,217.3h-3.8v-1.1H32V217.3z M24.5,217.3h-3.8v-1.1h3.8
			V217.3z M17,217.3h-3.8v-1.1H17V217.3z M9.4,217.3H5.7v-1.1h3.8V217.3z"/>
	</g>
	<line class="st0" x1="752.1" y1="216.7" x2="754" y2="216.7"/>
</g>
<g>
	<g>
		<line class="st0" x1="0" y1="4" x2="2" y2="4"/>
		<line class="st2" x1="6" y1="4" x2="751" y2="4"/>
		<line class="st0" x1="753" y1="4" x2="755" y2="4"/>
	</g>
</g>
<g>
	<path d="M89.2,246.1c-0.5-0.3-1-0.5-1.5-0.7c-0.5-0.2-1.1-0.2-1.7-0.2c-1.2,0-2.1,0.2-2.8,0.6c-0.3,0.2-0.5,0.3-0.5,0.5
		c0,0.2,0.2,0.4,0.6,0.7c0.3,0.2,1,0.3,2.1,0.5c2,0.3,3.4,0.5,4.2,0.8c1,0.4,1.8,0.9,2.4,1.6s0.8,1.5,0.8,2.3c0,1.1-0.5,2-1.4,2.7
		c-1.4,1-3.1,1.6-5.3,1.6c-0.9,0-1.7-0.1-2.4-0.2c-0.7-0.2-1.4-0.4-2-0.7c-0.1,0.1-0.3,0.2-0.5,0.3s-0.3,0.1-0.5,0.1
		c-0.5,0-0.8-0.2-1.1-0.5c-0.3-0.3-0.4-0.8-0.4-1.5v-1c0-0.7,0.1-1.2,0.4-1.5c0.3-0.3,0.6-0.5,1.1-0.5c0.4,0,0.7,0.1,0.9,0.3
		s0.4,0.5,0.6,1c0.5,0.4,1,0.7,1.7,0.9c0.6,0.2,1.4,0.3,2.2,0.3c1.4,0,2.4-0.2,3.2-0.6c0.4-0.2,0.5-0.4,0.5-0.7c0-0.4-0.3-0.7-0.8-1
		s-1.6-0.5-3.2-0.6c-2.4-0.3-4-0.7-4.8-1.5c-0.8-0.7-1.2-1.6-1.2-2.6c0-1.1,0.5-2,1.4-2.7c1.2-1,2.8-1.5,4.8-1.5
		c0.7,0,1.4,0.1,2,0.2c0.6,0.1,1.3,0.3,1.8,0.6c0.2-0.1,0.4-0.2,0.5-0.3s0.3-0.1,0.4-0.1c0.4,0,0.8,0.2,1,0.5
		c0.3,0.3,0.4,0.8,0.4,1.5v0.7c0,0.7-0.1,1.1-0.2,1.3c-0.3,0.4-0.7,0.7-1.3,0.7c-0.4,0-0.7-0.1-1-0.3S89.3,246.4,89.2,246.1z"/>
	<path d="M111.5,250.7H99.2c0.3,0.8,0.9,1.4,1.7,1.9s1.9,0.7,3.2,0.7c1.1,0,2.6-0.2,4.4-0.7c0.8-0.2,1.3-0.3,1.6-0.3
		c0.4,0,0.7,0.1,1,0.4s0.4,0.6,0.4,1.1c0,0.4-0.1,0.7-0.4,1c-0.4,0.4-1.3,0.7-2.9,1c-1.5,0.3-3,0.5-4.4,0.5c-2.4,0-4.3-0.7-5.8-2
		s-2.2-3-2.2-5c0-2.1,0.8-3.8,2.3-5.1s3.4-2,5.4-2c1.2,0,2.3,0.2,3.4,0.6s1.8,0.9,2.3,1.4c0.7,0.7,1.3,1.6,1.7,2.7
		c0.3,0.7,0.5,1.6,0.5,2.6V250.7z M108.2,247.7c-0.5-0.9-1.1-1.5-1.8-1.9c-0.7-0.4-1.6-0.6-2.7-0.6c-1,0-1.9,0.2-2.6,0.6
		c-0.7,0.4-1.3,1.1-1.8,1.9H108.2z"/>
	<path d="M121.4,242.6v1.9c1.3-0.9,2.3-1.5,3-1.8s1.4-0.5,2-0.5c1,0,1.9,0.4,2.8,1.1c0.6,0.5,0.9,1,0.9,1.5c0,0.4-0.1,0.8-0.4,1.1
		c-0.3,0.3-0.7,0.4-1.1,0.4c-0.4,0-0.8-0.2-1.2-0.6s-0.8-0.6-1.1-0.6c-0.4,0-1,0.3-1.9,0.8s-1.9,1.3-3.1,2.4v4.5h4.3
		c0.7,0,1.2,0.1,1.5,0.4c0.3,0.3,0.5,0.6,0.5,1.1c0,0.4-0.2,0.8-0.5,1.1c-0.3,0.3-0.8,0.4-1.5,0.4h-9.1c-0.7,0-1.2-0.1-1.5-0.4
		c-0.3-0.3-0.5-0.6-0.5-1.1c0-0.4,0.2-0.8,0.5-1.1c0.3-0.3,0.8-0.4,1.5-0.4h1.8v-7.3h-1.1c-0.7,0-1.2-0.1-1.5-0.4
		c-0.3-0.3-0.5-0.6-0.5-1.1c0-0.4,0.2-0.8,0.5-1.1c0.3-0.3,0.8-0.4,1.5-0.4H121.4z"/>
	<path d="M141.5,242.6v10.3h3.6c0.7,0,1.2,0.1,1.5,0.4c0.3,0.3,0.5,0.6,0.5,1.1c0,0.4-0.2,0.8-0.5,1.1c-0.3,0.3-0.8,0.4-1.5,0.4
		h-10.2c-0.7,0-1.2-0.1-1.5-0.4c-0.3-0.3-0.5-0.6-0.5-1.1c0-0.4,0.2-0.8,0.5-1.1c0.3-0.3,0.8-0.4,1.5-0.4h3.6v-7.3h-2.4
		c-0.7,0-1.2-0.1-1.5-0.4c-0.3-0.3-0.5-0.6-0.5-1.1c0-0.4,0.2-0.8,0.5-1.1c0.3-0.3,0.8-0.4,1.5-0.4H141.5z M141.1,236.9v3.2h-3.6
		v-3.2H141.1z"/>
	<path d="M158,245.6v7.3h4.3c0.7,0,1.2,0.1,1.5,0.4c0.3,0.3,0.5,0.6,0.5,1.1c0,0.4-0.2,0.8-0.5,1.1c-0.3,0.3-0.8,0.4-1.5,0.4h-9.1
		c-0.7,0-1.2-0.1-1.5-0.4c-0.3-0.3-0.5-0.6-0.5-1.1c0-0.4,0.2-0.8,0.5-1.1c0.3-0.3,0.8-0.4,1.5-0.4h1.8v-7.3h-1.4
		c-0.7,0-1.2-0.1-1.5-0.4c-0.3-0.3-0.5-0.6-0.5-1.1c0-0.4,0.2-0.8,0.5-1.1c0.3-0.3,0.8-0.4,1.5-0.4h1.4v-1.1c0-1.3,0.5-2.4,1.5-3.3
		c1-0.9,2.4-1.3,4.3-1.3c0.8,0,1.8,0.1,2.9,0.2s1.8,0.4,2.1,0.6s0.5,0.6,0.5,1.1c0,0.5-0.1,0.8-0.4,1.1s-0.6,0.4-1,0.4
		c-0.2,0-0.5,0-0.8-0.1c-1.2-0.2-2.3-0.4-3.3-0.4c-1,0-1.7,0.1-2.1,0.4s-0.6,0.7-0.6,1.1v1.1h4.6c0.7,0,1.2,0.1,1.5,0.4
		c0.3,0.3,0.5,0.6,0.5,1.1c0,0.4-0.2,0.8-0.5,1.1c-0.3,0.3-0.8,0.4-1.5,0.4H158z"/>
</g>
<g>
	<path d="M299.2,246.1c-0.5-0.3-1-0.5-1.5-0.7c-0.5-0.2-1.1-0.2-1.7-0.2c-1.2,0-2.1,0.2-2.8,0.6c-0.3,0.2-0.5,0.3-0.5,0.5
		c0,0.2,0.2,0.4,0.6,0.7c0.3,0.2,1,0.3,2.1,0.5c2,0.3,3.4,0.5,4.2,0.8c1,0.4,1.8,0.9,2.4,1.6s0.8,1.5,0.8,2.3c0,1.1-0.5,2-1.4,2.7
		c-1.4,1-3.1,1.6-5.3,1.6c-0.9,0-1.7-0.1-2.4-0.2c-0.7-0.2-1.4-0.4-2-0.7c-0.1,0.1-0.3,0.2-0.5,0.3s-0.3,0.1-0.5,0.1
		c-0.5,0-0.8-0.2-1.1-0.5c-0.3-0.3-0.4-0.8-0.4-1.5v-1c0-0.7,0.1-1.2,0.4-1.5c0.3-0.3,0.6-0.5,1.1-0.5c0.4,0,0.7,0.1,0.9,0.3
		s0.4,0.5,0.6,1c0.5,0.4,1,0.7,1.7,0.9c0.6,0.2,1.4,0.3,2.2,0.3c1.4,0,2.4-0.2,3.2-0.6c0.4-0.2,0.5-0.4,0.5-0.7c0-0.4-0.3-0.7-0.8-1
		s-1.6-0.5-3.2-0.6c-2.4-0.3-4-0.7-4.8-1.5c-0.8-0.7-1.2-1.6-1.2-2.6c0-1.1,0.5-2,1.4-2.7c1.2-1,2.8-1.5,4.8-1.5
		c0.7,0,1.4,0.1,2,0.2c0.6,0.1,1.3,0.3,1.8,0.6c0.2-0.1,0.4-0.2,0.5-0.3s0.3-0.1,0.4-0.1c0.4,0,0.8,0.2,1,0.5
		c0.3,0.3,0.4,0.8,0.4,1.5v0.7c0,0.7-0.1,1.1-0.2,1.3c-0.3,0.4-0.7,0.7-1.3,0.7c-0.4,0-0.7-0.1-1-0.3S299.3,246.4,299.2,246.1z"/>
	<path d="M316.7,255.9v-0.7c-0.8,0.4-1.6,0.7-2.5,0.9c-0.9,0.2-1.7,0.3-2.5,0.3c-1.6,0-2.9-0.4-3.9-1.3c-1-0.9-1.5-1.8-1.5-2.8
		c0-1.3,0.6-2.4,1.9-3.5c1.3-1.1,3.1-1.6,5.3-1.6c0.9,0,2,0.1,3.1,0.3v-0.7c0-0.4-0.2-0.8-0.6-1.1s-1.1-0.4-2.2-0.4
		c-0.9,0-2,0.2-3.5,0.5c-0.5,0.1-0.9,0.2-1.2,0.2c-0.4,0-0.7-0.1-1-0.4c-0.3-0.3-0.4-0.7-0.4-1.1c0-0.3,0-0.5,0.1-0.7
		s0.2-0.3,0.4-0.4s0.5-0.2,1.1-0.4c0.7-0.2,1.5-0.4,2.3-0.5c0.8-0.1,1.5-0.2,2.1-0.2c1.9,0,3.3,0.4,4.3,1.2c1,0.8,1.5,1.9,1.5,3.3
		v6.2h0.5c0.7,0,1.2,0.1,1.5,0.4c0.3,0.3,0.5,0.6,0.5,1.1c0,0.4-0.2,0.8-0.5,1.1c-0.3,0.3-0.8,0.4-1.5,0.4H316.7z M316.7,250.5
		c-1.2-0.2-2.3-0.4-3.3-0.4c-1.2,0-2.3,0.3-3.1,0.9c-0.5,0.4-0.8,0.8-0.8,1.2c0,0.3,0.1,0.5,0.4,0.7c0.5,0.3,1.2,0.5,2,0.5
		c0.7,0,1.5-0.1,2.5-0.4s1.7-0.7,2.4-1.2V250.5z"/>
	<path d="M328.9,242.6v1c0.5-0.5,1.1-0.8,1.8-1.1s1.4-0.4,2.1-0.4c1.8,0,3.2,0.6,4.2,1.7c0.8,0.9,1.2,2,1.2,3.5v5.6
		c0.6,0,1.1,0.1,1.4,0.4c0.3,0.3,0.5,0.6,0.5,1.1c0,0.4-0.2,0.8-0.5,1.1c-0.3,0.3-0.8,0.4-1.5,0.4h-2.7c-0.7,0-1.2-0.1-1.5-0.4
		c-0.3-0.3-0.5-0.6-0.5-1.1c0-0.4,0.2-0.8,0.5-1.1c0.3-0.3,0.8-0.4,1.4-0.4v-5.7c0-0.7-0.2-1.1-0.5-1.4c-0.5-0.4-1.1-0.6-2.1-0.6
		c-0.7,0-1.3,0.1-1.8,0.4c-0.5,0.3-1.2,0.8-2,1.7v5.6c0.8,0,1.3,0.1,1.5,0.2c0.5,0.3,0.7,0.7,0.7,1.3c0,0.4-0.2,0.8-0.5,1.1
		c-0.3,0.3-0.8,0.4-1.5,0.4h-3.4c-0.7,0-1.2-0.1-1.5-0.4c-0.3-0.3-0.5-0.6-0.5-1.1c0-0.5,0.2-1,0.7-1.3c0.2-0.1,0.7-0.2,1.5-0.2
		v-7.3c-0.6,0-1.1-0.1-1.4-0.4s-0.5-0.6-0.5-1.1s0.2-0.8,0.5-1.1c0.3-0.3,0.8-0.4,1.5-0.4H328.9z"/>
	<path d="M353.2,246.1c-0.5-0.3-1-0.5-1.5-0.7c-0.5-0.2-1.1-0.2-1.7-0.2c-1.2,0-2.1,0.2-2.8,0.6c-0.3,0.2-0.5,0.3-0.5,0.5
		c0,0.2,0.2,0.4,0.6,0.7c0.3,0.2,1,0.3,2.1,0.5c2,0.3,3.4,0.5,4.2,0.8c1,0.4,1.8,0.9,2.4,1.6s0.8,1.5,0.8,2.3c0,1.1-0.5,2-1.4,2.7
		c-1.4,1-3.1,1.6-5.3,1.6c-0.9,0-1.7-0.1-2.4-0.2c-0.7-0.2-1.4-0.4-2-0.7c-0.1,0.1-0.3,0.2-0.5,0.3s-0.3,0.1-0.5,0.1
		c-0.5,0-0.8-0.2-1.1-0.5c-0.3-0.3-0.4-0.8-0.4-1.5v-1c0-0.7,0.1-1.2,0.4-1.5c0.3-0.3,0.6-0.5,1.1-0.5c0.4,0,0.7,0.1,0.9,0.3
		s0.4,0.5,0.6,1c0.5,0.4,1,0.7,1.7,0.9c0.6,0.2,1.4,0.3,2.2,0.3c1.4,0,2.4-0.2,3.2-0.6c0.4-0.2,0.5-0.4,0.5-0.7c0-0.4-0.3-0.7-0.8-1
		s-1.6-0.5-3.2-0.6c-2.4-0.3-4-0.7-4.8-1.5c-0.8-0.7-1.2-1.6-1.2-2.6c0-1.1,0.5-2,1.4-2.7c1.2-1,2.8-1.5,4.8-1.5
		c0.7,0,1.4,0.1,2,0.2c0.6,0.1,1.3,0.3,1.8,0.6c0.2-0.1,0.4-0.2,0.5-0.3s0.3-0.1,0.4-0.1c0.4,0,0.8,0.2,1,0.5
		c0.3,0.3,0.4,0.8,0.4,1.5v0.7c0,0.7-0.1,1.1-0.2,1.3c-0.3,0.4-0.7,0.7-1.3,0.7c-0.4,0-0.7-0.1-1-0.3S353.3,246.4,353.2,246.1z"/>
	<path d="M377.2,246.1c-0.5-0.3-1-0.5-1.5-0.7c-0.5-0.2-1.1-0.2-1.7-0.2c-1.2,0-2.1,0.2-2.8,0.6c-0.3,0.2-0.5,0.3-0.5,0.5
		c0,0.2,0.2,0.4,0.6,0.7c0.3,0.2,1,0.3,2.1,0.5c2,0.3,3.4,0.5,4.2,0.8c1,0.4,1.8,0.9,2.4,1.6s0.8,1.5,0.8,2.3c0,1.1-0.5,2-1.4,2.7
		c-1.4,1-3.1,1.6-5.3,1.6c-0.9,0-1.7-0.1-2.4-0.2c-0.7-0.2-1.4-0.4-2-0.7c-0.1,0.1-0.3,0.2-0.5,0.3s-0.3,0.1-0.5,0.1
		c-0.5,0-0.8-0.2-1.1-0.5c-0.3-0.3-0.4-0.8-0.4-1.5v-1c0-0.7,0.1-1.2,0.4-1.5c0.3-0.3,0.6-0.5,1.1-0.5c0.4,0,0.7,0.1,0.9,0.3
		s0.4,0.5,0.6,1c0.5,0.4,1,0.7,1.7,0.9c0.6,0.2,1.4,0.3,2.2,0.3c1.4,0,2.4-0.2,3.2-0.6c0.4-0.2,0.5-0.4,0.5-0.7c0-0.4-0.3-0.7-0.8-1
		s-1.6-0.5-3.2-0.6c-2.4-0.3-4-0.7-4.8-1.5c-0.8-0.7-1.2-1.6-1.2-2.6c0-1.1,0.5-2,1.4-2.7c1.2-1,2.8-1.5,4.8-1.5
		c0.7,0,1.4,0.1,2,0.2c0.6,0.1,1.3,0.3,1.8,0.6c0.2-0.1,0.4-0.2,0.5-0.3s0.3-0.1,0.4-0.1c0.4,0,0.8,0.2,1,0.5
		c0.3,0.3,0.4,0.8,0.4,1.5v0.7c0,0.7-0.1,1.1-0.2,1.3c-0.3,0.4-0.7,0.7-1.3,0.7c-0.4,0-0.7-0.1-1-0.3S377.3,246.4,377.2,246.1z"/>
	<path d="M399.5,250.7h-12.3c0.3,0.8,0.9,1.4,1.7,1.9s1.9,0.7,3.2,0.7c1.1,0,2.6-0.2,4.4-0.7c0.8-0.2,1.3-0.3,1.6-0.3
		c0.4,0,0.7,0.1,1,0.4s0.4,0.6,0.4,1.1c0,0.4-0.1,0.7-0.4,1c-0.4,0.4-1.3,0.7-2.9,1c-1.5,0.3-3,0.5-4.4,0.5c-2.4,0-4.3-0.7-5.8-2
		s-2.2-3-2.2-5c0-2.1,0.8-3.8,2.3-5.1s3.4-2,5.4-2c1.2,0,2.3,0.2,3.4,0.6s1.8,0.9,2.3,1.4c0.7,0.7,1.3,1.6,1.7,2.7
		c0.3,0.7,0.5,1.6,0.5,2.6V250.7z M396.2,247.7c-0.5-0.9-1.1-1.5-1.8-1.9c-0.7-0.4-1.6-0.6-2.7-0.6c-1,0-1.9,0.2-2.6,0.6
		c-0.7,0.4-1.3,1.1-1.8,1.9H396.2z"/>
	<path d="M409.4,242.6v1.9c1.3-0.9,2.3-1.5,3-1.8s1.4-0.5,2-0.5c1,0,1.9,0.4,2.8,1.1c0.6,0.5,0.9,1,0.9,1.5c0,0.4-0.1,0.8-0.4,1.1
		c-0.3,0.3-0.7,0.4-1.1,0.4c-0.4,0-0.8-0.2-1.2-0.6s-0.8-0.6-1.1-0.6c-0.4,0-1,0.3-1.9,0.8s-1.9,1.3-3.1,2.4v4.5h4.3
		c0.7,0,1.2,0.1,1.5,0.4c0.3,0.3,0.5,0.6,0.5,1.1c0,0.4-0.2,0.8-0.5,1.1c-0.3,0.3-0.8,0.4-1.5,0.4h-9.1c-0.7,0-1.2-0.1-1.5-0.4
		c-0.3-0.3-0.5-0.6-0.5-1.1c0-0.4,0.2-0.8,0.5-1.1c0.3-0.3,0.8-0.4,1.5-0.4h1.8v-7.3h-1.1c-0.7,0-1.2-0.1-1.5-0.4
		c-0.3-0.3-0.5-0.6-0.5-1.1c0-0.4,0.2-0.8,0.5-1.1c0.3-0.3,0.8-0.4,1.5-0.4H409.4z"/>
	<path d="M429.5,242.6v10.3h3.6c0.7,0,1.2,0.1,1.5,0.4c0.3,0.3,0.5,0.6,0.5,1.1c0,0.4-0.2,0.8-0.5,1.1c-0.3,0.3-0.8,0.4-1.5,0.4
		h-10.2c-0.7,0-1.2-0.1-1.5-0.4c-0.3-0.3-0.5-0.6-0.5-1.1c0-0.4,0.2-0.8,0.5-1.1c0.3-0.3,0.8-0.4,1.5-0.4h3.6v-7.3h-2.4
		c-0.7,0-1.2-0.1-1.5-0.4c-0.3-0.3-0.5-0.6-0.5-1.1c0-0.4,0.2-0.8,0.5-1.1c0.3-0.3,0.8-0.4,1.5-0.4H429.5z M429.1,236.9v3.2h-3.6
		v-3.2H429.1z"/>
	<path d="M446,245.6v7.3h4.3c0.7,0,1.2,0.1,1.5,0.4c0.3,0.3,0.5,0.6,0.5,1.1c0,0.4-0.2,0.8-0.5,1.1c-0.3,0.3-0.8,0.4-1.5,0.4h-9.1
		c-0.7,0-1.2-0.1-1.5-0.4c-0.3-0.3-0.5-0.6-0.5-1.1c0-0.4,0.2-0.8,0.5-1.1c0.3-0.3,0.8-0.4,1.5-0.4h1.8v-7.3h-1.4
		c-0.7,0-1.2-0.1-1.5-0.4c-0.3-0.3-0.5-0.6-0.5-1.1c0-0.4,0.2-0.8,0.5-1.1c0.3-0.3,0.8-0.4,1.5-0.4h1.4v-1.1c0-1.3,0.5-2.4,1.5-3.3
		c1-0.9,2.4-1.3,4.3-1.3c0.8,0,1.8,0.1,2.9,0.2s1.8,0.4,2.1,0.6s0.5,0.6,0.5,1.1c0,0.5-0.1,0.8-0.4,1.1s-0.6,0.4-1,0.4
		c-0.2,0-0.5,0-0.8-0.1c-1.2-0.2-2.3-0.4-3.3-0.4c-1,0-1.7,0.1-2.1,0.4s-0.6,0.7-0.6,1.1v1.1h4.6c0.7,0,1.2,0.1,1.5,0.4
		c0.3,0.3,0.5,0.6,0.5,1.1c0,0.4-0.2,0.8-0.5,1.1c-0.3,0.3-0.8,0.4-1.5,0.4H446z"/>
</g>
<g>
	<path d="M531.9,236.9v6.4c0.6-0.4,1.3-0.6,1.9-0.8c0.6-0.2,1.3-0.3,1.9-0.3c1,0,2,0.2,2.8,0.5s1.5,0.9,2,1.7s0.8,1.7,0.8,2.9v5.6
		c0.8,0,1.3,0.1,1.5,0.2c0.5,0.3,0.7,0.7,0.7,1.3c0,0.4-0.2,0.8-0.5,1.1c-0.3,0.3-0.8,0.4-1.5,0.4h-3.4c-0.7,0-1.2-0.1-1.5-0.4
		c-0.3-0.3-0.5-0.6-0.5-1.1c0-0.5,0.2-1,0.7-1.3c0.2-0.2,0.7-0.2,1.5-0.2v-5.4c0-0.8-0.2-1.3-0.5-1.6c-0.5-0.4-1.1-0.6-2-0.6
		c-0.7,0-1.3,0.1-1.8,0.4s-1.2,0.8-2.1,1.7v5.6c0.8,0,1.3,0.1,1.5,0.2c0.5,0.3,0.7,0.7,0.7,1.3c0,0.4-0.2,0.8-0.5,1.1
		c-0.3,0.3-0.8,0.4-1.5,0.4h-3.4c-0.7,0-1.2-0.1-1.5-0.4c-0.3-0.3-0.5-0.6-0.5-1.1c0-0.5,0.2-1,0.7-1.3c0.2-0.2,0.7-0.2,1.5-0.2v-13
		h-0.5c-0.7,0-1.2-0.1-1.5-0.4c-0.3-0.3-0.5-0.6-0.5-1.1c0-0.4,0.2-0.8,0.5-1.1c0.3-0.3,0.8-0.4,1.5-0.4H531.9z"/>
	<path d="M555.7,255.9v-0.7c-0.8,0.4-1.6,0.7-2.5,0.9c-0.9,0.2-1.7,0.3-2.5,0.3c-1.6,0-2.9-0.4-3.9-1.3c-1-0.9-1.5-1.8-1.5-2.8
		c0-1.3,0.6-2.4,1.9-3.5c1.3-1.1,3.1-1.6,5.3-1.6c0.9,0,2,0.1,3.1,0.3v-0.7c0-0.4-0.2-0.8-0.6-1.1s-1.1-0.4-2.2-0.4
		c-0.9,0-2,0.2-3.5,0.5c-0.5,0.1-0.9,0.2-1.2,0.2c-0.4,0-0.7-0.1-1-0.4c-0.3-0.3-0.4-0.7-0.4-1.1c0-0.3,0-0.5,0.1-0.7
		s0.2-0.3,0.4-0.4s0.5-0.2,1.1-0.4c0.7-0.2,1.5-0.4,2.3-0.5c0.8-0.1,1.5-0.2,2.1-0.2c1.9,0,3.3,0.4,4.3,1.2c1,0.8,1.5,1.9,1.5,3.3
		v6.2h0.5c0.7,0,1.2,0.1,1.5,0.4c0.3,0.3,0.5,0.6,0.5,1.1c0,0.4-0.2,0.8-0.5,1.1c-0.3,0.3-0.8,0.4-1.5,0.4H555.7z M555.7,250.5
		c-1.2-0.2-2.3-0.4-3.3-0.4c-1.2,0-2.3,0.3-3.1,0.9c-0.5,0.4-0.8,0.8-0.8,1.2c0,0.3,0.1,0.5,0.4,0.7c0.5,0.3,1.2,0.5,2,0.5
		c0.7,0,1.5-0.1,2.5-0.4s1.7-0.7,2.4-1.2V250.5z"/>
	<path d="M568,242.6v1c0.5-0.5,1.1-0.8,1.8-1.1s1.4-0.4,2.1-0.4c1.8,0,3.2,0.6,4.2,1.7c0.8,0.9,1.2,2,1.2,3.5v5.6
		c0.6,0,1.1,0.1,1.4,0.4c0.3,0.3,0.5,0.6,0.5,1.1c0,0.4-0.2,0.8-0.5,1.1c-0.3,0.3-0.8,0.4-1.5,0.4h-2.7c-0.7,0-1.2-0.1-1.5-0.4
		c-0.3-0.3-0.5-0.6-0.5-1.1c0-0.4,0.2-0.8,0.5-1.1c0.3-0.3,0.8-0.4,1.4-0.4v-5.7c0-0.7-0.2-1.1-0.5-1.4c-0.5-0.4-1.1-0.6-2.1-0.6
		c-0.7,0-1.3,0.1-1.8,0.4c-0.5,0.3-1.2,0.8-2,1.7v5.6c0.8,0,1.3,0.1,1.5,0.2c0.5,0.3,0.7,0.7,0.7,1.3c0,0.4-0.2,0.8-0.5,1.1
		c-0.3,0.3-0.8,0.4-1.5,0.4h-3.4c-0.7,0-1.2-0.1-1.5-0.4c-0.3-0.3-0.5-0.6-0.5-1.1c0-0.5,0.2-1,0.7-1.3c0.2-0.1,0.7-0.2,1.5-0.2
		v-7.3c-0.6,0-1.1-0.1-1.4-0.4s-0.5-0.6-0.5-1.1s0.2-0.8,0.5-1.1c0.3-0.3,0.8-0.4,1.5-0.4H568z"/>
	<path d="M595.9,236.9v16h0.5c0.7,0,1.2,0.1,1.5,0.4c0.3,0.3,0.5,0.6,0.5,1.1c0,0.4-0.2,0.8-0.5,1.1c-0.3,0.3-0.8,0.4-1.5,0.4h-3.5
		v-0.7c-0.7,0.4-1.4,0.7-2.1,0.9c-0.7,0.2-1.5,0.3-2.3,0.3c-2.3,0-4.1-0.7-5.4-2c-1.4-1.3-2.1-2.9-2.1-4.9c0-2,0.7-3.8,2.2-5.2
		s3.2-2.2,5.3-2.2c0.8,0,1.5,0.1,2.3,0.4c0.8,0.2,1.5,0.6,2.2,1.1v-3.7h-0.5c-0.7,0-1.2-0.1-1.5-0.4c-0.3-0.3-0.5-0.6-0.5-1.1
		c0-0.4,0.2-0.8,0.5-1.1c0.3-0.3,0.8-0.4,1.5-0.4H595.9z M592.9,249.6c0-1.2-0.4-2.3-1.3-3.1s-1.9-1.3-3.2-1.3
		c-1.2,0-2.3,0.4-3.2,1.3s-1.3,1.9-1.3,3.1c0,1.1,0.4,2,1.2,2.7c0.8,0.7,1.9,1.1,3.3,1.1c1.4,0,2.5-0.4,3.3-1.1
		C592.5,251.6,592.9,250.7,592.9,249.6z"/>
	<path d="M607,250.3l-2.1,5.5h-2.8l-2.5-10.3c-0.5,0-1-0.2-1.2-0.5c-0.3-0.3-0.4-0.6-0.4-1c0-0.4,0.2-0.8,0.5-1.1
		c0.3-0.3,0.8-0.4,1.5-0.4h2.8c0.7,0,1.2,0.1,1.5,0.4c0.3,0.3,0.5,0.6,0.5,1.1s-0.2,0.8-0.5,1.1c-0.3,0.2-0.8,0.4-1.6,0.4l1.1,4.8
		l1.9-4.9h2.7l1.9,4.9l1.2-4.8c-0.7,0-1.2-0.1-1.5-0.2c-0.5-0.3-0.7-0.7-0.7-1.3c0-0.4,0.2-0.8,0.5-1.1c0.3-0.3,0.8-0.4,1.5-0.4h2.8
		c0.7,0,1.2,0.1,1.5,0.4c0.3,0.3,0.5,0.6,0.5,1.1c0,0.4-0.1,0.7-0.4,1c-0.3,0.3-0.7,0.4-1.2,0.5l-2.5,10.3h-2.8L607,250.3z"/>
	<path d="M624.4,242.6v1.9c1.3-0.9,2.3-1.5,3-1.8s1.4-0.5,2-0.5c1,0,1.9,0.4,2.8,1.1c0.6,0.5,0.9,1,0.9,1.5c0,0.4-0.1,0.8-0.4,1.1
		c-0.3,0.3-0.7,0.4-1.1,0.4c-0.4,0-0.8-0.2-1.2-0.6s-0.8-0.6-1.1-0.6c-0.4,0-1,0.3-1.9,0.8s-1.9,1.3-3.1,2.4v4.5h4.3
		c0.7,0,1.2,0.1,1.5,0.4c0.3,0.3,0.5,0.6,0.5,1.1c0,0.4-0.2,0.8-0.5,1.1c-0.3,0.3-0.8,0.4-1.5,0.4h-9.1c-0.7,0-1.2-0.1-1.5-0.4
		c-0.3-0.3-0.5-0.6-0.5-1.1c0-0.4,0.2-0.8,0.5-1.1c0.3-0.3,0.8-0.4,1.5-0.4h1.8v-7.3h-1.1c-0.7,0-1.2-0.1-1.5-0.4
		c-0.3-0.3-0.5-0.6-0.5-1.1c0-0.4,0.2-0.8,0.5-1.1c0.3-0.3,0.8-0.4,1.5-0.4H624.4z"/>
	<path d="M644.5,242.6v10.3h3.6c0.7,0,1.2,0.1,1.5,0.4c0.3,0.3,0.5,0.6,0.5,1.1c0,0.4-0.2,0.8-0.5,1.1c-0.3,0.3-0.8,0.4-1.5,0.4
		h-10.2c-0.7,0-1.2-0.1-1.5-0.4c-0.3-0.3-0.5-0.6-0.5-1.1c0-0.4,0.2-0.8,0.5-1.1c0.3-0.3,0.8-0.4,1.5-0.4h3.6v-7.3h-2.4
		c-0.7,0-1.2-0.1-1.5-0.4c-0.3-0.3-0.5-0.6-0.5-1.1c0-0.4,0.2-0.8,0.5-1.1c0.3-0.3,0.8-0.4,1.5-0.4H644.5z M644.1,236.9v3.2h-3.6
		v-3.2H644.1z"/>
	<path d="M660.3,245.6v6c0,0.6,0.1,1.1,0.4,1.3c0.4,0.3,1.1,0.5,2.2,0.5c1.5,0,2.9-0.3,4.2-1c0.5-0.3,0.9-0.4,1.2-0.4
		c0.4,0,0.7,0.1,1,0.4s0.4,0.6,0.4,1.1c0,0.4-0.2,0.7-0.5,1c-0.5,0.5-1.4,0.9-2.8,1.3c-1.4,0.4-2.6,0.6-3.6,0.6
		c-1.9,0-3.3-0.4-4.2-1.2c-0.9-0.8-1.4-1.8-1.4-3v-6.6h-1.1c-0.7,0-1.2-0.1-1.5-0.4c-0.3-0.3-0.5-0.6-0.5-1.1c0-0.4,0.2-0.8,0.5-1.1
		c0.3-0.3,0.8-0.4,1.5-0.4h1.1v-2.7c0-0.7,0.1-1.2,0.4-1.5c0.3-0.3,0.6-0.5,1.1-0.5c0.4,0,0.8,0.2,1.1,0.5c0.3,0.3,0.4,0.8,0.4,1.5
		v2.7h5.6c0.7,0,1.2,0.1,1.5,0.4c0.3,0.3,0.5,0.6,0.5,1.1c0,0.4-0.2,0.8-0.5,1.1c-0.3,0.3-0.8,0.4-1.5,0.4H660.3z"/>
	<path d="M678.3,245.6v6c0,0.6,0.1,1.1,0.4,1.3c0.4,0.3,1.1,0.5,2.2,0.5c1.5,0,2.9-0.3,4.2-1c0.5-0.3,0.9-0.4,1.2-0.4
		c0.4,0,0.7,0.1,1,0.4s0.4,0.6,0.4,1.1c0,0.4-0.2,0.7-0.5,1c-0.5,0.5-1.4,0.9-2.8,1.3c-1.4,0.4-2.6,0.6-3.6,0.6
		c-1.9,0-3.3-0.4-4.2-1.2c-0.9-0.8-1.4-1.8-1.4-3v-6.6h-1.1c-0.7,0-1.2-0.1-1.5-0.4c-0.3-0.3-0.5-0.6-0.5-1.1c0-0.4,0.2-0.8,0.5-1.1
		c0.3-0.3,0.8-0.4,1.5-0.4h1.1v-2.7c0-0.7,0.1-1.2,0.4-1.5c0.3-0.3,0.6-0.5,1.1-0.5c0.4,0,0.8,0.2,1.1,0.5c0.3,0.3,0.4,0.8,0.4,1.5
		v2.7h5.6c0.7,0,1.2,0.1,1.5,0.4c0.3,0.3,0.5,0.6,0.5,1.1c0,0.4-0.2,0.8-0.5,1.1c-0.3,0.3-0.8,0.4-1.5,0.4H678.3z"/>
	<path d="M704.5,250.7h-12.3c0.3,0.8,0.9,1.4,1.7,1.9s1.9,0.7,3.2,0.7c1.1,0,2.6-0.2,4.4-0.7c0.8-0.2,1.3-0.3,1.6-0.3
		c0.4,0,0.7,0.1,1,0.4s0.4,0.6,0.4,1.1c0,0.4-0.1,0.7-0.4,1c-0.4,0.4-1.3,0.7-2.9,1c-1.5,0.3-3,0.5-4.4,0.5c-2.4,0-4.3-0.7-5.8-2
		s-2.2-3-2.2-5c0-2.1,0.8-3.8,2.3-5.1s3.4-2,5.4-2c1.2,0,2.3,0.2,3.4,0.6s1.8,0.9,2.3,1.4c0.7,0.7,1.3,1.6,1.7,2.7
		c0.3,0.7,0.5,1.6,0.5,2.6V250.7z M701.2,247.7c-0.5-0.9-1.1-1.5-1.8-1.9c-0.7-0.4-1.6-0.6-2.7-0.6c-1,0-1.9,0.2-2.6,0.6
		c-0.7,0.4-1.3,1.1-1.8,1.9H701.2z"/>
	<path d="M712,242.6v1c0.5-0.5,1.1-0.8,1.8-1.1s1.4-0.4,2.1-0.4c1.8,0,3.2,0.6,4.2,1.7c0.8,0.9,1.2,2,1.2,3.5v5.6
		c0.6,0,1.1,0.1,1.4,0.4c0.3,0.3,0.5,0.6,0.5,1.1c0,0.4-0.2,0.8-0.5,1.1c-0.3,0.3-0.8,0.4-1.5,0.4h-2.7c-0.7,0-1.2-0.1-1.5-0.4
		c-0.3-0.3-0.5-0.6-0.5-1.1c0-0.4,0.2-0.8,0.5-1.1c0.3-0.3,0.8-0.4,1.4-0.4v-5.7c0-0.7-0.2-1.1-0.5-1.4c-0.5-0.4-1.1-0.6-2.1-0.6
		c-0.7,0-1.3,0.1-1.8,0.4c-0.5,0.3-1.2,0.8-2,1.7v5.6c0.8,0,1.3,0.1,1.5,0.2c0.5,0.3,0.7,0.7,0.7,1.3c0,0.4-0.2,0.8-0.5,1.1
		c-0.3,0.3-0.8,0.4-1.5,0.4h-3.4c-0.7,0-1.2-0.1-1.5-0.4c-0.3-0.3-0.5-0.6-0.5-1.1c0-0.5,0.2-1,0.7-1.3c0.2-0.1,0.7-0.2,1.5-0.2
		v-7.3c-0.6,0-1.1-0.1-1.4-0.4s-0.5-0.6-0.5-1.1s0.2-0.8,0.5-1.1c0.3-0.3,0.8-0.4,1.5-0.4H712z"/>
</g>
<g>
	<path d="M451.9,28.5h-67.2v186.6h-27.4V28.5h-67.1V5.9h161.8V28.5z"/>
</g>
<g>
	<path class="st3" d="M649.9,203.6l-2.1,8.7c-7.1,1.5-12.8,2.3-17.3,2.3c-4.3,0-11.4-0.5-21.3-1.4c-7.5-0.6-14.2-0.9-20.1-0.9
		c-10.2,0-20.7,0.9-31.6,2.8l2.1-8.4c10.3-1,17.8-3.2,22.5-6.4c3.4-2.4,6.3-6.4,8.7-12c2.4-5.7,7.8-25.5,16.3-59.4l19.6-81.2
		l1.1-3.8c-6-0.3-10.6-0.5-13.6-0.5c-18.9,0-33.9,2-45,6.1c-11.1,4.1-19.4,10-25,17.8c-5.6,7.8-8.4,16.2-8.4,25.2
		c0,3.2,0.6,6.1,1.7,8.8c0.8,1.8,3.1,4.8,6.7,8.9c3.5,3.8,5.2,7.3,5.2,10.4c0,2.8-1,5.1-3.1,7.1c-2,1.9-4.5,2.9-7.4,2.9
		c-4.3,0-7.8-2-10.4-6.1c-3.9-6-5.8-13.7-5.8-23c0-12.5,3.9-24.6,11.6-36.3c7.7-11.7,18.3-20.8,31.8-27.3
		c13.5-6.4,29.9-9.7,49.2-9.7c9.2,0,23.9,1.3,44,4c14.3,1.8,24.7,2.8,31.1,2.8c6.4,0,11-1.1,13.6-3.2c2.7-2.1,4-5,4-8.6
		c0-0.7-0.2-2.1-0.5-4.3c-0.3-1.9-0.5-3.2-0.5-3.8c0-2.8,0.9-5.1,2.8-6.9c1.8-1.8,4-2.8,6.6-2.8c3.1,0,5.6,1.1,7.6,3.4
		c2,2.2,3,5.3,3,9c0,7.8-4.1,14.5-12.4,20.1c-8.3,5.6-22.1,8.4-41.5,8.4c-6.9,0-14.3-0.3-22.2-0.9c-1,3.7-4.3,16.1-9.7,37.4
		l-13.4,53l-8.1,32.3l-8.4,36.9c6.8,0.8,12.5,1.2,17,1.2C635.3,206.2,642.4,205.4,649.9,203.6z"/>
</g>
<g>
	<path d="M105.1,187.5c0-0.1,0-0.1,0-0.2C105.1,187.4,105.1,187.4,105.1,187.5z"/>
	<path d="M104.8,189.1c0-0.1,0-0.2,0.1-0.3C104.8,188.8,104.8,188.9,104.8,189.1z"/>
	<path d="M105.8,179.9C105.8,179.9,105.8,179.8,105.8,179.9C105.8,179.8,105.8,179.9,105.8,179.9z"/>
	<path d="M67.9,13.6c0,0-0.1,0-0.1,0C67.8,13.6,67.8,13.6,67.9,13.6z"/>
	<path d="M105.5,184c0-0.1,0-0.1,0-0.2C105.5,183.9,105.5,183.9,105.5,184z"/>
	<path d="M137.9,188.6c0,0.1,0,0.2,0.1,0.3C137.9,188.9,137.9,188.7,137.9,188.6z"/>
	<path d="M136.9,179.8C136.9,179.8,136.9,179.8,136.9,179.8C136.9,179.8,136.9,179.8,136.9,179.8z"/>
	<path d="M178.5,14.2c-0.2,0-0.4-0.1-0.6-0.1C178.1,14.1,178.3,14.2,178.5,14.2z"/>
	<path d="M65.8,14c-0.1,0-0.2,0-0.3,0.1C65.7,14,65.7,14,65.8,14z"/>
	<path d="M137.7,187.2c0,0.1,0,0.1,0,0.2C137.7,187.3,137.7,187.3,137.7,187.2z"/>
	<path d="M180.6,14.8c-0.4-0.1-0.9-0.3-1.4-0.4C179.6,14.6,180.1,14.7,180.6,14.8z"/>
	<path d="M137.2,183.7c0,0.1,0,0.1,0,0.2C137.3,183.8,137.3,183.8,137.2,183.7z"/>
	<path d="M137.4,185.4c0,0.1,0,0.2,0,0.2C137.4,185.6,137.4,185.5,137.4,185.4z"/>
	<path d="M105.3,185.8c0-0.1,0-0.2,0-0.2C105.3,185.6,105.3,185.7,105.3,185.8z"/>
	<path d="M58.7,15.9c-0.2,0.1-0.3,0.1-0.5,0.2C58.4,16,58.6,16,58.7,15.9z"/>
	<path d="M60.4,15.4c-0.2,0-0.3,0.1-0.5,0.1C60.1,15.5,60.2,15.4,60.4,15.4z"/>
	<path d="M62.1,14.9c-0.1,0-0.3,0.1-0.4,0.1C61.8,15,62,14.9,62.1,14.9z"/>
	<path d="M57.1,16.5c-0.1,0.1-0.3,0.1-0.4,0.2C56.8,16.6,57,16.6,57.1,16.5z"/>
	<path d="M176,5.9H70v7.2c5-0.9,10.8-1.5,17.3-1.9c6.7-0.4,13-0.6,18.8-0.6V167c0,3,0,5.8-0.1,8.3c0,0,0,0,0,0h30.7c0,0,0,0,0,0
		c-0.1-2.5-0.1-5.3-0.1-8.3V10.7c17.4,0,30.5,1,39.4,2.9c0,0,0,0,0,0V5.9z"/>
	<path d="M63.9,14.4c-0.1,0-0.2,0.1-0.3,0.1C63.7,14.5,63.8,14.4,63.9,14.4z"/>
	<path class="st4" d="M104.6,190.3c0.1-0.4,0.2-0.8,0.2-1.3C104.7,189.5,104.6,189.9,104.6,190.3z"/>
	<path class="st4" d="M137.9,189c0.1,0.4,0.2,0.9,0.2,1.3C138.1,189.8,138,189.4,137.9,189z"/>
	<path class="st4" d="M137.7,187.4c0.1,0.4,0.1,0.8,0.2,1.2C137.8,188.2,137.8,187.8,137.7,187.4z"/>
	<path class="st4" d="M136.9,179.9c0.1,1.4,0.2,2.7,0.3,3.9C137.1,182.5,137,181.2,136.9,179.9z"/>
	<path class="st4" d="M137.3,183.9c0.1,0.5,0.1,1,0.2,1.5C137.4,184.9,137.3,184.4,137.3,183.9z"/>
	<path class="st4" d="M137.5,185.7c0.1,0.5,0.1,1,0.2,1.5C137.6,186.7,137.5,186.2,137.5,185.7z"/>
	<path class="st4" d="M104.9,188.7c0.1-0.4,0.1-0.8,0.2-1.2C105,187.9,104.9,188.3,104.9,188.7z"/>
	<path class="st4" d="M136.7,175.3c0.1,1.6,0.1,3.1,0.2,4.5C136.8,178.4,136.8,176.9,136.7,175.3z"/>
	<path class="st4" d="M105.5,183.8c0.1-1.2,0.2-2.5,0.3-3.9C105.7,181.3,105.6,182.6,105.5,183.8z"/>
	<path class="st4" d="M105.8,179.8c0.1-1.4,0.2-2.9,0.2-4.5C106,176.9,105.9,178.4,105.8,179.8z"/>
	<path class="st4" d="M105.1,187.3c0.1-0.5,0.1-1,0.2-1.5C105.2,186.3,105.2,186.8,105.1,187.3z"/>
	<path class="st4" d="M105.3,185.5c0.1-0.5,0.1-1,0.2-1.5C105.4,184.5,105.4,185,105.3,185.5z"/>
	<path class="st4" d="M106,175.3C106,175.3,106,175.3,106,175.3c-0.1,1.6-0.1,3.1-0.2,4.5c0,0,0,0.1,0,0.1c-0.1,1.4-0.2,2.7-0.3,3.9
		c0,0.1,0,0.1,0,0.2c-0.1,0.5-0.1,1-0.2,1.5c0,0.1,0,0.2,0,0.2c-0.1,0.5-0.1,1.1-0.2,1.5c0,0.1,0,0.1,0,0.2
		c-0.1,0.4-0.1,0.8-0.2,1.2c0,0.1,0,0.2-0.1,0.3c-0.1,0.4-0.2,0.9-0.2,1.3c-1.1,5-3,9.1-5.9,12.4c-2.6,3-5.6,5.1-8.9,6.4
		c-3.3,1.3-7.7,2.1-13.1,2.5v3.5h89.2v-3.5c-5.3-0.3-9.6-1.1-12.9-2.5c-3.3-1.3-6.3-3.5-8.9-6.4c-2.9-3.3-4.9-7.4-5.9-12.5
		c-0.1-0.4-0.2-0.8-0.2-1.3c0-0.1,0-0.2-0.1-0.3c-0.1-0.4-0.1-0.8-0.2-1.2c0-0.1,0-0.1,0-0.2c-0.1-0.5-0.1-1-0.2-1.5
		c0-0.1,0-0.2,0-0.2c-0.1-0.5-0.1-1-0.2-1.5c0-0.1,0-0.1,0-0.2c-0.1-1.2-0.2-2.5-0.3-3.9c0,0,0-0.1,0-0.1c-0.1-1.4-0.2-2.9-0.2-4.5
		c0,0,0,0,0,0H106z"/>
	<path class="st4" d="M59.9,15.5c-0.4,0.1-0.8,0.3-1.2,0.4C59.1,15.8,59.5,15.7,59.9,15.5z"/>
	<path class="st4" d="M65.6,14c-0.6,0.1-1.1,0.3-1.7,0.4C64.5,14.3,65,14.2,65.6,14z"/>
	<path class="st4" d="M67.7,13.6c-0.6,0.1-1.3,0.3-1.9,0.4C66.4,13.8,67.1,13.7,67.7,13.6z"/>
	<path class="st4" d="M63.6,14.5c-0.5,0.1-1,0.3-1.5,0.4C62.6,14.8,63.1,14.6,63.6,14.5z"/>
	<path class="st4" d="M61.7,15c-0.4,0.1-0.9,0.3-1.3,0.4C60.8,15.3,61.2,15.1,61.7,15z"/>
	<path class="st4" d="M56.7,16.7c-0.5,0.2-1,0.4-1.4,0.6C55.7,17.1,56.2,16.9,56.7,16.7z"/>
	<path class="st4" d="M58.3,16.1c-0.4,0.1-0.8,0.3-1.1,0.4C57.5,16.4,57.9,16.2,58.3,16.1z"/>
	<path class="st4" d="M70,13.2L70,13.2c-0.7,0.1-1.4,0.3-2.1,0.4C68.6,13.4,69.3,13.3,70,13.2z"/>
	<path class="st4" d="M27.6,5.9l-2.5,56.6l3.2,0.3c2.2-12.3,5.4-22,9.6-29.1c4.6-7.8,10.4-13.2,17.4-16.4c0.5-0.2,0.9-0.4,1.4-0.6
		c0.1-0.1,0.3-0.1,0.4-0.2c0.4-0.1,0.7-0.3,1.1-0.4c0.2-0.1,0.3-0.1,0.5-0.2c0.4-0.1,0.8-0.3,1.2-0.4c0.1,0,0.3-0.1,0.5-0.1
		c0.4-0.1,0.9-0.3,1.3-0.4c0.1,0,0.3-0.1,0.4-0.1c0.5-0.1,1-0.3,1.5-0.4c0.1,0,0.2-0.1,0.3-0.1c0.5-0.1,1.1-0.3,1.7-0.4
		c0.1,0,0.2,0,0.3-0.1c0.6-0.1,1.2-0.3,1.9-0.4c0,0,0.1,0,0.1,0c0.7-0.1,1.4-0.3,2.1-0.4V5.9H27.6z"/>
	<path class="st4" d="M179.2,14.4c-0.2-0.1-0.4-0.1-0.7-0.2C178.7,14.3,179,14.4,179.2,14.4z"/>
	<path class="st4" d="M178,14.1c-0.6-0.2-1.3-0.3-2-0.5C176.7,13.8,177.3,13.9,178,14.1z"/>
	<path class="st4" d="M216.4,5.9H176v7.7c0,0,0,0,0,0c0.7,0.1,1.3,0.3,2,0.5c0.2,0,0.4,0.1,0.6,0.1c0.2,0.1,0.4,0.1,0.7,0.2
		c0.5,0.1,0.9,0.3,1.4,0.4c10.2,3.2,18,8.4,23.4,15.7c5.4,7.3,9.3,18.1,11.8,32.3l3.2-0.3L216.4,5.9z"/>
</g>
</svg>
