<?xml version="1.0" encoding="utf-8"?>
<!-- Generator: Adobe Illustrator 25.0.1, SVG Export Plug-In . SVG Version: 6.00 Build 0)  -->
<svg version="1.1" id="Vrstva_1" xmlns="http://www.w3.org/2000/svg" xmlns:xlink="http://www.w3.org/1999/xlink" x="0px" y="0px"
	 viewBox="0 0 252.5 56.7" style="enable-background:new 0 0 252.5 56.7;" xml:space="preserve">
<style type="text/css">
	.st0{fill:#484848;}
	.st1{fill:#CDCDCD;}
	.st2{fill:#565656;}
	.st3{fill:#FFFFFF;}
	.st4{fill:#EEEEEE;}
</style>
<path class="st0" d="M169.2,49.9c0,0.7-0.1,1.1-0.2,1.3c-0.2,0.4-0.5,0.6-0.9,0.6c-0.5,0-0.8-0.3-0.8-0.9c0-0.4,0.2-0.8,0.6-1
	c0.3-0.2,0.6-0.3,1.3-0.3V49.9z M171.1,51.8c-0.2,0.2-0.3,0.2-0.4,0.2c-0.1,0-0.2,0-0.2-0.2c-0.1-0.1-0.1-0.1-0.1-1.4V49
	c0-1.1,0-1.2-0.3-1.5c-0.3-0.3-0.9-0.5-1.5-0.5c-1.1,0-2,0.6-2,1.3c0,0.3,0.2,0.6,0.6,0.6c0.3,0,0.5-0.2,0.5-0.6
	c0-0.1,0-0.2-0.2-0.4c-0.1-0.1-0.1-0.1-0.1-0.1c0-0.2,0.5-0.5,1-0.5c0.3,0,0.6,0.1,0.7,0.3c0.1,0.2,0.2,0.3,0.2,1v0.9
	c-0.9,0-1.4,0.1-1.9,0.3c-0.8,0.3-1.2,0.8-1.2,1.5c0,0.7,0.6,1.2,1.4,1.2c0.7,0,1.3-0.4,1.7-1c0.1,0.7,0.5,1,1.1,1
	c0.3,0,0.6-0.1,0.9-0.4L171.1,51.8z M164.8,47.4h0.5v-0.3h-1.9v0.3h1l-1.3,3.5l-1.4-3.5h0.9v-0.3h-2.8v0.3h0.5l2,5h0.5L164.8,47.4z
	 M156.4,47.3c0.5,0,0.8,0.1,1.1,0.5c0.2,0.3,0.2,0.5,0.2,2c0,1.3,0,1.6-0.1,1.8c-0.2,0.4-0.6,0.6-1.1,0.6c-0.5,0-0.8-0.1-1-0.5
	c-0.2-0.3-0.2-0.5-0.2-1.9c0-1.4,0-1.6,0.1-1.8C155.5,47.5,155.9,47.3,156.4,47.3 M156.4,47c-1.4,0-2.6,1.2-2.6,2.7
	c0,1.5,1.2,2.7,2.6,2.7c1.4,0,2.6-1.2,2.6-2.7C159.1,48.2,157.9,47,156.4,47 M150.7,52h-0.9v0.3h2.9V52h-0.9v-8.4h-2v0.3h0.9V52z
	 M145.7,52h-0.9v0.3h2.9V52h-0.9v-1.2c0-1.5,0.1-2.3,0.5-2.9c0.1-0.2,0.3-0.3,0.4-0.3c0.1,0,0.1,0.1,0.1,0.2c0,0.3,0,0.3,0.1,0.4
	c0.1,0.2,0.3,0.4,0.5,0.4c0.4,0,0.6-0.3,0.6-0.7c0-0.4-0.3-0.8-0.8-0.8c-0.6,0-1.1,0.4-1.4,1.4v-1.2h-2v0.3h0.9V52z M141.8,49.9
	c0,0.7-0.1,1.1-0.2,1.3c-0.2,0.4-0.5,0.6-0.9,0.6c-0.5,0-0.8-0.3-0.8-0.9c0-0.4,0.2-0.8,0.6-1c0.3-0.2,0.6-0.3,1.3-0.3V49.9z
	 M143.6,51.8c-0.2,0.2-0.3,0.2-0.4,0.2c-0.1,0-0.2,0-0.2-0.2c-0.1-0.1-0.1-0.1-0.1-1.4V49c0-1.1,0-1.2-0.3-1.5
	c-0.3-0.3-0.9-0.5-1.5-0.5c-1.1,0-2,0.6-2,1.3c0,0.3,0.2,0.6,0.6,0.6c0.3,0,0.5-0.2,0.5-0.6c0-0.1,0-0.2-0.2-0.4
	c-0.1-0.1-0.1-0.1-0.1-0.1c0-0.2,0.5-0.5,1-0.5c0.3,0,0.6,0.1,0.7,0.3c0.1,0.2,0.2,0.3,0.2,1v0.9c-0.9,0-1.4,0.1-1.9,0.3
	c-0.8,0.3-1.2,0.8-1.2,1.5c0,0.7,0.6,1.2,1.4,1.2c0.7,0,1.3-0.4,1.7-1c0.1,0.7,0.5,1,1.1,1c0.3,0,0.6-0.1,0.9-0.4L143.6,51.8z
	 M133.5,46.9l2.8-3.1h1.1v-0.3h-2.8v0.3h1.3l-3.5,3.9l3.2,4.3h-1.1v0.3h3.4V52h-0.6L133.5,46.9z M130.8,52h-1.1v0.3h3.6V52h-1.1
	v-8.2h1.1v-0.3h-3.6v0.3h1.1V52z M123.1,49.9c0,0.7-0.1,1.1-0.2,1.3c-0.2,0.4-0.5,0.6-0.9,0.6c-0.5,0-0.8-0.3-0.8-0.9
	c0-0.4,0.2-0.8,0.6-1c0.3-0.2,0.6-0.3,1.3-0.3V49.9z M124.9,51.8c-0.2,0.2-0.3,0.2-0.4,0.2c-0.1,0-0.2,0-0.2-0.2
	c-0.1-0.1-0.1-0.1-0.1-1.4V49c0-1.1,0-1.2-0.3-1.5c-0.3-0.3-0.9-0.5-1.5-0.5c-1.1,0-2,0.6-2,1.3c0,0.3,0.2,0.6,0.6,0.6
	c0.3,0,0.5-0.2,0.5-0.6c0-0.1,0-0.2-0.2-0.4c-0.1-0.1-0.1-0.1-0.1-0.1c0-0.2,0.5-0.5,1-0.5c0.3,0,0.6,0.1,0.7,0.3
	c0.1,0.2,0.2,0.3,0.2,1v0.9c-0.9,0-1.4,0.1-1.9,0.3c-0.8,0.3-1.2,0.8-1.2,1.5c0,0.7,0.6,1.2,1.4,1.2c0.7,0,1.3-0.4,1.7-1
	c0.1,0.7,0.5,1,1.1,1c0.3,0,0.6-0.1,0.9-0.4L124.9,51.8z M117.2,45.1H117c-0.3,0.9-0.9,1.6-1.8,2.1v0.2h0.8v3.3c0,0.8,0,1,0.3,1.2
	c0.2,0.3,0.6,0.5,1.1,0.5c0.8,0,1.2-0.4,1.4-1.1h-0.3c-0.1,0.5-0.3,0.7-0.7,0.7c-0.2,0-0.4-0.1-0.5-0.2c-0.1-0.1-0.1-0.3-0.1-0.6
	v-3.7h1.3v-0.3h-1.3V45.1z M112.6,43.7c-0.4,0-0.7,0.3-0.7,0.7c0,0.4,0.3,0.7,0.7,0.7c0.4,0,0.7-0.3,0.7-0.7
	C113.3,44,113,43.7,112.6,43.7 M112.1,52h-0.9v0.3h2.9V52h-0.9v-4.9h-2v0.3h0.9V52z M109.4,47.1h-4.2v2h0.2c0.3-1,0.4-1.1,0.6-1.4
	c0.2-0.3,0.5-0.3,1.2-0.3h0.7l-3.1,4.9h4.5l0-2.2H109c-0.1,0.5-0.3,1-0.4,1.3c-0.2,0.5-0.6,0.6-1.4,0.6h-1L109.4,47.1z M100.1,52
	h-0.9v0.3h2.9V52h-0.9v-1.2c0-1.5,0.1-2.3,0.5-2.9c0.1-0.2,0.3-0.3,0.4-0.3c0.1,0,0.1,0.1,0.1,0.2c0,0.3,0,0.3,0.1,0.4
	c0.1,0.2,0.3,0.4,0.5,0.4c0.4,0,0.6-0.3,0.6-0.7c0-0.4-0.3-0.8-0.8-0.8c-0.6,0-1.1,0.4-1.4,1.4v-1.2h-2v0.3h0.9V52z M94.7,49v-0.3
	c0-0.7,0.1-0.9,0.2-1.1c0.2-0.2,0.5-0.3,0.8-0.3c0.4,0,0.7,0.2,0.8,0.5c0.1,0.2,0.1,0.3,0.1,1.2H94.7z M98.1,49.2
	c0-0.5-0.1-0.9-0.3-1.2c-0.4-0.7-1.1-1.1-1.9-1.1c-1.3,0-2.4,1.2-2.4,2.7c0,1.4,1.2,2.7,2.5,2.7c1,0,1.9-0.8,2.1-1.8h-0.3
	c-0.2,1-0.9,1.6-1.7,1.6c-0.5,0-0.9-0.2-1.1-0.6c-0.1-0.3-0.2-0.6-0.2-1.8v-0.4H98.1z M92,47.4h0.5v-0.3h-1.9v0.3h1l-1.3,3.5
	L89,47.4h0.9v-0.3h-2.8v0.3h0.5l2,5h0.5L92,47.4z M84.9,43.7c-0.4,0-0.7,0.3-0.7,0.7c0,0.4,0.3,0.7,0.7,0.7c0.4,0,0.7-0.3,0.7-0.7
	C85.7,44,85.3,43.7,84.9,43.7 M84.4,52h-0.9v0.3h2.9V52h-0.9v-4.9h-2v0.3h0.9V52z M77.1,52h-0.9v0.3h2.8V52h-0.8v-1.6
	c0-1.6,0.1-2.2,0.3-2.5c0.2-0.3,0.6-0.5,1-0.5c0.3,0,0.5,0.1,0.7,0.3c0.2,0.2,0.2,0.7,0.2,2.3v2h-0.8v0.3h2.8V52h-0.9v-2.9
	c0-1-0.1-1.3-0.4-1.6C81,47.2,80.5,47,80,47c-0.7,0-1.2,0.3-1.6,0.8v-0.7h-2v0.3h0.9V52z M74.1,43.8v5c0,1.4,0,1.7-0.3,2.2
	c-0.3,0.7-0.9,1.1-1.8,1.1c-0.7,0-1.3-0.3-1.6-0.7c-0.3-0.5-0.4-0.7-0.4-2.5v-5h1.1v-0.3h-3.6v0.3h1.1v5c0,1.7,0.1,2.2,0.7,2.8
	c0.5,0.5,1.4,0.8,2.4,0.8c1,0,1.8-0.3,2.2-0.9c0.4-0.6,0.5-1,0.5-2.7v-5h1.1v-0.3H73v0.3H74.1z"/>
<path d="M174.7,34.3h0.5v-0.3h-1.9v0.3h1l-1.2,3.3l-1.4-3.3h0.9v-0.3h-2.8v0.3h0.6l2.2,4.9l-0.7,1.9c-0.2,0.6-0.3,0.7-0.4,0.7
	c-0.1,0-0.1,0-0.2-0.1c-0.1-0.2-0.3-0.3-0.5-0.3c-0.4,0-0.6,0.3-0.6,0.6c0,0.4,0.3,0.6,0.7,0.6c0.6,0,1-0.4,1.3-1.4L174.7,34.3z
	 M169,34.3h0.5v-0.3h-1.9v0.3h1l-1.3,3.5l-1.4-3.5h0.9v-0.3h-2.8v0.3h0.5l2,5h0.5L169,34.3z M160.9,34.2c0.5,0,0.8,0.1,1.1,0.5
	c0.2,0.3,0.2,0.5,0.2,2c0,1.3,0,1.6-0.1,1.8c-0.2,0.4-0.6,0.6-1.1,0.6c-0.5,0-0.8-0.1-1-0.5c-0.2-0.3-0.2-0.5-0.2-1.9
	c0-1.4,0-1.6,0.1-1.8C160,34.4,160.4,34.2,160.9,34.2 M160.9,34c-1.4,0-2.6,1.2-2.6,2.7c0,1.5,1.2,2.7,2.6,2.7
	c1.4,0,2.6-1.2,2.6-2.7C163.6,35.1,162.4,34,160.9,34 M151.7,38.9h-0.9v0.3h2.8v-0.3h-0.8V37c0-1,0.1-1.4,0.2-1.8
	c0.2-0.6,0.8-0.9,1.3-0.9c0.3,0,0.6,0.1,0.7,0.3c0.1,0.2,0.1,0.3,0.1,1.2v3.1h-0.8v0.3h2.8v-0.3h-0.9v-3.1c0-0.9,0-1.1-0.3-1.4
	c-0.3-0.3-0.8-0.5-1.3-0.5c-0.9,0-1.5,0.3-1.9,1.1v-4.5h-2v0.3h0.9V38.9z M149.6,37.5c-0.3,1-0.9,1.5-1.7,1.5
	c-0.4,0-0.7-0.1-0.9-0.4c-0.2-0.3-0.3-0.7-0.3-1.6c0-1.1,0.1-1.9,0.3-2.2c0.2-0.3,0.5-0.5,1-0.5c0.4,0,0.9,0.2,0.9,0.4
	c0,0,0,0.1-0.1,0.1c-0.2,0.2-0.3,0.4-0.3,0.6c0,0.4,0.2,0.6,0.6,0.6c0.4,0,0.6-0.3,0.6-0.7c0-0.7-0.8-1.3-1.8-1.3
	c-1.4,0-2.6,1.2-2.6,2.7c0,1.4,1.2,2.7,2.5,2.7c1,0,1.7-0.6,2.1-1.8H149.6z M142.6,31.2l-1.3,1.9l0.1,0.1l2.2-1.8
	c0,0,0.1-0.1,0.1-0.1c0-0.1,0-0.1-0.1-0.1H142.6z M144,34.3h0.5v-0.3h-1.9v0.3h1l-1.2,3.3l-1.4-3.3h0.9v-0.3h-2.8v0.3h0.6l2.2,4.9
	l-0.7,1.9c-0.2,0.6-0.3,0.7-0.4,0.7c-0.1,0-0.1,0-0.2-0.1c-0.1-0.2-0.3-0.3-0.5-0.3c-0.4,0-0.6,0.3-0.6,0.6c0,0.4,0.3,0.6,0.7,0.6
	c0.6,0,1-0.4,1.3-1.4L144,34.3z M138.3,34.3h0.5v-0.3h-1.9v0.3h1l-1.3,3.5l-1.4-3.5h0.9v-0.3h-2.8v0.3h0.5l2,5h0.5L138.3,34.3z
	 M127.4,31.2l-1.3,1.9l0.1,0.1l2.2-1.8c0,0,0.1-0.1,0.1-0.1c0-0.1,0-0.1-0.1-0.1H127.4z M125.7,36v-0.3c0-0.7,0.1-0.9,0.2-1.1
	c0.2-0.2,0.5-0.3,0.8-0.3c0.4,0,0.7,0.2,0.8,0.5c0.1,0.2,0.1,0.3,0.1,1.2H125.7z M129,36.2c0-0.5-0.1-0.9-0.3-1.2
	c-0.4-0.7-1.1-1.1-1.9-1.1c-1.3,0-2.4,1.2-2.4,2.7c0,1.4,1.2,2.7,2.5,2.7c1,0,1.9-0.8,2.1-1.8h-0.3c-0.2,1-0.9,1.6-1.7,1.6
	c-0.5,0-0.9-0.2-1.1-0.6c-0.1-0.3-0.2-0.6-0.2-1.8v-0.4H129z M120.5,35.9l1.6-1.6h0.9v-0.3h-2.6v0.3h1.3l-2.2,2.1l1.9,2.5h-0.7v0.3
	h2.8v-0.3h-0.6L120.5,35.9z M119.4,30.5h-2v0.3h0.9v8.2h-0.9v0.3h2.9v-0.3h-0.9V30.5z M116.2,37.5c-0.3,1-0.9,1.5-1.7,1.5
	c-0.4,0-0.7-0.1-0.9-0.4c-0.2-0.3-0.3-0.7-0.3-1.6c0-1.1,0.1-1.9,0.3-2.2c0.2-0.3,0.5-0.5,1-0.5c0.4,0,0.9,0.2,0.9,0.4
	c0,0,0,0.1-0.1,0.1c-0.2,0.2-0.3,0.4-0.3,0.6c0,0.4,0.2,0.6,0.6,0.6c0.4,0,0.6-0.3,0.6-0.7c0-0.7-0.8-1.3-1.8-1.3
	c-1.4,0-2.6,1.2-2.6,2.7c0,1.4,1.2,2.7,2.5,2.7c1,0,1.7-0.6,2.1-1.8H116.2z M109.3,30.7c-0.4,0-0.7,0.3-0.7,0.7
	c0,0.4,0.3,0.7,0.7,0.7c0.4,0,0.7-0.3,0.7-0.7C110,31,109.7,30.7,109.3,30.7 M108.8,38.9h-0.9v0.3h2.9v-0.3h-0.9v-4.9h-2v0.3h0.9
	V38.9z M101.5,38.9h-0.9v0.3h2.8v-0.3h-0.8v-1.5c0-1.6,0.1-2.2,0.3-2.5c0.2-0.3,0.6-0.5,1-0.5c0.3,0,0.5,0.1,0.7,0.3
	c0.2,0.2,0.2,0.7,0.2,2.3v2h-0.8v0.3h2.8v-0.3H106V36c0-1-0.1-1.3-0.4-1.6c-0.3-0.3-0.8-0.5-1.3-0.5c-0.7,0-1.2,0.3-1.6,0.8v-0.7h-2
	v0.3h0.9V38.9z M94.1,38.9h-0.9v0.3H96v-0.3h-0.8V37c0-1,0.1-1.4,0.2-1.8c0.2-0.6,0.8-0.9,1.3-0.9c0.3,0,0.6,0.1,0.7,0.3
	c0.1,0.2,0.1,0.3,0.1,1.2v3.1h-0.8v0.3h2.8v-0.3h-0.9v-3.1c0-0.9,0-1.1-0.3-1.4c-0.3-0.3-0.8-0.5-1.3-0.5c-0.9,0-1.5,0.3-1.9,1.1
	v-4.5h-2v0.3h0.9V38.9z M92.1,37.5c-0.3,1-0.9,1.5-1.7,1.5c-0.4,0-0.7-0.1-0.9-0.4c-0.2-0.3-0.3-0.7-0.3-1.6c0-1.1,0.1-1.9,0.3-2.2
	c0.2-0.3,0.5-0.5,1-0.5c0.4,0,0.9,0.2,0.9,0.4c0,0,0,0.1-0.1,0.1c-0.2,0.2-0.3,0.4-0.3,0.6c0,0.4,0.2,0.6,0.6,0.6
	c0.4,0,0.6-0.3,0.6-0.7c0-0.7-0.8-1.3-1.8-1.3c-1.4,0-2.6,1.2-2.6,2.7c0,1.4,1.2,2.7,2.5,2.7c1,0,1.7-0.6,2.1-1.8H92.1z M83.2,36
	v-0.3c0-0.7,0.1-0.9,0.2-1.1c0.2-0.2,0.5-0.3,0.8-0.3c0.4,0,0.7,0.2,0.8,0.5c0.1,0.2,0.1,0.3,0.1,1.2H83.2z M86.6,36.2
	c0-0.5-0.1-0.9-0.3-1.2c-0.4-0.7-1.1-1.1-1.9-1.1c-1.3,0-2.4,1.2-2.4,2.7c0,1.4,1.2,2.7,2.5,2.7c1,0,1.9-0.8,2.1-1.8h-0.3
	c-0.2,1-0.9,1.6-1.7,1.6c-0.5,0-0.9-0.2-1.1-0.6c-0.1-0.3-0.2-0.6-0.2-1.8v-0.4H86.6z M79.5,32.1h-0.2c-0.3,0.9-0.9,1.6-1.8,2.1v0.2
	h0.8v3.3c0,0.8,0,1,0.3,1.2c0.2,0.3,0.6,0.5,1.1,0.5c0.8,0,1.2-0.4,1.4-1.1h-0.3c-0.1,0.5-0.3,0.7-0.7,0.7c-0.2,0-0.4-0.1-0.5-0.2
	c-0.1-0.1-0.1-0.3-0.1-0.6v-3.7h1.3v-0.3h-1.3V32.1z M70.9,36.9c0,0.7-0.1,1.1-0.2,1.3c-0.2,0.4-0.5,0.6-0.9,0.6
	c-0.5,0-0.8-0.3-0.8-0.9c0-0.4,0.2-0.8,0.6-1c0.3-0.2,0.6-0.3,1.3-0.3V36.9z M72.8,38.7c-0.2,0.2-0.3,0.2-0.4,0.2
	c-0.1,0-0.2,0-0.2-0.2c-0.1-0.1-0.1-0.1-0.1-1.4V36c0-1.1,0-1.2-0.3-1.5c-0.3-0.3-0.9-0.5-1.5-0.5c-1.1,0-2,0.6-2,1.3
	c0,0.3,0.2,0.6,0.6,0.6c0.3,0,0.5-0.2,0.5-0.6c0-0.1,0-0.2-0.2-0.4c-0.1-0.1-0.1-0.1-0.1-0.1c0-0.2,0.5-0.5,1-0.5
	c0.3,0,0.6,0.1,0.7,0.3c0.1,0.2,0.2,0.3,0.2,1v0.9c-0.9,0-1.4,0.1-1.9,0.3c-0.8,0.3-1.2,0.8-1.2,1.5c0,0.7,0.6,1.2,1.4,1.2
	c0.7,0,1.3-0.4,1.7-1c0.1,0.7,0.5,1,1.1,1c0.3,0,0.6-0.1,0.9-0.4L72.8,38.7z"/>
<path d="M251.4,18.2l-1.3,1.9l0.1,0.1l2.2-1.8c0,0,0.1-0.1,0.1-0.1c0-0.1,0-0.1-0.1-0.1H251.4z M250.3,25.9h-0.9v0.3h2.9v-0.3h-0.9
	v-4.9h-2v0.3h0.9V25.9z M246.9,17.7c-0.4,0-0.7,0.3-0.7,0.7c0,0.4,0.3,0.7,0.7,0.7c0.4,0,0.7-0.3,0.7-0.7
	C247.6,18,247.3,17.7,246.9,17.7 M246.3,25.9h-0.9v0.3h2.9v-0.3h-0.9v-4.9h-2v0.3h0.9V25.9z M243.3,27c0.5,0,0.7,0.1,0.7,0.5
	c0,1-1,1.8-2.3,1.8c-0.9,0-1.6-0.6-1.6-1.4c0-0.4,0.1-0.7,0.4-1c0,0,0,0,0.1-0.1c0.3,0,0.4,0,0.7,0L243.3,27z M241.7,21.2
	c0.4,0,0.6,0.1,0.7,0.3c0.1,0.2,0.1,0.4,0.1,1.2c0,0.8,0,1.2-0.2,1.4c-0.1,0.2-0.4,0.3-0.7,0.3c-0.6,0-0.8-0.3-0.8-1.2
	c0-0.9,0-1.3,0.1-1.5C241.1,21.3,241.4,21.2,241.7,21.2L241.7,21.2z M242.5,25.9c-0.4,0-0.7,0-0.7,0c-0.9,0-0.9,0-1,0
	c-0.4,0-0.5,0-0.7-0.1c-0.1-0.1-0.2-0.2-0.2-0.4c0-0.3,0.3-0.7,0.9-1.1c0.4,0.2,0.6,0.2,1,0.2c1.2,0,2.1-0.7,2.1-1.8
	c0-0.4-0.1-0.8-0.4-1.2c0.2-0.2,0.2-0.2,0.3-0.2c0.1,0,0.1,0.1,0.1,0.2c0.1,0.3,0.2,0.4,0.4,0.4c0.3,0,0.5-0.2,0.5-0.5
	c0-0.4-0.2-0.6-0.6-0.6c-0.3,0-0.6,0.2-0.9,0.5c-0.4-0.4-0.9-0.5-1.5-0.5c-1.2,0-2.1,0.8-2.1,1.8c0,0.6,0.2,1,0.8,1.5
	c-0.8,0.5-1.1,1-1.1,1.6c0,0.6,0.4,1,1,1.1c-0.6,0.2-1,0.6-1,1.1c0,0.9,1.1,1.6,2.3,1.6c1.6,0,2.7-1,2.7-2.4c0-0.5-0.2-0.9-0.5-1.2
	c-0.3-0.2-0.5-0.2-1.1-0.2H242.5z M235.5,21.2c0.5,0,0.8,0.1,1.1,0.5c0.2,0.3,0.2,0.5,0.2,2c0,1.3,0,1.6-0.1,1.8
	c-0.2,0.4-0.6,0.6-1.1,0.6c-0.5,0-0.8-0.1-1-0.5c-0.2-0.3-0.2-0.5-0.2-1.9c0-1.4,0-1.6,0.1-1.8C234.6,21.4,235,21.2,235.5,21.2
	 M235.5,20.9c-1.4,0-2.6,1.2-2.6,2.7c0,1.5,1.2,2.7,2.6,2.7c1.4,0,2.6-1.2,2.6-2.7C238.1,22.1,237,20.9,235.5,20.9 M229.8,25.9h-0.9
	v0.3h2.9v-0.3h-0.9v-8.4h-2v0.3h0.9V25.9z M225.2,21.2c0.5,0,0.8,0.1,1.1,0.5c0.2,0.3,0.2,0.5,0.2,2c0,1.3,0,1.6-0.1,1.8
	c-0.2,0.4-0.6,0.6-1.1,0.6c-0.5,0-0.8-0.1-1-0.5c-0.2-0.3-0.2-0.5-0.2-1.9c0-1.4,0-1.6,0.1-1.8C224.3,21.4,224.6,21.2,225.2,21.2
	 M225.2,20.9c-1.4,0-2.6,1.2-2.6,2.7c0,1.5,1.2,2.7,2.6,2.7c1.4,0,2.6-1.2,2.6-2.7C227.8,22.1,226.7,20.9,225.2,20.9 M216.1,25.9
	h-0.9v0.3h2.8v-0.3h-0.8v-1.6c0-1.6,0.1-2.2,0.3-2.5c0.2-0.3,0.6-0.5,1-0.5c0.3,0,0.5,0.1,0.7,0.3c0.2,0.2,0.2,0.7,0.2,2.3v2h-0.8
	v0.3h2.8v-0.3h-0.9V23c0-1-0.1-1.3-0.4-1.6c-0.3-0.3-0.8-0.5-1.3-0.5c-0.7,0-1.2,0.3-1.6,0.8v-0.7h-2v0.3h0.9V25.9z M208.7,25.9
	h-0.9v0.3h2.8v-0.3h-0.8V24c0-1,0.1-1.4,0.2-1.8c0.2-0.6,0.8-0.9,1.3-0.9c0.3,0,0.6,0.1,0.7,0.3c0.1,0.2,0.1,0.3,0.1,1.2v3.1h-0.8
	v0.3h2.8v-0.3h-0.9v-3.1c0-0.9,0-1.1-0.3-1.4c-0.3-0.3-0.8-0.5-1.3-0.5c-0.9,0-1.5,0.3-1.9,1.1v-4.5h-2v0.3h0.9V25.9z M206.7,24.5
	c-0.3,1-0.9,1.5-1.7,1.5c-0.4,0-0.7-0.1-0.9-0.4c-0.2-0.3-0.3-0.7-0.3-1.6c0-1.1,0.1-1.9,0.3-2.2c0.2-0.3,0.5-0.5,1-0.5
	c0.4,0,0.9,0.2,0.9,0.4c0,0,0,0.1-0.1,0.1c-0.2,0.2-0.3,0.4-0.3,0.6c0,0.4,0.2,0.6,0.6,0.6c0.4,0,0.6-0.3,0.6-0.7
	c0-0.7-0.8-1.3-1.8-1.3c-1.4,0-2.6,1.2-2.6,2.7c0,1.4,1.2,2.7,2.5,2.7c1,0,1.7-0.6,2.1-1.8H206.7z M197.8,22.9v-0.3
	c0-0.7,0.1-0.9,0.2-1.1c0.2-0.2,0.5-0.3,0.8-0.3c0.4,0,0.7,0.2,0.8,0.5c0.1,0.2,0.1,0.3,0.1,1.2H197.8z M201.2,23.2
	c0-0.5-0.1-0.9-0.3-1.2c-0.4-0.7-1.1-1.1-1.9-1.1c-1.3,0-2.4,1.2-2.4,2.7c0,1.4,1.2,2.7,2.5,2.7c1,0,1.9-0.8,2.1-1.8h-0.3
	c-0.2,1-0.9,1.6-1.7,1.6c-0.5,0-0.9-0.2-1.1-0.6c-0.1-0.3-0.2-0.6-0.2-1.8v-0.4H201.2z M194.1,19.1h-0.2c-0.3,0.9-0.9,1.6-1.8,2.1
	v0.2h0.8v3.3c0,0.8,0,1,0.3,1.2c0.2,0.3,0.6,0.5,1.1,0.5c0.8,0,1.2-0.4,1.4-1.1h-0.3c-0.1,0.5-0.3,0.7-0.7,0.7
	c-0.2,0-0.4-0.1-0.5-0.2c-0.1-0.1-0.1-0.3-0.1-0.6v-3.7h1.3v-0.3h-1.3V19.1z M182,25.9h-0.9v0.3h2.8v-0.3h-0.8V24
	c0-1,0.1-1.4,0.2-1.8c0.2-0.6,0.8-0.9,1.3-0.9c0.3,0,0.6,0.1,0.7,0.3c0.1,0.2,0.1,0.3,0.1,1.2v3.1h-0.8v0.3h2.8v-0.3h-0.9v-3.1
	c0-0.9,0-1.1-0.3-1.4c-0.3-0.3-0.8-0.5-1.3-0.5c-0.9,0-1.5,0.3-1.9,1.1v-4.5h-2v0.3h0.9V25.9z M180,24.5c-0.3,1-0.9,1.5-1.7,1.5
	c-0.4,0-0.7-0.1-0.9-0.4c-0.2-0.3-0.3-0.7-0.3-1.6c0-1.1,0.1-1.9,0.3-2.2c0.2-0.3,0.5-0.5,1-0.5c0.4,0,0.9,0.2,0.9,0.4
	c0,0,0,0.1-0.1,0.1c-0.2,0.2-0.3,0.4-0.3,0.6c0,0.4,0.2,0.6,0.6,0.6c0.4,0,0.6-0.3,0.6-0.7c0-0.7-0.8-1.3-1.8-1.3
	c-1.4,0-2.6,1.2-2.6,2.7c0,1.4,1.2,2.7,2.5,2.7c1,0,1.7-0.6,2.1-1.8H180z M173.7,18.2l-1.3,1.9l0.1,0.1l2.2-1.8c0,0,0.1-0.1,0.1-0.1
	c0-0.1,0-0.1-0.1-0.1H173.7z M172.6,25.9h-0.9v0.3h2.9v-0.3h-0.9v-4.9h-2v0.3h0.9V25.9z M165.3,25.9h-0.9v0.3h2.8v-0.3h-0.8v-1.6
	c0-1.6,0.1-2.2,0.3-2.5c0.2-0.3,0.6-0.5,1-0.5c0.3,0,0.5,0.1,0.7,0.3c0.2,0.2,0.2,0.7,0.2,2.3v2h-0.8v0.3h2.8v-0.3h-0.9V23
	c0-1-0.1-1.3-0.4-1.6c-0.3-0.3-0.8-0.5-1.3-0.5c-0.7,0-1.2,0.3-1.6,0.8v-0.7h-2v0.3h0.9V25.9z M161.4,19.1l-1.8-1l-0.1,0.1l1.9,1.9
	l1.9-1.9l-0.1-0.1L161.4,19.1z M163.1,24.5c-0.3,1-0.9,1.5-1.7,1.5c-0.4,0-0.7-0.1-0.9-0.4c-0.2-0.3-0.3-0.7-0.3-1.6
	c0-1.1,0.1-1.9,0.3-2.2c0.2-0.3,0.5-0.5,1-0.5c0.4,0,0.9,0.2,0.9,0.4c0,0,0,0.1-0.1,0.1c-0.2,0.2-0.3,0.4-0.3,0.6
	c0,0.4,0.2,0.6,0.6,0.6c0.4,0,0.6-0.3,0.6-0.7c0-0.7-0.8-1.3-1.8-1.3c-1.4,0-2.6,1.2-2.6,2.7c0,1.4,1.2,2.7,2.5,2.7
	c1,0,1.7-0.6,2.1-1.8H163.1z M155.8,23.8c0,0.7-0.1,1.1-0.2,1.3c-0.2,0.4-0.5,0.6-0.9,0.6c-0.5,0-0.8-0.3-0.8-0.9
	c0-0.4,0.2-0.8,0.6-1c0.3-0.2,0.6-0.3,1.3-0.3V23.8z M157.6,25.7c-0.2,0.2-0.3,0.2-0.4,0.2c-0.1,0-0.2,0-0.2-0.2
	c-0.1-0.1-0.1-0.1-0.1-1.4V23c0-1.1,0-1.2-0.3-1.5c-0.3-0.3-0.9-0.5-1.5-0.5c-1.1,0-2,0.6-2,1.3c0,0.3,0.2,0.6,0.6,0.6
	c0.3,0,0.5-0.2,0.5-0.6c0-0.1,0-0.2-0.2-0.4c-0.1-0.1-0.1-0.1-0.1-0.1c0-0.2,0.5-0.5,1-0.5c0.3,0,0.6,0.1,0.7,0.3
	c0.1,0.2,0.2,0.3,0.2,1v0.9c-0.9,0-1.4,0.1-1.9,0.3c-0.8,0.3-1.2,0.8-1.2,1.5c0,0.7,0.6,1.2,1.4,1.2c0.7,0,1.3-0.4,1.7-1
	c0.1,0.7,0.5,1,1.1,1c0.3,0,0.6-0.1,0.9-0.4L157.6,25.7z M143.1,25.9h-0.9v0.3h2.8v-0.3h-0.8v-1.4c0-1.5,0.1-2.2,0.2-2.5
	c0.2-0.4,0.6-0.6,1.1-0.6c0.2,0,0.5,0.1,0.6,0.3c0.1,0.2,0.1,0.4,0.1,1.1v3.2h-0.8v0.3h2.7v-0.3h-0.8v-1.4c0-2,0-2.1,0.2-2.5
	c0.2-0.4,0.6-0.7,1.1-0.7c0.2,0,0.4,0.1,0.5,0.2c0.2,0.2,0.2,0.3,0.2,1.2v3.2h-0.8v0.3h2.8v-0.3h-0.9v-3.2c0-0.7-0.1-1-0.3-1.3
	c-0.2-0.3-0.7-0.5-1.2-0.5c-0.8,0-1.4,0.3-1.8,0.9c-0.1-0.3-0.2-0.4-0.4-0.5c-0.3-0.2-0.6-0.3-1.1-0.3c-0.7,0-1.2,0.2-1.7,0.8v-0.6
	h-2v0.3h0.9V25.9z M137.8,25.9h-0.9v0.3h2.9v-0.3h-0.9v-1.2c0-1.5,0.1-2.3,0.5-2.9c0.1-0.2,0.3-0.3,0.4-0.3c0.1,0,0.1,0.1,0.1,0.2
	c0,0.3,0,0.3,0.1,0.4c0.1,0.2,0.3,0.4,0.5,0.4c0.4,0,0.6-0.3,0.6-0.7c0-0.4-0.3-0.8-0.8-0.8c-0.6,0-1.1,0.4-1.4,1.4v-1.2h-2v0.3h0.9
	V25.9z M133,21.2c0.5,0,0.8,0.1,1.1,0.5c0.2,0.3,0.2,0.5,0.2,2c0,1.3,0,1.6-0.1,1.8c-0.2,0.4-0.6,0.6-1.1,0.6c-0.5,0-0.8-0.1-1-0.5
	c-0.2-0.3-0.2-0.5-0.2-1.9c0-1.4,0-1.6,0.1-1.8C132.1,21.4,132.5,21.2,133,21.2 M133,20.9c-1.4,0-2.6,1.2-2.6,2.7
	c0,1.5,1.2,2.7,2.6,2.7c1.4,0,2.6-1.2,2.6-2.7C135.7,22.1,134.5,20.9,133,20.9 M128.4,21.3h1.2v-0.3h-1.2v-1.8c0-1,0-1.1,0.1-1.3
	c0.1-0.2,0.3-0.4,0.6-0.4c0.1,0,0.3,0,0.4,0.1c-0.2,0.2-0.2,0.4-0.2,0.5c0,0.3,0.2,0.6,0.5,0.6c0.3,0,0.5-0.3,0.5-0.6
	c0-0.5-0.5-0.9-1.1-0.9c-0.5,0-1,0.3-1.4,0.7c-0.4,0.5-0.5,1-0.5,1.9v1.1h-0.9v0.3h0.9v4.6h-0.9v0.3h3.1v-0.3h-1.1V21.3z
	 M119.9,25.9h-0.9v0.3h2.8v-0.3h-0.8v-1.6c0-1.6,0.1-2.2,0.3-2.5c0.2-0.3,0.6-0.5,1-0.5c0.3,0,0.5,0.1,0.7,0.3
	c0.2,0.2,0.2,0.7,0.2,2.3v2h-0.8v0.3h2.8v-0.3h-0.9V23c0-1-0.1-1.3-0.4-1.6c-0.3-0.3-0.8-0.5-1.3-0.5c-0.7,0-1.2,0.3-1.6,0.8v-0.7
	h-2v0.3h0.9V25.9z M116.6,17.7c-0.4,0-0.7,0.3-0.7,0.7c0,0.4,0.3,0.7,0.7,0.7c0.4,0,0.7-0.3,0.7-0.7C117.3,18,117,17.7,116.6,17.7
	 M116,25.9h-0.9v0.3h2.9v-0.3h-0.9v-4.9h-2v0.3h0.9V25.9z M108.5,23.8c0,0.7-0.1,1.1-0.2,1.3c-0.2,0.4-0.5,0.6-0.9,0.6
	c-0.5,0-0.8-0.3-0.8-0.9c0-0.4,0.2-0.8,0.6-1c0.3-0.2,0.6-0.3,1.3-0.3V23.8z M110.4,25.7c-0.2,0.2-0.3,0.2-0.4,0.2
	c-0.1,0-0.2,0-0.2-0.2c-0.1-0.1-0.1-0.1-0.1-1.4V23c0-1.1,0-1.2-0.3-1.5c-0.3-0.3-0.9-0.5-1.5-0.5c-1.1,0-2,0.6-2,1.3
	c0,0.3,0.2,0.6,0.6,0.6c0.3,0,0.5-0.2,0.5-0.6c0-0.1,0-0.2-0.2-0.4c-0.1-0.1-0.1-0.1-0.1-0.1c0-0.2,0.5-0.5,1-0.5
	c0.3,0,0.6,0.1,0.7,0.3c0.1,0.2,0.2,0.3,0.2,1v0.9c-0.9,0-1.4,0.1-1.9,0.3c-0.8,0.3-1.2,0.8-1.2,1.5c0,0.7,0.6,1.2,1.4,1.2
	c0.7,0,1.3-0.4,1.7-1c0.1,0.7,0.5,1,1.1,1c0.3,0,0.6-0.1,0.9-0.4L110.4,25.7z M101,25.9h-0.9v0.3h2.9v-0.3h-0.9v-1.2
	c0-1.5,0.1-2.3,0.5-2.9c0.1-0.2,0.3-0.3,0.4-0.3c0.1,0,0.1,0.1,0.1,0.2c0,0.3,0,0.3,0.1,0.4c0.1,0.2,0.3,0.4,0.5,0.4
	c0.4,0,0.6-0.3,0.6-0.7c0-0.4-0.3-0.8-0.8-0.8c-0.6,0-1.1,0.4-1.4,1.4v-1.2h-2v0.3h0.9V25.9z M95.6,21.2c0.8,0,1.4,1,1.4,2.4
	c0,1.4-0.6,2.4-1.4,2.4c-0.3,0-0.6-0.2-0.8-0.5c-0.1-0.3-0.2-0.5-0.2-1.7c0-1.4,0.1-1.9,0.2-2.1C95,21.4,95.3,21.2,95.6,21.2
	 M98.1,17.5h-2v0.3H97V22c-0.4-0.7-0.9-1.1-1.6-1.1c-1.2,0-2.2,1.2-2.2,2.7c0,1.5,1,2.7,2.2,2.7c0.7,0,1.2-0.4,1.5-1.1v1h2v-0.3
	h-0.9V17.5z M88.7,22.9v-0.3c0-0.7,0.1-0.9,0.2-1.1c0.2-0.2,0.5-0.3,0.8-0.3c0.4,0,0.7,0.2,0.8,0.5c0.1,0.2,0.1,0.3,0.1,1.2H88.7z
	 M92.1,23.2c0-0.5-0.1-0.9-0.3-1.2c-0.4-0.7-1.1-1.1-1.9-1.1c-1.3,0-2.4,1.2-2.4,2.7c0,1.4,1.2,2.7,2.5,2.7c1,0,1.9-0.8,2.1-1.8
	h-0.3c-0.2,1-0.9,1.6-1.7,1.6c-0.5,0-0.9-0.2-1.1-0.6c-0.1-0.3-0.2-0.6-0.2-1.8v-0.4H92.1z M84.8,19.1h-0.2
	c-0.3,0.9-0.9,1.6-1.8,2.1v0.2h0.8v3.3c0,0.8,0,1,0.3,1.2c0.2,0.3,0.6,0.5,1.1,0.5c0.8,0,1.2-0.4,1.4-1.1h-0.3
	c-0.1,0.5-0.3,0.7-0.7,0.7c-0.2,0-0.4-0.1-0.5-0.2c-0.1-0.1-0.1-0.3-0.1-0.6v-3.7h1.3v-0.3h-1.3V19.1z M79.8,23.8
	c0,0.7-0.1,1.1-0.2,1.3c-0.2,0.4-0.5,0.6-0.9,0.6c-0.5,0-0.8-0.3-0.8-0.9c0-0.4,0.2-0.8,0.6-1c0.3-0.2,0.6-0.3,1.3-0.3V23.8z
	 M81.7,25.7c-0.2,0.2-0.3,0.2-0.4,0.2c-0.1,0-0.2,0-0.2-0.2C81,25.7,81,25.7,81,24.4V23c0-1.1,0-1.2-0.3-1.5
	c-0.3-0.3-0.9-0.5-1.5-0.5c-1.1,0-2,0.6-2,1.3c0,0.3,0.2,0.6,0.6,0.6c0.3,0,0.5-0.2,0.5-0.6c0-0.1,0-0.2-0.2-0.4
	C78,21.8,78,21.8,78,21.7c0-0.2,0.5-0.5,1-0.5c0.3,0,0.6,0.1,0.7,0.3c0.1,0.2,0.2,0.3,0.2,1v0.9c-0.9,0-1.4,0.1-1.9,0.3
	c-0.8,0.3-1.2,0.8-1.2,1.5c0,0.7,0.6,1.2,1.4,1.2c0.7,0,1.3-0.4,1.7-1c0.1,0.7,0.5,1,1.1,1c0.3,0,0.6-0.1,0.9-0.4L81.7,25.7z
	 M71.5,20.9l2.8-3.1h1.1v-0.3h-2.8v0.3h1.3l-3.5,3.9l3.2,4.3h-1.1v0.3h3.4v-0.3h-0.6L71.5,20.9z M68.9,25.9h-1.1v0.3h3.6v-0.3h-1.1
	v-8.2h1.1v-0.3h-3.6v0.3h1.1V25.9z"/>
<path d="M229.3,10.1h-2.4l1.2-3.6L229.3,10.1z M229.4,10.4l0.8,2.5h-1.1v0.3h3.5v-0.3h-0.9l-2.8-8.4h-0.4l-2.9,8.4h-0.6v0.3h2.1
	v-0.3h-1.1l0.8-2.5H229.4z M219.2,12.9H218v0.3h3.9v-0.3h-1.2V4.7h0.4c0.9,0,1.1,0.1,1.5,0.5c0.4,0.5,0.6,1,0.8,1.9h0.2l-0.1-2.7
	h-7.1l-0.1,2.7h0.2c0.2-0.9,0.4-1.4,0.8-1.9c0.4-0.5,0.6-0.5,1.5-0.5h0.4V12.9z M209.1,12.9H208v0.3h6.5l0.2-2.7h-0.2
	c-0.2,1-0.4,1.6-0.8,1.9c-0.3,0.4-0.7,0.5-1.7,0.5h-1.5V4.7h1.1V4.5H208v0.3h1.1V12.9z M204.6,4.7v5c0,1.4,0,1.7-0.3,2.2
	c-0.3,0.7-0.9,1.1-1.8,1.1c-0.7,0-1.3-0.3-1.6-0.7c-0.3-0.5-0.4-0.7-0.4-2.5v-5h1.1V4.5h-3.6v0.3h1.1v5c0,1.7,0.1,2.2,0.7,2.8
	c0.5,0.5,1.4,0.8,2.4,0.8c1,0,1.8-0.3,2.2-0.9c0.4-0.6,0.5-1,0.5-2.7v-5h1.1V4.5h-2.5v0.3H204.6z M192.2,7.9l2.8-3.1h1.1V4.5h-2.8
	v0.3h1.3l-3.5,3.9l3.2,4.3h-1.1v0.3h3.4v-0.3H196L192.2,7.9z M189.6,12.9h-1.1v0.3h3.6v-0.3H191V4.7h1.1V4.5h-3.6v0.3h1.1V12.9z
	 M183.3,10.1h-2.4l1.2-3.6L183.3,10.1z M183.4,10.4l0.8,2.5h-1.1v0.3h3.5v-0.3h-0.9l-2.8-8.4h-0.4l-2.9,8.4h-0.6v0.3h2.1v-0.3h-1.1
	l0.8-2.5H183.4z M172.4,12.9h-1.1v0.3h3.6v-0.3h-1.1v-4h0.4c0.8,0,1.1,0.1,1.3,0.5c0.1,0.3,0.2,0.4,0.2,1.2h0.2V7h-0.2
	c0,1.4-0.3,1.6-1.9,1.6V4.7h0.8c1.1,0,1.1,0,1.4,0c0.4,0.1,0.6,0.2,0.9,0.5c0.3,0.4,0.5,0.8,0.7,1.6h0.2l-0.2-2.4h-6.2v0.3h1.1V12.9
	z M162.1,2.3l-1.8,1.4l0.1,0.2l3-1.2c0.1-0.1,0.2-0.1,0.2-0.2c0-0.1-0.1-0.1-0.2-0.1H162.1z M161.8,10.1h-2.4l1.2-3.6L161.8,10.1z
	 M161.9,10.4l0.8,2.5h-1.1v0.3h3.5v-0.3h-0.9l-2.8-8.4H161l-2.9,8.4h-0.6v0.3h2.1v-0.3h-1.1l0.8-2.5H161.9z M151.8,7.9l2.8-3.1h1.1
	V4.5h-2.8v0.3h1.3l-3.5,3.9l3.2,4.3h-1.1v0.3h3.4v-0.3h-0.6L151.8,7.9z M149.1,12.9H148v0.3h3.6v-0.3h-1.1V4.7h1.1V4.5H148v0.3h1.1
	V12.9z M145.8,10.7h-0.2c-0.5,1.5-1.4,2.3-2.5,2.3c-0.7,0-1.4-0.3-1.7-0.8c-0.3-0.5-0.4-1.2-0.4-3c0-1.9,0.1-3,0.4-3.5
	c0.3-0.6,1-1,1.8-1c1.2,0,2.1,0.8,2.4,2.1h0.2V4.5h-0.2l-0.4,0.6c-0.6-0.5-1.3-0.7-2-0.7c-0.7,0-1.5,0.3-2.2,0.8
	c-1,0.8-1.6,2.2-1.6,3.7c0,2.4,1.7,4.5,3.7,4.5c0.7,0,1.4-0.2,2.1-0.8l0.4,0.6h0.2V10.7z M134.7,12.9h-1.1v0.3h3.6v-0.3H136V4.7h1.1
	V4.5h-3.6v0.3h1.1V12.9z M130.6,4.5h-0.2L130,5c-0.7-0.4-1.3-0.6-1.9-0.6c-2.1,0-3.8,2-3.8,4.5c0,2.4,1.7,4.5,3.7,4.5
	c1.1,0,2.2-0.6,2.7-1.4c0.2-0.4,0.4-0.8,0.4-1.5h0.8v-0.3h-3.7v0.3h1.3c0,0.8-0.1,1.2-0.2,1.5c-0.2,0.7-0.8,1.1-1.5,1.1
	c-0.7,0-1.3-0.4-1.6-1c-0.2-0.5-0.3-1.5-0.3-3.2c0-1.8,0.2-2.9,0.5-3.4c0.3-0.5,0.9-0.8,1.6-0.8c0.6,0,1.1,0.2,1.5,0.6
	c0.5,0.5,0.7,0.9,0.9,1.8h0.2L130.6,4.5z M118.1,4.6c0.7,0,1.3,0.3,1.6,0.8c0.4,0.5,0.5,1.4,0.5,3.5c0,1.8-0.1,2.7-0.4,3.2
	c-0.3,0.6-1,0.9-1.7,0.9c-0.7,0-1.3-0.3-1.6-0.8c-0.4-0.5-0.5-1.4-0.5-3.4c0-1.8,0.1-2.8,0.4-3.3C116.7,5,117.3,4.6,118.1,4.6
	 M118.1,4.3c-2,0-3.8,2.1-3.8,4.5c0,2.4,1.7,4.5,3.8,4.5c0.9,0,1.8-0.4,2.5-1.2c0.8-0.9,1.3-2.1,1.3-3.3
	C121.9,6.4,120.1,4.3,118.1,4.3 M111.2,4.5H111L110.6,5c-0.7-0.4-1.3-0.6-1.9-0.6c-2.1,0-3.8,2-3.8,4.5c0,2.4,1.7,4.5,3.7,4.5
	c1.1,0,2.2-0.6,2.7-1.4c0.2-0.4,0.4-0.8,0.4-1.5h0.8v-0.3h-3.7v0.3h1.3c0,0.8-0.1,1.2-0.2,1.5c-0.2,0.7-0.8,1.1-1.5,1.1
	c-0.7,0-1.3-0.4-1.6-1c-0.2-0.5-0.3-1.5-0.3-3.2c0-1.8,0.2-2.9,0.5-3.4c0.3-0.5,0.9-0.8,1.6-0.8c0.6,0,1.1,0.2,1.5,0.6
	c0.5,0.5,0.7,0.9,0.9,1.8h0.2L111.2,4.5z M99.8,10.1h-2.4l1.2-3.6L99.8,10.1z M99.9,10.4l0.8,2.5h-1.1v0.3h3.5v-0.3h-0.9l-2.8-8.4
	H99l-2.9,8.4h-0.6v0.3h2.1v-0.3h-1.1l0.8-2.5H99.9z M88.3,12.9V4.7h0.5c0.7,0,1,0,1.2,0c0.6,0.1,1.1,0.3,1.4,0.7
	c0.5,0.5,0.6,1.3,0.6,3.2c0,1.4-0.1,2.3-0.2,2.8c-0.2,0.6-0.6,1-1.2,1.2c-0.5,0.2-0.7,0.2-1.7,0.2H88.3z M86.9,12.9h-1.1v0.3H89
	c1.7,0,2.2-0.1,3-0.7c1.1-0.8,1.8-2.2,1.8-3.7c0-1.4-0.5-2.6-1.5-3.4c-0.8-0.7-1.5-0.9-3.4-0.9h-3v0.3h1.1V12.9z M77.7,12.9h-1.1
	v0.3h6.5l0.2-2.7h-0.2c-0.4,1.4-0.6,1.9-1.1,2.2c-0.3,0.2-0.4,0.2-1.3,0.2h-1.7v-4h0.4c0.8,0,1.1,0.1,1.3,0.5
	c0.1,0.3,0.2,0.4,0.2,1.2h0.2V7H81c0,1.4-0.3,1.6-1.9,1.6V4.7h1c0.7,0,0.8,0,1,0C81.6,4.9,82,5,82.2,5.4c0.3,0.4,0.4,0.7,0.6,1.5H83
	l-0.1-2.4h-6.2v0.3h1.1V12.9z M70.3,8.7v-4h0.9c1.6,0,1.9,0.4,1.9,2c0,0.8-0.1,1.3-0.4,1.6c-0.3,0.2-0.7,0.3-1.5,0.3H70.3z
	 M68.9,12.9h-1.1v0.3h3.6v-0.3h-1.1V9h0.9c1.3,0,1.9-0.1,2.5-0.5c0.7-0.4,1-1,1-1.7c0-1-0.6-1.7-1.7-2.1c-0.4-0.1-0.8-0.2-1.8-0.2
	h-3.3v0.3h1.1V12.9z"/>
<path class="st1" d="M53.2,14.7c-1.7,0.7-24.8,10.9-24.8,10.9V0C39,0,48.3,5.9,53.2,14.7"/>
<path class="st2" d="M53.2,14.7C52.4,15,46.7,17.5,41,20c0,0,1.2-5.2-2.4-8.8C35.4,8.1,31.7,7,28.3,7v18.5v16.9v6.8
	c2.9,0,4.9-1.3,5.5-3.5h16.8c2-2.5,3.6-5.5,4.6-8.5c0,0,1.5-3.9,1.5-9C56.7,23.4,55.4,18.7,53.2,14.7"/>
<path class="st2" d="M3.5,14.7c1.7,0.7,24.8,10.9,24.8,10.9V0C17.7,0,8.3,5.9,3.5,14.7"/>
<path class="st1" d="M22.9,45.8l-5.2,8.8c3.3,1.3,6.9,2.1,10.7,2.1v-7.4C25.4,49.3,23.4,48,22.9,45.8"/>
<path class="st2" d="M22.9,45.8L22.9,45.8L6,45.8c3,3.9,7,6.9,11.6,8.8L22.9,45.8z"/>
<path class="st3" d="M18.1,11.3c-3.5,3.6-2.4,8.8-2.4,8.8c0,0,12.6,5.6,12.6,5.6V7C25,7,21.3,8.1,18.1,11.3"/>
<path class="st1" d="M3.5,14.7C1.3,18.7,0,23.4,0,28.3c0,5.1,1.5,9,1.5,9c14.1-10.1,24.2,1.7,26.9,5.2c0,0,0,0,0,0V25.6
	C28.3,25.6,5.2,15.4,3.5,14.7"/>
<path class="st4" d="M28.3,42.5C25.7,39,15.5,27.2,1.5,37.3c1,3,2.6,6,4.6,8.5h16.8c0.6,2.2,2.6,3.5,5.5,3.5L28.3,42.5
	C28.3,42.5,28.3,42.5,28.3,42.5"/>
<path class="st2" d="M33.8,45.8l5.2,8.8c-3.3,1.3-6.9,2.1-10.7,2.1v-7.4C31.3,49.3,33.3,48,33.8,45.8"/>
<path class="st4" d="M33.8,45.8L33.8,45.8l16.8,0c-3,3.9-7,6.9-11.6,8.8L33.8,45.8z"/>
<path class="st1" d="M28.3,42.5C31,39,41.2,27.2,55.2,37.3c-1,3-2.6,6-4.6,8.5H33.8c-0.6,2.2-2.6,3.5-5.5,3.5L28.3,42.5
	C28.3,42.5,28.3,42.5,28.3,42.5"/>
<path class="st1" d="M11.3,5.7c-0.1,7.1,4.6,6.9,8.5,8.2c-0.6,0.6-0.9,1.4-0.9,2.3c0,1.8,1.5,3.3,3.3,3.3c1,0,1.8-0.4,2.4-1
	c2.7,0.9,3.4,3.3,3.7,4v-5C27.2,7.3,16.3,10.5,11.3,5.7"/>
<path class="st2" d="M21,16c0,0.7,0.5,1.4,1.3,1.4c0.7,0,1.2-0.6,1.3-1.3c-0.5-0.6-1.1-1.1-1.7-1.5C21.3,14.8,21,15.4,21,16"/>
<path class="st3" d="M45.4,5.7c0.1,7.1-4.6,6.9-8.5,8.2c0.6,0.6,0.9,1.4,0.9,2.3c0,1.8-1.5,3.3-3.3,3.3c-1,0-1.8-0.4-2.4-1
	c-2.7,0.9-3.4,3.3-3.7,4v-5C29.5,7.3,40.4,10.5,45.4,5.7"/>
<path class="st2" d="M35.7,16c0,0.7-0.5,1.4-1.3,1.4c-0.7,0-1.2-0.6-1.3-1.3c0.5-0.6,1.1-1.1,1.7-1.5C35.4,14.8,35.7,15.4,35.7,16"
	/>
</svg>
