<?xml version="1.0" encoding="utf-8"?>
<!-- Generator: Adobe Illustrator 25.0.1, SVG Export Plug-In . SVG Version: 6.00 Build 0)  -->
<svg version="1.1" id="Vrstva_1" xmlns="http://www.w3.org/2000/svg" xmlns:xlink="http://www.w3.org/1999/xlink" x="0px" y="0px"
	 viewBox="0 0 700 600" style="enable-background:new 0 0 700 600;" xml:space="preserve">
<style type="text/css">
	.st0{fill:#0B8CD3;}
	.st1{fill:#F7931E;}
	.st2{fill:#03AFFF;}
	.st3{fill:#50C9EA;}
	.st4{fill:#0BFC99;}
	.st5{fill:#006EB7;}
	.st6{fill:#F15A24;}
	.st7{fill:#69D6E8;}
	.st8{fill:none;stroke:#000000;stroke-width:2;stroke-miterlimit:10;}
</style>
<g>
	<path class="st0" d="M691.4,8v123.9H8.5V8H691.4 M700,0H-0.1v139.9H700V0L700,0z"/>
	<g>
		<path class="st1" d="M692,468.1V592H7.9V468.1H692 M700,460.1H-0.1V600H700V460.1L700,460.1z"/>
	</g>
	<path class="st2" d="M691.4,147.9v304.1H8.5V147.9H691.4 M700,139.9H-0.1v320.1H700V139.9L700,139.9z"/>
	<path class="st3" d="M171.1,155.9v288.1H15.9V155.9H171.1 M179.1,147.9H7.9v304.1h171.2V147.9L179.1,147.9z"/>
	<path class="st4" d="M682.5,155.9v288.1H188V155.9H682.5 M691.4,147.9H179.1v304.1h512.3V147.9L691.4,147.9z"/>
	<g>
		<g>
			<path class="st5" d="M267.5,31.5h7.9V52h8.5V31.5h7.9v50.4h-7.9V59.2h-8.5v22.7h-7.9V31.5z"/>
			<path class="st5" d="M297.7,31.5h21.6v7.2h-13.7V52h10.9v7.2h-10.9v15.5h13.7v7.2h-21.6V31.5z"/>
			<path class="st5" d="M329.9,31.5h10.7l8.2,50.4h-7.9l-1.4-10V72h-9l-1.4,9.9h-7.3L329.9,31.5z M338.6,65.2L335,40.3h-0.1
				l-3.5,24.9H338.6z"/>
			<path class="st5" d="M352.7,31.5h12.1c3.9,0,6.9,1.1,8.9,3.2c2,2.1,2.9,5.2,2.9,9.3v25.5c0,4.1-1,7.2-2.9,9.3
				c-2,2.1-4.9,3.2-8.9,3.2h-12.1V31.5z M364.6,74.7c1.3,0,2.3-0.4,3-1.2c0.7-0.8,1-2,1-3.7V43.6c0-1.7-0.3-3-1-3.7
				c-0.7-0.8-1.7-1.2-3-1.2h-4v36H364.6z"/>
			<path class="st5" d="M381.9,31.5h21.6v7.2h-13.7V52h10.9v7.2h-10.9v15.5h13.7v7.2h-21.6V31.5z"/>
			<path class="st5" d="M408,31.5h11.7c4.1,0,7.1,0.9,8.9,2.8c1.9,1.9,2.8,4.8,2.8,8.7v3.1c0,5.2-1.7,8.5-5.2,9.9v0.1
				c1.9,0.6,3.3,1.8,4.1,3.5c0.8,1.8,1.2,4.1,1.2,7.1v8.9c0,1.4,0,2.6,0.1,3.5c0.1,0.9,0.3,1.8,0.7,2.6h-8.1
				c-0.3-0.8-0.5-1.6-0.6-2.3c-0.1-0.7-0.1-2-0.1-3.9v-9.2c0-2.3-0.4-3.9-1.1-4.8c-0.7-0.9-2-1.4-3.8-1.4h-2.7v21.6H408V31.5z
				 M418.8,53.1c1.6,0,2.8-0.4,3.6-1.2c0.8-0.8,1.2-2.2,1.2-4.1v-3.9c0-1.8-0.3-3.1-1-4c-0.6-0.8-1.7-1.2-3.1-1.2h-3.6v14.4H418.8z"
				/>
		</g>
		<g>
			<path class="st5" d="M307.4,92.6h3.3v8.4h3.5v-8.4h3.3v20.7h-3.3V104h-3.5v9.3h-3.3V92.6z"/>
			<path class="st5" d="M319.9,92.6h3.3v17.7h5.4v3h-8.6V92.6z"/>
			<path class="st5" d="M332.7,92.6h4.4l3.4,20.7h-3.3l-0.6-4.1v0.1h-3.7l-0.6,4h-3L332.7,92.6z M336.2,106.4l-1.4-10.2h-0.1
				l-1.4,10.2H336.2z"/>
			<path class="st5" d="M340.3,92.6h3.3l2.1,16.1h0.1l2.1-16.1h3l-3.1,20.7h-4.3L340.3,92.6z"/>
			<path class="st5" d="M352.5,92.6h3.3v20.7h-3.3V92.6z"/>
			<path class="st5" d="M359.2,112.3c-0.8-0.9-1.2-2.1-1.2-3.8V97.4c0-1.6,0.4-2.9,1.2-3.8c0.8-0.9,2-1.3,3.6-1.3
				c1.6,0,2.7,0.4,3.6,1.3c0.8,0.9,1.2,2.1,1.2,3.8v2.2h-3.1v-2.4c0-1.3-0.5-1.9-1.6-1.9c-1.1,0-1.6,0.6-1.6,1.9v11.6
				c0,1.3,0.5,1.9,1.6,1.9c1.1,0,1.6-0.6,1.6-1.9v-3.2h3.1v2.9c0,1.6-0.4,2.9-1.2,3.8c-0.8,0.9-2,1.3-3.6,1.3
				C361.2,113.6,360,113.1,359.2,112.3z M358.7,87.8h2.5l1.5,1.6l1.5-1.6h2.5l-2.4,3.4h-3.1L358.7,87.8z"/>
			<path class="st5" d="M369.5,92.6h3.3v8.7l4.1-8.7h3.3l-3.9,7.6l3.9,13.1h-3.4l-2.7-9.2l-1.3,2.6v6.6h-3.3V92.6z"/>
			<path class="st5" d="M384.2,92.6h4.4l3.4,20.7h-3.3l-0.6-4.1v0.1h-3.7l-0.6,4h-3L384.2,92.6z M387.8,106.4l-1.4-10.2h-0.1
				l-1.4,10.2H387.8z"/>
		</g>
	</g>
	<g>
		<g>
			<path class="st6" d="M270.6,488.6h20.9v7.2h-13v14h10.2v7.2h-10.2v21.9h-7.9V488.6z"/>
			<path class="st6" d="M297.8,536.4c-2.1-2.2-3.1-5.3-3.1-9.4v-26.5c0-4,1-7.1,3.1-9.4c2.1-2.2,5-3.3,8.9-3.3
				c3.9,0,6.9,1.1,8.9,3.3c2.1,2.2,3.1,5.3,3.1,9.4V527c0,4-1,7.1-3.1,9.4c-2.1,2.2-5,3.3-8.9,3.3
				C302.9,539.7,299.9,538.6,297.8,536.4z M310.9,527.5V500c0-3.3-1.4-5-4.1-5s-4.1,1.7-4.1,5v27.5c0,3.3,1.4,5,4.1,5
				S310.9,530.8,310.9,527.5z"/>
			<path class="st6" d="M326.6,536.4c-2.1-2.2-3.1-5.3-3.1-9.4v-26.5c0-4,1-7.1,3.1-9.4c2.1-2.2,5-3.3,8.9-3.3
				c3.9,0,6.9,1.1,8.9,3.3c2.1,2.2,3.1,5.3,3.1,9.4V527c0,4-1,7.1-3.1,9.4c-2.1,2.2-5,3.3-8.9,3.3
				C331.7,539.7,328.7,538.6,326.6,536.4z M339.6,527.5V500c0-3.3-1.4-5-4.1-5s-4.1,1.7-4.1,5v27.5c0,3.3,1.4,5,4.1,5
				S339.6,530.8,339.6,527.5z"/>
			<path class="st6" d="M358.8,495.8h-8.3v-7.2H375v7.2h-8.3v43.2h-7.9V495.8z"/>
			<path class="st6" d="M378.8,488.6h21.6v7.2h-13.7v13.3h10.9v7.2h-10.9v15.5h13.7v7.2h-21.6V488.6z"/>
			<path class="st6" d="M404.9,488.6h11.7c4.1,0,7.1,0.9,8.9,2.8c1.9,1.9,2.8,4.8,2.8,8.7v3.1c0,5.2-1.7,8.5-5.2,9.9v0.1
				c1.9,0.6,3.3,1.8,4.1,3.5c0.8,1.8,1.2,4.1,1.2,7.1v8.9c0,1.4,0,2.6,0.1,3.5c0.1,0.9,0.3,1.8,0.7,2.6h-8.1
				c-0.3-0.8-0.5-1.6-0.6-2.3c-0.1-0.7-0.1-2-0.1-3.9v-9.2c0-2.3-0.4-3.9-1.1-4.8c-0.7-0.9-2-1.4-3.8-1.4h-2.7v21.6h-7.9V488.6z
				 M415.7,510.2c1.6,0,2.8-0.4,3.6-1.2c0.8-0.8,1.2-2.2,1.2-4.1V501c0-1.8-0.3-3.1-1-4c-0.6-0.8-1.7-1.2-3.1-1.2h-3.6v14.4H415.7z"
				/>
		</g>
		<g>
			<path class="st6" d="M314.1,549.6h4.8c1.6,0,2.8,0.4,3.6,1.3c0.8,0.9,1.2,2.1,1.2,3.8v2c0,1.7-0.4,2.9-1.2,3.8
				c-0.8,0.9-2,1.3-3.6,1.3h-1.5v8.4h-3.3V549.6z M318.9,559c0.5,0,0.9-0.1,1.2-0.4c0.3-0.3,0.4-0.8,0.4-1.5v-2.5
				c0-0.7-0.1-1.2-0.4-1.5c-0.3-0.3-0.7-0.4-1.2-0.4h-1.5v6.4H318.9z"/>
			<path class="st6" d="M327,549.6h4.4l3.4,20.7h-3.3l-0.6-4.1v0.1h-3.7l-0.6,4h-3L327,549.6z M330.6,563.5l-1.4-10.2h-0.1
				l-1.4,10.2H330.6z"/>
			<path class="st6" d="M337.6,552.6h-3.4v-3h10.1v3h-3.4v17.7h-3.3V552.6z"/>
			<path class="st6" d="M345.8,549.6h3.3v20.7h-3.3V549.6z"/>
			<path class="st6" d="M352.5,569.3c-0.8-0.9-1.2-2.1-1.2-3.8v-11.1c0-1.6,0.4-2.9,1.2-3.8c0.8-0.9,2-1.3,3.6-1.3
				c1.6,0,2.7,0.4,3.6,1.3c0.8,0.9,1.2,2.1,1.2,3.8v2.2h-3.1v-2.4c0-1.3-0.5-1.9-1.6-1.9c-1.1,0-1.6,0.6-1.6,1.9v11.6
				c0,1.3,0.5,1.9,1.6,1.9c1.1,0,1.6-0.6,1.6-1.9v-3.2h3.1v2.9c0,1.6-0.4,2.9-1.2,3.8c-0.8,0.9-2,1.3-3.6,1.3
				C354.5,570.6,353.3,570.2,352.5,569.3z M352,544.9h2.5l1.5,1.6l1.5-1.6h2.5l-2.4,3.4h-3.1L352,544.9z"/>
			<path class="st6" d="M362.8,549.6h3.3v8.7l4.1-8.7h3.3l-3.9,7.6l3.9,13.1h-3.4l-2.7-9.2l-1.3,2.6v6.6h-3.3V549.6z"/>
			<path class="st6" d="M377.5,549.6h4.4l3.4,20.7H382l-0.6-4.1v0.1h-3.7l-0.6,4h-3L377.5,549.6z M381.1,563.5l-1.4-10.2h-0.1
				l-1.4,10.2H381.1z"/>
		</g>
	</g>
	<g>
		<path class="st5" d="M92.2,60.3c-1.3,0-1.9,0.8-1.9,2.3v13c0,1.6,0.6,2.3,1.9,2.3c1.3,0,1.9-0.8,1.9-2.3v-13
			C94.1,61.1,93.5,60.3,92.2,60.3z"/>
		<path class="st5" d="M34,31.1v77.8h77.8V31.1H34z M58.2,81h-9.9V57.2H52v20.4h6.2V81z M70.9,75.4c0,1.9-0.5,3.4-1.5,4.4
			c-1,1-2.4,1.6-4.2,1.6c-1.8,0-3.2-0.5-4.2-1.6c-1-1-1.5-2.5-1.5-4.4V62.9c0-1.9,0.5-3.4,1.5-4.4c1-1,2.4-1.6,4.2-1.6
			c1.8,0,3.2,0.5,4.2,1.6c1,1,1.5,2.5,1.5,4.4V75.4z M84.4,64.9h-3.5v-2.3c0-1.6-0.6-2.3-1.9-2.3c-1.3,0-1.9,0.8-1.9,2.3v13
			c0,1.5,0.6,2.3,1.9,2.3c1.3,0,1.9-0.8,1.9-2.3V71h-1.9v-3.4h5.4v7.8c0,1.9-0.5,3.4-1.4,4.4c-1,1-2.3,1.5-4.2,1.5
			c-1.8,0-3.2-0.5-4.2-1.5c-1-1-1.4-2.5-1.4-4.4V62.9c0-1.9,0.5-3.4,1.4-4.4s2.3-1.5,4.2-1.5c1.8,0,3.2,0.5,4.2,1.5
			c1,1,1.4,2.5,1.4,4.4V64.9z M97.9,75.4c0,1.9-0.5,3.4-1.5,4.4c-1,1-2.4,1.6-4.2,1.6s-3.2-0.5-4.2-1.6c-1-1-1.5-2.5-1.5-4.4V62.9
			c0-1.9,0.5-3.4,1.5-4.4c1-1,2.4-1.6,4.2-1.6s3.2,0.5,4.2,1.6c1,1,1.5,2.5,1.5,4.4V75.4z"/>
		<path class="st5" d="M65.3,60.3c-1.3,0-1.9,0.8-1.9,2.3v13c0,1.6,0.6,2.3,1.9,2.3c1.3,0,1.9-0.8,1.9-2.3v-13
			C67.2,61.1,66.6,60.3,65.3,60.3z"/>
	</g>
	<g>
		<rect x="579.1" y="88.7" class="st5" width="86.8" height="9.8"/>
		<rect x="579.1" y="65.1" class="st5" width="86.8" height="9.8"/>
		<rect x="579.1" y="41.4" class="st5" width="86.8" height="9.8"/>
	</g>
	<g>
		<rect x="36.1" y="247.8" class="st7" width="114.8" height="9.8"/>
		<rect x="36.1" y="224.1" class="st7" width="114.8" height="9.8"/>
		<rect x="36.1" y="200.5" class="st7" width="114.8" height="9.8"/>
		<rect x="36.1" y="318.7" class="st7" width="114.8" height="9.8"/>
		<rect x="36.1" y="295.1" class="st7" width="114.8" height="9.8"/>
		<rect x="36.1" y="271.4" class="st7" width="114.8" height="9.8"/>
		<rect x="36.1" y="389.7" class="st7" width="114.8" height="9.8"/>
		<rect x="36.1" y="366" class="st7" width="114.8" height="9.8"/>
		<rect x="36.1" y="342.4" class="st7" width="114.8" height="9.8"/>
	</g>
	<g>
		<g>
			<path d="M322.6,280.3h5.9v15.2h6.3v-15.2h5.9v37.4h-5.9v-16.8h-6.3v16.8h-5.9V280.3z"/>
			<path d="M345,280.3h5.9v32.1h9.7v5.3H345V280.3z"/>
			<path d="M368.2,280.3h8l6.1,37.4h-5.9l-1.1-7.4v0.1h-6.7l-1.1,7.3h-5.5L368.2,280.3z M374.6,305.3l-2.6-18.5h-0.1l-2.6,18.5
				H374.6z"/>
			<path d="M382,280.3h5.9l3.9,29h0.1l3.9-29h5.4l-5.7,37.4h-7.8L382,280.3z"/>
			<path d="M404,280.3h7.4l5.7,22.4h0.1v-22.4h5.2v37.4h-6l-7.1-27.3h-0.1v27.3H404V280.3z"/>
			<path d="M430.3,271.6h6.4l-5.7,6.1h-4.4L430.3,271.6z M426.8,280.3h5.9v37.4h-5.9V280.3z"/>
			<path d="M447.5,315.8c-1.5-1.6-2.3-4-2.3-7v-19.7c0-3,0.8-5.3,2.3-7c1.5-1.6,3.7-2.5,6.6-2.5s5.1,0.8,6.6,2.5
				c1.5,1.6,2.3,4,2.3,7v19.7c0,3-0.8,5.3-2.3,7c-1.5,1.6-3.7,2.5-6.6,2.5S449.1,317.4,447.5,315.8z M457.2,309.2v-20.4
				c0-2.5-1-3.7-3-3.7c-2,0-3,1.2-3,3.7v20.4c0,2.5,1,3.7,3,3.7C456.2,312.9,457.2,311.7,457.2,309.2z"/>
			<path d="M467.1,280.3h8.9c3,0,5.2,0.7,6.6,2.1c1.4,1.4,2.1,3.6,2.1,6.5v1.5c0,1.9-0.3,3.5-0.9,4.7s-1.6,2.1-2.9,2.6v0.1
				c2.9,1,4.4,3.6,4.4,7.8v3.2c0,2.9-0.8,5.1-2.3,6.6c-1.5,1.5-3.7,2.3-6.7,2.3h-9.3V280.3z M475.2,295.5c1.2,0,2.1-0.3,2.6-0.9
				c0.6-0.6,0.9-1.6,0.9-3v-2.1c0-1.4-0.2-2.3-0.7-2.9c-0.5-0.6-1.2-0.9-2.3-0.9h-2.8v9.9H475.2z M476.3,312.4c1,0,1.8-0.3,2.3-0.8
				c0.5-0.6,0.7-1.5,0.7-2.9v-3.3c0-1.7-0.3-2.9-0.9-3.6c-0.6-0.7-1.6-1-2.9-1h-2.6v11.5H476.3z"/>
			<path d="M489.8,315.8c-1.5-1.6-2.2-3.9-2.2-7v-2.1h5.6v2.6c0,2.4,1,3.6,3,3.6c1,0,1.8-0.3,2.3-0.9c0.5-0.6,0.8-1.5,0.8-2.9
				c0-1.6-0.4-3-1.1-4.1c-0.7-1.2-2-2.6-4-4.3c-2.4-2.1-4.1-4.1-5.1-5.8c-1-1.7-1.4-3.7-1.4-5.9c0-3,0.7-5.2,2.2-6.9
				c1.5-1.6,3.7-2.4,6.5-2.4c2.8,0,4.9,0.8,6.4,2.4c1.4,1.6,2.2,3.9,2.2,7v1.6h-5.6v-1.9c0-1.3-0.2-2.2-0.7-2.8s-1.2-0.9-2.2-0.9
				c-2,0-2.9,1.2-2.9,3.6c0,1.4,0.4,2.6,1.1,3.8c0.7,1.2,2.1,2.6,4,4.3c2.5,2.1,4.2,4.1,5.1,5.8c0.9,1.7,1.4,3.8,1.4,6.2
				c0,3.1-0.8,5.4-2.3,7.1c-1.5,1.6-3.7,2.5-6.6,2.5C493.5,318.2,491.3,317.4,489.8,315.8z"/>
			<path d="M512.9,280.3h8l6.1,37.4h-5.9l-1.1-7.4v0.1h-6.7l-1.1,7.3h-5.5L512.9,280.3z M519.4,305.3l-2.6-18.5h-0.1l-2.6,18.5
				H519.4z"/>
			<path d="M529.8,280.3h5.9v15.2h6.3v-15.2h5.9v37.4H542v-16.8h-6.3v16.8h-5.9V280.3z"/>
		</g>
		<rect x="295.7" y="248.1" class="st8" width="279.1" height="103.8"/>
	</g>
	<path class="st6" d="M72.9,504C87.3,504,99,515.7,99,530s-11.7,26.1-26.1,26.1S46.9,544.4,46.9,530S58.6,504,72.9,504z M72.9,498.7
		c-17.3,0-31.3,14-31.3,31.3s14,31.3,31.3,31.3s31.3-14,31.3-31.3S90.2,498.7,72.9,498.7z M72.9,539.9c-5.4,0-9.9-4.4-9.9-9.9
		c0-5.4,4.4-9.9,9.9-9.9c3.1,0,6,1.4,8.2,4.4l4.8-3.2c-3.3-4.8-8.2-7-13-7c-8.6,0-15.6,7-15.6,15.6c0,8.6,7,15.6,15.6,15.6
		c4.9,0,9.7-2.2,13-7l-4.8-3.2C79,538.5,76,539.9,72.9,539.9z"/>
	<path class="st6" d="M622.5,497.8c-8.5,0-16.1,6.9-16.1,15.3c0,12.6,12.8,13.9,16.1,33c3.3-19.1,16.1-20.4,16.1-33
		C638.6,504.7,630.9,497.8,622.5,497.8z M622.5,519.3c-3,0-5.4-2.4-5.4-5.4c0-3,2.4-5.4,5.4-5.4c3,0,5.4,2.4,5.4,5.4
		C627.8,516.9,625.4,519.3,622.5,519.3z M654.7,562.2l-18-6.5l-14.2,6.5l-15-6.5l-17.2,6.5l10.7-24.2l10.6-4.3c1,1.4,2,2.9,2.8,4.6
		l-9.5,3.8l-4.6,10.4l7.2-2.7l4-7.2l-1.7,8.2l11.2,4.8l1.3-5.4l1.2,5.4l11.1-5.1l-1.7-8.1l4.2,7.8l7.3,2.7l-4.7-10.7l-9.6-3.8
		c0.9-1.7,1.8-3.3,2.9-4.6l10.8,4.3L654.7,562.2z"/>
</g>
</svg>
