<?xml version="1.0" encoding="utf-8"?>
<!-- Generator: Adobe Illustrator 25.0.1, SVG Export Plug-In . SVG Version: 6.00 Build 0)  -->
<svg version="1.1"
	 id="svg8" xmlns:cc="http://creativecommons.org/ns#" xmlns:dc="http://purl.org/dc/elements/1.1/" xmlns:inkscape="http://www.inkscape.org/namespaces/inkscape" xmlns:rdf="http://www.w3.org/1999/02/22-rdf-syntax-ns#" xmlns:sodipodi="http://sodipodi.sourceforge.net/DTD/sodipodi-0.dtd" xmlns:svg="http://www.w3.org/2000/svg"
	 xmlns="http://www.w3.org/2000/svg" xmlns:xlink="http://www.w3.org/1999/xlink" x="0px" y="0px" viewBox="0 0 187.6 186.5"
	 style="enable-background:new 0 0 187.6 186.5;" xml:space="preserve">
<style type="text/css">
	.st0{opacity:0.53;filter:url(#filter2248);enable-background:new    ;}
	
		.st1{fill:url(#path826_1_);stroke:#CDCDCD;stroke-width:0.2637;stroke-linecap:round;stroke-linejoin:round;stroke-miterlimit:11.3386;}
	.st2{fill:url(#circle828_1_);}
	.st3{fill:#F4F2F3;}
	.st4{opacity:0.409;filter:url(#filter2222);enable-background:new    ;}
	.st5{fill:#FF5150;}
	.st6{fill:#F1F1F1;}
	.st7{opacity:0.243;enable-background:new    ;}
</style>
<filter  height="1.096" id="filter2248" inkscape:collect="always" style="color-interpolation-filters:sRGB" width="1.096" x="-0.048" y="-0.048">
	<feGaussianBlur  id="feGaussianBlur2250" inkscape:collect="always" stdDeviation="3.5643107"></feGaussianBlur>
</filter>
<filter  height="1.0446756" id="filter2222" inkscape:collect="always" style="color-interpolation-filters:sRGB" width="1.0418189" x="-0.020909378" y="-0.0223378">
	<feGaussianBlur  id="feGaussianBlur2224" inkscape:collect="always" stdDeviation="0.95767362"></feGaussianBlur>
</filter>
<sodipodi:namedview  bordercolor="#666666" borderopacity="1.0" fit-margin-bottom="0.01" fit-margin-left="0.01" fit-margin-right="0.01" fit-margin-top="0.01" id="base" inkscape:current-layer="layer1" inkscape:cx="94.825651" inkscape:cy="88.085169" inkscape:document-units="px" inkscape:guide-bbox="true" inkscape:object-nodes="false" inkscape:object-paths="false" inkscape:pageopacity="0.0" inkscape:pageshadow="2" inkscape:snap-center="false" inkscape:snap-intersection-paths="false" inkscape:snap-object-midpoints="false" inkscape:window-height="1017" inkscape:window-maximized="1" inkscape:window-width="1920" inkscape:window-x="1358" inkscape:window-y="-8" inkscape:zoom="1" pagecolor="#ffffff" showgrid="false" showguides="true">
	</sodipodi:namedview>
<g id="layer1" transform="translate(-318.88562,-180.59501)" inkscape:groupmode="layer" inkscape:label="Capa 1">
	<g id="g2858">
		<g id="path2226" inkscape:connector-curvature="0" class="st0">
			<ellipse cx="411.8" cy="280" rx="88.3" ry="85.1"/>
		</g>
		
			<linearGradient id="path826_1_" gradientUnits="userSpaceOnUse" x1="731.7485" y1="124.9802" x2="731.7485" y2="309.006" gradientTransform="matrix(0.9965 0 0 -0.9965 -317.3521 488.6794)">
			<stop  offset="0" style="stop-color:#BDBDBD"/>
			<stop  offset="1" style="stop-color:#FFFFFF"/>
		</linearGradient>
		<path id="path826" inkscape:connector-curvature="0" class="st1" d="M503.5,272.4c0,50.6-41.1,91.7-91.7,91.7l0,0
			c-50.6,0-91.7-41.1-91.7-91.7c0-50.6,41.1-91.7,91.7-91.7l0,0C462.5,180.8,503.5,221.8,503.5,272.4L503.5,272.4L503.5,272.4z"/>
		
			<radialGradient id="circle828_1_" cx="715.7903" cy="233.6661" r="84.8028" gradientTransform="matrix(1.0812 0 0 -1.0812 -361.713 512.7713)" gradientUnits="userSpaceOnUse">
			<stop  offset="0" style="stop-color:#06C2E7"/>
			<stop  offset="0.25" style="stop-color:#0DB8EC"/>
			<stop  offset="0.5" style="stop-color:#12AEF1"/>
			<stop  offset="0.75" style="stop-color:#1F86F9"/>
			<stop  offset="1" style="stop-color:#107DDD"/>
		</radialGradient>
		<path id="circle828" inkscape:connector-curvature="0" class="st2" d="M496.3,272.4c0,46.7-37.8,84.5-84.5,84.5l0,0
			c-46.7,0-84.5-37.8-84.5-84.5l0,0c0-46.7,37.8-84.5,84.5-84.5l0,0C458.5,187.9,496.3,225.8,496.3,272.4L496.3,272.4z"/>
		<path id="rect830" inkscape:connector-curvature="0" class="st3" d="M411.8,192.3c-0.7,0-1.2,0.5-1.2,1.2v14.2
			c0,0.7,0.5,1.2,1.2,1.2s1.2-0.5,1.2-1.2v-14.2C413.1,192.9,412.5,192.3,411.8,192.3z M403.8,192.9c-0.1,0-0.2,0-0.3,0
			c-0.7,0.1-1.2,0.7-1.1,1.4l0.6,5.9c0.1,0.7,0.7,1.2,1.4,1.1c0.7-0.1,1.2-0.7,1.1-1.4l-0.6-5.9
			C404.8,193.4,404.3,192.9,403.8,192.9z M420,192.9c-0.6,0.1-1,0.5-1.1,1.1l-0.6,5.9c-0.1,0.7,0.4,1.3,1.1,1.4
			c0.7,0.1,1.3-0.4,1.4-1.1l0.6-5.9c0.1-0.7-0.4-1.3-1.1-1.4C420.1,192.9,420,192.9,420,192.9L420,192.9z M395.5,194.1
			c-0.1,0-0.2,0-0.2,0c-0.7,0.1-1.1,0.8-1,1.5l2.9,13.9c0.1,0.7,0.8,1.1,1.5,1c0.7-0.1,1.1-0.8,1-1.5l-2.9-13.9
			C396.6,194.4,396.1,194.1,395.5,194.1L395.5,194.1z M428.2,194.1c-0.6,0-1.1,0.4-1.2,1l-3,13.9c-0.1,0.7,0.3,1.3,0.9,1.5
			c0.7,0.1,1.3-0.3,1.5-0.9l3-13.9c0.1-0.7-0.3-1.3-0.9-1.5C428.4,194.1,428.3,194.1,428.2,194.1L428.2,194.1z M387.6,196.3
			c-0.2,0-0.3,0-0.5,0.1c-0.6,0.2-1,0.9-0.8,1.6l1.8,5.7c0.2,0.6,0.9,1,1.6,0.8c0.6-0.2,1-0.9,0.8-1.6l-1.8-5.7
			C388.5,196.6,388.1,196.3,387.6,196.3L387.6,196.3z M436.1,196.3c-0.5,0-0.9,0.4-1.1,0.8l-1.8,5.7c-0.2,0.6,0.1,1.3,0.8,1.6
			c0.6,0.2,1.3-0.1,1.6-0.8l1.8-5.7c0.2-0.6-0.1-1.3-0.8-1.6C436.4,196.3,436.2,196.3,436.1,196.3L436.1,196.3z M379.8,199.1
			c-0.2,0-0.3,0-0.5,0.1c-0.6,0.3-0.9,1-0.6,1.6l5.8,13c0.3,0.6,1,0.9,1.6,0.6c0.6-0.3,0.9-1,0.6-1.6l-5.8-13
			C380.7,199.4,380.3,199.1,379.8,199.1z M444,199.2c-0.5,0-0.9,0.3-1.1,0.7l-5.8,13c-0.3,0.6,0,1.3,0.6,1.6c0.6,0.3,1.3,0,1.6-0.6
			l5.8-13c0.3-0.6,0-1.3-0.6-1.6C444.3,199.2,444.1,199.2,444,199.2z M372.5,203c-0.2,0-0.5,0-0.7,0.2c-0.6,0.3-0.8,1.1-0.5,1.7
			l3,5.2c0.3,0.6,1.1,0.8,1.7,0.5c0.6-0.3,0.8-1.1,0.5-1.7l-3-5.2C373.3,203.2,372.9,203,372.5,203L372.5,203z M451.1,203
			c-0.4,0-0.8,0.2-1,0.6l-3,5.2c-0.3,0.6-0.1,1.3,0.5,1.7c0.6,0.3,1.3,0.1,1.7-0.5l3-5.2c0.3-0.6,0.1-1.3-0.5-1.7
			C451.6,203,451.4,203,451.1,203L451.1,203z M365.5,207.4c-0.2,0-0.5,0.1-0.7,0.2c-0.6,0.4-0.7,1.2-0.3,1.7l8.3,11.5
			c0.4,0.6,1.2,0.7,1.7,0.3c0.6-0.4,0.7-1.2,0.3-1.7l-8.3-11.5C366.3,207.5,365.9,207.4,365.5,207.4L365.5,207.4z M458.3,207.4
			c-0.4,0-0.8,0.2-1,0.5l-8.4,11.5c-0.4,0.6-0.3,1.3,0.3,1.7c0.6,0.4,1.3,0.3,1.7-0.3l8.4-11.5c0.4-0.6,0.3-1.3-0.3-1.7
			C458.7,207.5,458.5,207.4,458.3,207.4L458.3,207.4z M359.2,212.7c-0.3,0-0.6,0.1-0.9,0.3c-0.5,0.5-0.5,1.2-0.1,1.7l4,4.4
			c0.5,0.5,1.2,0.5,1.7,0.1c0.5-0.5,0.5-1.2,0.1-1.7l-4-4.4C359.8,212.8,359.5,212.7,359.2,212.7L359.2,212.7z M464.5,212.7
			c-0.3,0-0.6,0.2-0.9,0.4l-4,4.4c-0.5,0.5-0.4,1.3,0.1,1.7c0.5,0.5,1.3,0.4,1.7-0.1l4-4.4c0.5-0.5,0.4-1.3-0.1-1.7
			C465.1,212.8,464.8,212.6,464.5,212.7L464.5,212.7z M353.2,218.5c-0.3,0-0.6,0.2-0.9,0.4c-0.5,0.5-0.4,1.3,0.1,1.7l10.6,9.5
			c0.5,0.5,1.3,0.4,1.7-0.1c0.5-0.5,0.4-1.3-0.1-1.7l-10.6-9.5C353.8,218.5,353.5,218.4,353.2,218.5L353.2,218.5z M470.6,218.5
			c-0.3,0-0.6,0.1-0.9,0.3l-10.6,9.5c-0.5,0.5-0.5,1.2-0.1,1.7c0.5,0.5,1.2,0.5,1.7,0.1l10.6-9.5c0.5-0.5,0.5-1.2,0.1-1.7
			C471.2,218.6,470.9,218.5,470.6,218.5z M348.1,224.9c-0.4,0-0.8,0.2-1,0.5c-0.4,0.6-0.3,1.3,0.3,1.7l4.8,3.5
			c0.6,0.4,1.3,0.3,1.7-0.3c0.4-0.6,0.3-1.3-0.3-1.7l-4.8-3.5C348.6,225,348.4,224.9,348.1,224.9L348.1,224.9z M475.6,224.9
			c-0.2,0-0.5,0.1-0.7,0.2l-4.8,3.5c-0.6,0.4-0.7,1.2-0.3,1.7c0.4,0.6,1.2,0.7,1.7,0.3l4.8-3.5c0.6-0.4,0.7-1.2,0.3-1.7
			C476.4,225.1,476,224.9,475.6,224.9L475.6,224.9z M343.4,231.8c-0.4,0-0.8,0.2-1,0.6c-0.3,0.6-0.1,1.3,0.5,1.7l12.3,7.1
			c0.6,0.3,1.3,0.1,1.7-0.5c0.3-0.6,0.1-1.3-0.5-1.7l-12.3-7.1C343.9,231.8,343.7,231.8,343.4,231.8L343.4,231.8z M480.2,231.8
			c-0.2,0-0.5,0-0.7,0.2l-12.3,7.1c-0.6,0.3-0.8,1.1-0.5,1.7c0.3,0.6,1.1,0.8,1.7,0.5l12.3-7.1c0.6-0.3,0.8-1.1,0.5-1.7
			C481,232,480.6,231.8,480.2,231.8L480.2,231.8z M339.9,239.1c-0.5,0-0.9,0.3-1.1,0.7c-0.3,0.6,0,1.3,0.6,1.6l5.5,2.4
			c0.6,0.3,1.3,0,1.6-0.6c0.3-0.6,0-1.3-0.6-1.6l-5.5-2.4C340.2,239.2,340.1,239.1,339.9,239.1z M483.8,239.2c-0.2,0-0.3,0-0.5,0.1
			l-5.5,2.4c-0.6,0.3-0.9,1-0.6,1.6c0.3,0.6,1,0.9,1.6,0.6l5.5-2.4c0.6-0.3,0.9-1,0.6-1.6C484.7,239.4,484.3,239.2,483.8,239.2
			L483.8,239.2z M336.7,246.8c-0.5,0-0.9,0.4-1.1,0.8c-0.2,0.6,0.1,1.3,0.8,1.6l13.5,4.4c0.6,0.2,1.3-0.1,1.6-0.8
			c0.2-0.6-0.1-1.3-0.8-1.6l-13.5-4.4C337.1,246.8,336.9,246.8,336.7,246.8L336.7,246.8z M486.9,246.8c-0.2,0-0.3,0-0.5,0.1
			l-13.5,4.4c-0.6,0.2-1,0.9-0.8,1.6c0.2,0.6,0.9,1,1.6,0.8l13.5-4.4c0.6-0.2,1-0.9,0.8-1.6C487.9,247.2,487.4,246.9,486.9,246.8
			L486.9,246.8z M334.8,254.8c-0.6,0-1.1,0.4-1.2,1c-0.1,0.7,0.3,1.3,0.9,1.5l5.8,1.2c0.7,0.1,1.3-0.3,1.5-0.9
			c0.1-0.7-0.3-1.3-0.9-1.5l-5.8-1.2C334.9,254.8,334.9,254.8,334.8,254.8L334.8,254.8z M488.9,254.8c-0.1,0-0.2,0-0.2,0l-5.8,1.2
			c-0.7,0.1-1.1,0.8-0.9,1.5c0.1,0.7,0.8,1.1,1.5,0.9l5.8-1.2c0.7-0.1,1.1-0.8,0.9-1.5C490,255.2,489.5,254.8,488.9,254.8
			L488.9,254.8z M333.3,262.9c-0.6,0.1-1,0.5-1.1,1.1c-0.1,0.7,0.4,1.3,1.1,1.4l14.1,1.5c0.7,0.1,1.3-0.4,1.4-1.1
			c0.1-0.7-0.4-1.3-1.1-1.4l-14.1-1.5C333.4,262.9,333.4,262.9,333.3,262.9L333.3,262.9z M490.4,263c-0.1,0-0.2,0-0.3,0l-14.1,1.5
			c-0.7,0.1-1.2,0.7-1.1,1.4c0.1,0.7,0.7,1.2,1.4,1.1l14.1-1.5c0.7-0.1,1.2-0.7,1.1-1.4C491.4,263.5,491,263.1,490.4,263L490.4,263z
			 M333,271.2c-0.7,0-1.2,0.5-1.2,1.2c0,0.7,0.5,1.2,1.2,1.2h6c0.7,0,1.2-0.5,1.2-1.2s-0.5-1.2-1.2-1.2H333z M484.6,271.2
			c-0.7,0-1.2,0.5-1.2,1.2c0,0.7,0.5,1.2,1.2,1.2h6c0.7,0,1.2-0.5,1.2-1.2s-0.5-1.2-1.2-1.2H484.6z M347.7,277.9c-0.1,0-0.2,0-0.2,0
			l-14.1,1.5c-0.7,0.1-1.2,0.7-1.1,1.4c0.1,0.7,0.7,1.2,1.4,1.1l14.1-1.5c0.7-0.1,1.2-0.7,1.1-1.4
			C348.7,278.4,348.2,278,347.7,277.9L347.7,277.9z M476,278c-0.6,0.1-1,0.5-1.1,1.1c-0.1,0.7,0.4,1.3,1.1,1.4l14.1,1.5
			c0.7,0.1,1.3-0.4,1.4-1.1c0.1-0.7-0.4-1.3-1.1-1.4l-14.1-1.5C476.2,278,476.1,278,476,278L476,278z M340.6,286.3
			c-0.1,0-0.2,0-0.2,0l-5.8,1.2c-0.7,0.1-1.1,0.8-0.9,1.5c0.1,0.7,0.8,1.1,1.5,0.9l5.8-1.2c0.7-0.1,1.1-0.8,0.9-1.5
			C341.7,286.7,341.2,286.3,340.6,286.3L340.6,286.3z M483.1,286.4c-0.6,0-1.1,0.4-1.2,1c-0.1,0.7,0.3,1.3,0.9,1.5l5.8,1.2
			c0.7,0.1,1.3-0.3,1.5-0.9c0.1-0.7-0.3-1.3-0.9-1.5l-5.8-1.2C483.2,286.4,483.1,286.4,483.1,286.4L483.1,286.4z M350.5,291.2
			c-0.2,0-0.3,0-0.5,0.1l-13.5,4.4c-0.6,0.2-1,0.9-0.8,1.6c0.2,0.6,0.9,1,1.6,0.8l13.5-4.4c0.6-0.2,1-0.9,0.8-1.6
			C351.4,291.6,350.9,291.2,350.5,291.2L350.5,291.2z M473.2,291.3c-0.5,0-0.9,0.4-1.1,0.8c-0.2,0.6,0.1,1.3,0.8,1.6l13.5,4.4
			c0.6,0.2,1.3-0.1,1.6-0.8c0.2-0.6-0.1-1.3-0.8-1.6l-13.5-4.4C473.5,291.3,473.4,291.2,473.2,291.3L473.2,291.3z M345.3,300.8
			c-0.2,0-0.3,0-0.5,0.1l-5.5,2.4c-0.6,0.3-0.9,1-0.6,1.6c0.3,0.6,1,0.9,1.6,0.6l5.5-2.4c0.6-0.3,0.9-1,0.6-1.6
			C346.2,301.1,345.8,300.8,345.3,300.8L345.3,300.8z M478.4,300.9c-0.5,0-0.9,0.3-1.1,0.7c-0.3,0.6,0,1.3,0.6,1.6l5.5,2.4
			c0.6,0.3,1.3,0,1.6-0.6c0.3-0.6,0-1.3-0.6-1.6l-5.5-2.4C478.7,300.9,478.5,300.9,478.4,300.9L478.4,300.9z M355.9,303.5
			c-0.2,0-0.5,0-0.7,0.2l-12.3,7.1c-0.6,0.3-0.8,1.1-0.5,1.7c0.3,0.6,1.1,0.8,1.7,0.5l12.3-7.1c0.6-0.3,0.8-1.1,0.5-1.7
			C356.7,303.8,356.3,303.6,355.9,303.5L355.9,303.5z M467.7,303.5c-0.4,0-0.8,0.2-1,0.6c-0.3,0.6-0.1,1.3,0.5,1.7l12.3,7.1
			c0.6,0.3,1.3,0.1,1.7-0.5c0.3-0.6,0.1-1.3-0.5-1.7l-12.3-7.1C468.2,303.6,468,303.5,467.7,303.5L467.7,303.5z M352.9,314
			c-0.2,0-0.5,0.1-0.7,0.2l-4.8,3.5c-0.6,0.4-0.7,1.2-0.3,1.7c0.4,0.6,1.2,0.7,1.7,0.3l4.8-3.5c0.6-0.4,0.7-1.2,0.3-1.7
			C353.6,314.1,353.3,314,352.9,314L352.9,314z M470.8,314c-0.4,0-0.8,0.2-1,0.5c-0.4,0.6-0.3,1.3,0.3,1.7l4.8,3.5
			c0.6,0.4,1.3,0.3,1.7-0.3c0.4-0.6,0.3-1.3-0.3-1.7l-4.8-3.5C471.3,314.1,471,314,470.8,314L470.8,314z M363.8,314.4
			c-0.3,0-0.6,0.1-0.9,0.3l-10.6,9.5c-0.5,0.5-0.5,1.2-0.1,1.7c0.5,0.5,1.2,0.5,1.7,0.1l10.6-9.5c0.5-0.5,0.5-1.2,0.1-1.7
			C364.4,314.6,364.1,314.5,363.8,314.4z M459.8,314.5c-0.3,0-0.6,0.2-0.9,0.4c-0.5,0.5-0.4,1.3,0.1,1.7l10.6,9.5
			c0.5,0.5,1.3,0.4,1.7-0.1c0.5-0.5,0.4-1.3-0.1-1.7l-10.6-9.5C460.5,314.6,460.1,314.5,459.8,314.5L459.8,314.5z M373.8,323.5
			c-0.4,0-0.8,0.2-1,0.5l-8.4,11.5c-0.4,0.6-0.3,1.3,0.3,1.7c0.6,0.4,1.3,0.3,1.7-0.3l8.4-11.5c0.4-0.6,0.3-1.3-0.3-1.7
			C374.3,323.6,374.1,323.5,373.8,323.5z M449.8,323.6c-0.2,0-0.5,0.1-0.7,0.2c-0.6,0.4-0.7,1.2-0.3,1.7l8.3,11.5
			c0.4,0.6,1.2,0.7,1.7,0.3c0.6-0.4,0.7-1.2,0.3-1.7l-8.3-11.5C450.5,323.7,450.2,323.5,449.8,323.6L449.8,323.6z M363.1,325.3
			c-0.3,0-0.6,0.2-0.9,0.4l-4,4.4c-0.5,0.5-0.4,1.3,0.1,1.7c0.5,0.5,1.3,0.4,1.7-0.1l4-4.4c0.5-0.5,0.4-1.3-0.1-1.7
			C363.7,325.4,363.4,325.3,363.1,325.3L363.1,325.3z M460.6,325.3c-0.3,0-0.6,0.1-0.9,0.3c-0.5,0.5-0.5,1.2-0.1,1.7l4,4.4
			c0.5,0.5,1.2,0.5,1.7,0.1c0.5-0.5,0.5-1.2,0.1-1.7l-4-4.4C461.2,325.5,460.9,325.3,460.6,325.3L460.6,325.3z M385.5,330.3
			c-0.5,0-0.9,0.3-1.1,0.7l-5.8,13c-0.3,0.6,0,1.3,0.6,1.6c0.6,0.3,1.3,0,1.6-0.6l5.8-13c0.3-0.6,0-1.3-0.6-1.6
			C385.8,330.3,385.7,330.3,385.5,330.3L385.5,330.3z M438.1,330.3c-0.2,0-0.3,0-0.5,0.1c-0.6,0.3-0.9,1-0.6,1.6l5.8,13
			c0.3,0.6,1,0.9,1.6,0.6c0.6-0.3,0.9-1,0.6-1.6l-5.8-13C439,330.6,438.6,330.3,438.1,330.3L438.1,330.3z M375.3,334.3
			c-0.4,0-0.8,0.2-1,0.6l-3,5.2c-0.3,0.6-0.1,1.3,0.5,1.7c0.6,0.3,1.3,0.1,1.7-0.5l3-5.2c0.3-0.6,0.1-1.3-0.5-1.7
			C375.8,334.3,375.6,334.3,375.3,334.3L375.3,334.3z M448.3,334.3c-0.2,0-0.5,0-0.7,0.2c-0.6,0.3-0.8,1.1-0.5,1.7l3,5.2
			c0.3,0.6,1.1,0.8,1.7,0.5c0.6-0.3,0.8-1.1,0.5-1.7l-3-5.2C449.1,334.5,448.7,334.3,448.3,334.3L448.3,334.3z M398.4,334.5
			c-0.6,0-1.1,0.4-1.2,1l-3,13.9c-0.1,0.7,0.3,1.3,0.9,1.5c0.7,0.1,1.3-0.3,1.5-0.9l3-13.9c0.1-0.7-0.3-1.3-0.9-1.5
			C398.6,334.5,398.5,334.5,398.4,334.5L398.4,334.5z M425.2,334.5c-0.1,0-0.2,0-0.2,0c-0.7,0.1-1.1,0.8-1,1.5l2.9,13.9
			c0.1,0.7,0.8,1.1,1.5,1c0.7-0.1,1.1-0.8,1-1.5l-2.9-13.9C426.3,334.9,425.8,334.5,425.2,334.5L425.2,334.5z M411.8,335.9
			c-0.7,0-1.2,0.5-1.2,1.2v14.2c0,0.7,0.5,1.2,1.2,1.2s1.2-0.5,1.2-1.2v-14.2C413.1,336.4,412.5,335.9,411.8,335.9z M389.2,340.5
			c-0.5,0-0.9,0.4-1.1,0.8l-1.8,5.7c-0.2,0.6,0.1,1.3,0.8,1.6c0.6,0.2,1.3-0.1,1.6-0.8l1.8-5.7c0.2-0.6-0.1-1.3-0.8-1.6
			C389.5,340.5,389.4,340.4,389.2,340.5L389.2,340.5z M434.4,340.5c-0.2,0-0.3,0-0.5,0.1c-0.6,0.2-1,0.9-0.8,1.6l1.8,5.7
			c0.2,0.6,0.9,1,1.6,0.8c0.6-0.2,1-0.9,0.8-1.6l-1.8-5.7C435.3,340.8,434.9,340.5,434.4,340.5L434.4,340.5z M404.1,343.6
			c-0.6,0.1-1,0.5-1.1,1.1l-0.6,5.9c-0.1,0.7,0.4,1.3,1.1,1.4c0.7,0.1,1.3-0.4,1.4-1.1l0.6-5.9c0.1-0.7-0.4-1.3-1.1-1.4
			C404.3,343.6,404.2,343.6,404.1,343.6z M419.5,343.6c-0.1,0-0.2,0-0.3,0c-0.7,0.1-1.2,0.7-1.1,1.4l0.6,5.9
			c0.1,0.7,0.7,1.2,1.4,1.1c0.7-0.1,1.2-0.7,1.1-1.4l-0.6-5.9C420.6,344.1,420.1,343.7,419.5,343.6L419.5,343.6z"/>
		<g id="path2150" inkscape:connector-curvature="0" sodipodi:nodetypes="ccccc" class="st4">
			<polygon points="469.6,223.2 402.2,262.3 359.6,329.4 421.9,283.2 			"/>
		</g>
		<g id="g2847">
			
				<path id="path2096" inkscape:flatsided="true" inkscape:randomized="0" inkscape:rounded="1.35308e-016" inkscape:transform-center-y="-13.18648" sodipodi:arg1="1.3089969" sodipodi:arg2="2.3561945" sodipodi:cx="124.97523" sodipodi:cy="142.65184" sodipodi:r1="18.791006" sodipodi:r2="9.395503" sodipodi:sides="3" sodipodi:type="star" class="st5" d="
				M421.5,282.6l-19.3-20.2l68.5-46.1L421.5,282.6z"/>
			
				<path id="path2099" inkscape:flatsided="true" inkscape:randomized="0" inkscape:rounded="1.35308e-016" inkscape:transform-center-y="13.186483" sodipodi:arg1="1.3089969" sodipodi:arg2="2.3561945" sodipodi:cx="124.97523" sodipodi:cy="142.65184" sodipodi:r1="18.791006" sodipodi:r2="9.395503" sodipodi:sides="3" sodipodi:type="star" class="st6" d="
				M421.5,282.6l-19.3-20.2L353,328.7L421.5,282.6z"/>
			<path id="path2112" inkscape:connector-curvature="0" class="st7" d="M353,328.7l68.5-46.1l49.2-66.3L353,328.7z"/>
		</g>
	</g>
</g>
</svg>
