<?xml version="1.0" encoding="utf-8"?>
<!-- Generator: Adobe Illustrator 25.0.1, SVG Export Plug-In . SVG Version: 6.00 Build 0)  -->
<svg version="1.1" id="Vrstva_1" xmlns="http://www.w3.org/2000/svg" xmlns:xlink="http://www.w3.org/1999/xlink" x="0px" y="0px"
	 viewBox="0 0 512 512" style="enable-background:new 0 0 512 512;" xml:space="preserve">
<style type="text/css">
	.st0{fill:#00DBAB;}
</style>
<path class="st0" d="M445.6,324.3v15.1h-86.4v-15.1l17.5-2c0.3-20.4,0.2-40,0.4-54.8l0.7-52l-41.6,123.9h-22.5L285,259.2l-14.4,62
	l-4.2,18.2h-57.5l-23.1-102.9l-23.1,102.9h-57.5L66.4,172.6h49.9l18.4,113.5l25.7-113.5H211l25.9,113.5l15.2-93.6l3.2-19.9h50.2
	l35.3,100.9L374,172.6h70.3v15.1l-16.2,1.7c-0.4,20.8-0.4,41.8-0.4,62.5v8.2c0,21.1,0,41.9,0.4,62.5L445.6,324.3z M512,256
	C512,114.6,397.4,0,256,0S0,114.6,0,256s114.6,256,256,256S512,397.4,512,256z"/>
</svg>
