<?xml version="1.0" encoding="utf-8"?>
<!-- Generator: Adobe Illustrator 25.0.1, SVG Export Plug-In . SVG Version: 6.00 Build 0)  -->
<svg version="1.1" id="Vrstva_1" xmlns="http://www.w3.org/2000/svg" xmlns:xlink="http://www.w3.org/1999/xlink" x="0px" y="0px"
	 viewBox="0 0 692.3 704.1" style="enable-background:new 0 0 692.3 704.1;" xml:space="preserve">
<style type="text/css">
	.st0{fill:url(#SVGID_1_);}
</style>
<linearGradient id="SVGID_1_" gradientUnits="userSpaceOnUse" x1="346.15" y1="1.6" x2="346.15" y2="706" gradientTransform="matrix(1 0 0 -1 0 706)">
	<stop  offset="0" style="stop-color:#FFFFFF;stop-opacity:0"/>
	<stop  offset="1" style="stop-color:#000000"/>
</linearGradient>
<path class="st0" d="M676.5,0H15.8C7.1,0,0,7.1,0,15.8v672.8c0,8.7,7.1,15.8,15.8,15.8h660.7c8.7,0,15.8-7.1,15.8-15.8V15.8
	C692.3,7.1,685.2,0,676.5,0z M689.3,688.6c0,7-5.7,12.8-12.8,12.8H15.8c-7,0-12.8-5.7-12.8-12.8V15.8C3,8.7,8.7,3,15.8,3h660.7
	c7,0,12.8,5.7,12.8,12.8V688.6z M49.5,118.8h593.2v2H49.5V118.8z M98.1,616.3h496.1v2H98.1V616.3z M148.9,639.7h394.4v2H148.9V639.7
	z M190.1,663.1h312v2h-312V663.1z M604.5,57.5v-2l38.2-0.2v2L604.5,57.5z M604.5,72.1v-2l38.2-0.2v2L604.5,72.1z M604.5,86.6v-2
	l38.2-0.2v2L604.5,86.6z M183.1,55.5H48.5v31.1H183V55.5H183.1z M181.1,84.6H50.5V57.5H181v27.1H181.1z M226.8,362.7h417V152.9h-417
	L226.8,362.7L226.8,362.7z M228.8,154.9h413v205.8h-413L228.8,154.9L228.8,154.9z M48.5,451.5h595.2v-56.7H48.5V451.5z M50.5,396.8
	h591.2v52.7H50.5V396.8z M194.2,152.9H48.5v209.8h145.7V152.9z M192.2,360.7H50.5V154.9h141.7V360.7z M140.1,483.6H48.5v91.6h91.6
	V483.6z M138.1,573.2H50.5v-87.6h87.6V573.2z M174.4,483.6v91.6H266v-91.6H174.4z M264,573.2h-87.6v-87.6H264V573.2z M300.3,483.6
	v91.6h91.6v-91.6H300.3z M389.9,573.2h-87.6v-87.6h87.6V573.2z M426.2,483.6v91.6h91.6v-91.6H426.2z M515.8,573.2h-87.6v-87.6h87.6
	V573.2z M552.2,575.2h91.6v-91.6h-91.6V575.2z M554.2,485.6h87.6v87.6h-87.6V485.6z"/>
</svg>
